<svg width="413" height="234" viewBox="0 0 413 234" fill="none" xmlns="http://www.w3.org/2000/svg">
<g filter="url(#filter0_dd_2_25)">
<path d="M109.902 21.88C111.086 21.88 112.121 22.1093 113.006 22.568C113.902 23.016 114.59 23.6667 115.07 24.52C115.561 25.3627 115.806 26.3493 115.806 27.48C115.806 28.6107 115.561 29.592 115.07 30.424C114.59 31.256 113.902 31.896 113.006 32.344C112.121 32.7813 111.086 33 109.902 33H106.27V21.88H109.902ZM109.902 31.512C111.204 31.512 112.201 31.16 112.894 30.456C113.588 29.752 113.934 28.76 113.934 27.48C113.934 26.1893 113.588 25.1813 112.894 24.456C112.201 23.7307 111.204 23.368 109.902 23.368H108.094V31.512H109.902ZM121.438 33.144C120.606 33.144 119.854 32.9573 119.182 32.584C118.51 32.2 117.982 31.6667 117.598 30.984C117.214 30.2907 117.022 29.4907 117.022 28.584C117.022 27.688 117.219 26.8933 117.614 26.2C118.009 25.5067 118.547 24.9733 119.23 24.6C119.913 24.2267 120.675 24.04 121.518 24.04C122.361 24.04 123.123 24.2267 123.806 24.6C124.489 24.9733 125.027 25.5067 125.422 26.2C125.817 26.8933 126.014 27.688 126.014 28.584C126.014 29.48 125.811 30.2747 125.406 30.968C125.001 31.6613 124.446 32.2 123.742 32.584C123.049 32.9573 122.281 33.144 121.438 33.144ZM121.438 31.56C121.907 31.56 122.345 31.448 122.75 31.224C123.166 31 123.502 30.664 123.758 30.216C124.014 29.768 124.142 29.224 124.142 28.584C124.142 27.944 124.019 27.4053 123.774 26.968C123.529 26.52 123.203 26.184 122.798 25.96C122.393 25.736 121.955 25.624 121.486 25.624C121.017 25.624 120.579 25.736 120.174 25.96C119.779 26.184 119.465 26.52 119.23 26.968C118.995 27.4053 118.878 27.944 118.878 28.584C118.878 29.5333 119.118 30.2693 119.598 30.792C120.089 31.304 120.702 31.56 121.438 31.56ZM132.265 24.04C132.959 24.04 133.577 24.184 134.121 24.472C134.676 24.76 135.108 25.1867 135.417 25.752C135.727 26.3173 135.881 27 135.881 27.8V33H134.073V28.072C134.073 27.2827 133.876 26.68 133.481 26.264C133.087 25.8373 132.548 25.624 131.865 25.624C131.183 25.624 130.639 25.8373 130.233 26.264C129.839 26.68 129.641 27.2827 129.641 28.072V33H127.817V24.184H129.641V25.192C129.94 24.8293 130.319 24.5467 130.777 24.344C131.247 24.1413 131.743 24.04 132.265 24.04ZM137.6 28.552C137.6 27.6667 137.781 26.8827 138.144 26.2C138.517 25.5173 139.018 24.9893 139.648 24.616C140.288 24.232 140.992 24.04 141.76 24.04C142.453 24.04 143.056 24.1787 143.568 24.456C144.09 24.7227 144.506 25.0587 144.816 25.464V24.184H146.656V33H144.816V31.688C144.506 32.104 144.085 32.4507 143.552 32.728C143.018 33.0053 142.41 33.144 141.728 33.144C140.97 33.144 140.277 32.952 139.648 32.568C139.018 32.1733 138.517 31.6293 138.144 30.936C137.781 30.232 137.6 29.4373 137.6 28.552ZM144.816 28.584C144.816 27.976 144.688 27.448 144.432 27C144.186 26.552 143.861 26.2107 143.456 25.976C143.05 25.7413 142.613 25.624 142.144 25.624C141.674 25.624 141.237 25.7413 140.832 25.976C140.426 26.2 140.096 26.536 139.84 26.984C139.594 27.4213 139.472 27.944 139.472 28.552C139.472 29.16 139.594 29.6933 139.84 30.152C140.096 30.6107 140.426 30.9627 140.832 31.208C141.248 31.4427 141.685 31.56 142.144 31.56C142.613 31.56 143.05 31.4427 143.456 31.208C143.861 30.9733 144.186 30.632 144.432 30.184C144.688 29.7253 144.816 29.192 144.816 28.584ZM152.252 33.144C151.558 33.144 150.934 33.0213 150.38 32.776C149.836 32.52 149.404 32.1787 149.084 31.752C148.764 31.3147 148.593 30.8293 148.572 30.296H150.46C150.492 30.6693 150.668 30.984 150.988 31.24C151.318 31.4853 151.729 31.608 152.22 31.608C152.732 31.608 153.126 31.512 153.404 31.32C153.692 31.1173 153.836 30.8613 153.836 30.552C153.836 30.2213 153.676 29.976 153.356 29.816C153.046 29.656 152.55 29.48 151.868 29.288C151.206 29.1067 150.668 28.9307 150.252 28.76C149.836 28.5893 149.473 28.328 149.164 27.976C148.865 27.624 148.716 27.16 148.716 26.584C148.716 26.1147 148.854 25.688 149.132 25.304C149.409 24.9093 149.804 24.6 150.316 24.376C150.838 24.152 151.436 24.04 152.108 24.04C153.11 24.04 153.916 24.296 154.524 24.808C155.142 25.3093 155.473 25.9973 155.516 26.872H153.692C153.66 26.4773 153.5 26.1627 153.212 25.928C152.924 25.6933 152.534 25.576 152.044 25.576C151.564 25.576 151.196 25.6667 150.94 25.848C150.684 26.0293 150.556 26.2693 150.556 26.568C150.556 26.8027 150.641 27 150.812 27.16C150.982 27.32 151.19 27.448 151.436 27.544C151.681 27.6293 152.044 27.7413 152.524 27.88C153.164 28.0507 153.686 28.2267 154.092 28.408C154.508 28.5787 154.865 28.8347 155.164 29.176C155.462 29.5173 155.617 29.9707 155.628 30.536C155.628 31.0373 155.489 31.4853 155.212 31.88C154.934 32.2747 154.54 32.584 154.028 32.808C153.526 33.032 152.934 33.144 152.252 33.144ZM158.526 23.016C158.196 23.016 157.918 22.904 157.694 22.68C157.47 22.456 157.358 22.1787 157.358 21.848C157.358 21.5173 157.47 21.24 157.694 21.016C157.918 20.792 158.196 20.68 158.526 20.68C158.846 20.68 159.118 20.792 159.342 21.016C159.566 21.24 159.678 21.5173 159.678 21.848C159.678 22.1787 159.566 22.456 159.342 22.68C159.118 22.904 158.846 23.016 158.526 23.016ZM159.422 24.184V33H157.598V24.184H159.422ZM165.365 28.552C165.365 27.6667 165.547 26.8827 165.909 26.2C166.283 25.5173 166.784 24.9893 167.413 24.616C168.053 24.232 168.763 24.04 169.541 24.04C170.117 24.04 170.683 24.168 171.237 24.424C171.803 24.6693 172.251 25 172.581 25.416V21.16H174.421V33H172.581V31.672C172.283 32.0987 171.867 32.4507 171.333 32.728C170.811 33.0053 170.208 33.144 169.525 33.144C168.757 33.144 168.053 32.952 167.413 32.568C166.784 32.1733 166.283 31.6293 165.909 30.936C165.547 30.232 165.365 29.4373 165.365 28.552ZM172.581 28.584C172.581 27.976 172.453 27.448 172.197 27C171.952 26.552 171.627 26.2107 171.221 25.976C170.816 25.7413 170.379 25.624 169.909 25.624C169.44 25.624 169.003 25.7413 168.597 25.976C168.192 26.2 167.861 26.536 167.605 26.984C167.36 27.4213 167.237 27.944 167.237 28.552C167.237 29.16 167.36 29.6933 167.605 30.152C167.861 30.6107 168.192 30.9627 168.597 31.208C169.013 31.4427 169.451 31.56 169.909 31.56C170.379 31.56 170.816 31.4427 171.221 31.208C171.627 30.9733 171.952 30.632 172.197 30.184C172.453 29.7253 172.581 29.192 172.581 28.584ZM184.897 28.376C184.897 28.7067 184.876 29.0053 184.833 29.272H178.097C178.151 29.976 178.412 30.5413 178.881 30.968C179.351 31.3947 179.927 31.608 180.609 31.608C181.591 31.608 182.284 31.1973 182.689 30.376H184.657C184.391 31.1867 183.905 31.8533 183.201 32.376C182.508 32.888 181.644 33.144 180.609 33.144C179.767 33.144 179.009 32.9573 178.337 32.584C177.676 32.2 177.153 31.6667 176.769 30.984C176.396 30.2907 176.209 29.4907 176.209 28.584C176.209 27.6773 176.391 26.8827 176.753 26.2C177.127 25.5067 177.644 24.9733 178.305 24.6C178.977 24.2267 179.745 24.04 180.609 24.04C181.441 24.04 182.183 24.2213 182.833 24.584C183.484 24.9467 183.991 25.4587 184.353 26.12C184.716 26.7707 184.897 27.5227 184.897 28.376ZM182.993 27.8C182.983 27.128 182.743 26.5893 182.273 26.184C181.804 25.7787 181.223 25.576 180.529 25.576C179.9 25.576 179.361 25.7787 178.913 26.184C178.465 26.5787 178.199 27.1173 178.113 27.8H182.993ZM191.14 24.04C191.834 24.04 192.452 24.184 192.996 24.472C193.551 24.76 193.983 25.1867 194.292 25.752C194.602 26.3173 194.756 27 194.756 27.8V33H192.948V28.072C192.948 27.2827 192.751 26.68 192.356 26.264C191.962 25.8373 191.423 25.624 190.74 25.624C190.058 25.624 189.514 25.8373 189.108 26.264C188.714 26.68 188.516 27.2827 188.516 28.072V33H186.692V24.184H188.516V25.192C188.815 24.8293 189.194 24.5467 189.652 24.344C190.122 24.1413 190.618 24.04 191.14 24.04ZM200.635 24.04C201.317 24.04 201.92 24.1787 202.443 24.456C202.976 24.7227 203.392 25.0587 203.691 25.464V24.184H205.531V33.144C205.531 33.9547 205.36 34.6747 205.019 35.304C204.677 35.944 204.181 36.4453 203.531 36.808C202.891 37.1707 202.123 37.352 201.227 37.352C200.032 37.352 199.04 37.0693 198.251 36.504C197.461 35.9493 197.013 35.192 196.907 34.232H198.715C198.853 34.6907 199.147 35.0587 199.595 35.336C200.053 35.624 200.597 35.768 201.227 35.768C201.963 35.768 202.555 35.544 203.003 35.096C203.461 34.648 203.691 33.9973 203.691 33.144V31.672C203.381 32.088 202.96 32.44 202.427 32.728C201.904 33.0053 201.307 33.144 200.635 33.144C199.867 33.144 199.163 32.952 198.523 32.568C197.893 32.1733 197.392 31.6293 197.019 30.936C196.656 30.232 196.475 29.4373 196.475 28.552C196.475 27.6667 196.656 26.8827 197.019 26.2C197.392 25.5173 197.893 24.9893 198.523 24.616C199.163 24.232 199.867 24.04 200.635 24.04ZM203.691 28.584C203.691 27.976 203.563 27.448 203.307 27C203.061 26.552 202.736 26.2107 202.331 25.976C201.925 25.7413 201.488 25.624 201.019 25.624C200.549 25.624 200.112 25.7413 199.707 25.976C199.301 26.2 198.971 26.536 198.715 26.984C198.469 27.4213 198.347 27.944 198.347 28.552C198.347 29.16 198.469 29.6933 198.715 30.152C198.971 30.6107 199.301 30.9627 199.707 31.208C200.123 31.4427 200.56 31.56 201.019 31.56C201.488 31.56 201.925 31.4427 202.331 31.208C202.736 30.9733 203.061 30.632 203.307 30.184C203.563 29.7253 203.691 29.192 203.691 28.584ZM207.319 28.552C207.319 27.6667 207.5 26.8827 207.863 26.2C208.236 25.5173 208.737 24.9893 209.367 24.616C210.007 24.232 210.711 24.04 211.479 24.04C212.172 24.04 212.775 24.1787 213.287 24.456C213.809 24.7227 214.225 25.0587 214.535 25.464V24.184H216.375V33H214.535V31.688C214.225 32.104 213.804 32.4507 213.271 32.728C212.737 33.0053 212.129 33.144 211.447 33.144C210.689 33.144 209.996 32.952 209.367 32.568C208.737 32.1733 208.236 31.6293 207.863 30.936C207.5 30.232 207.319 29.4373 207.319 28.552ZM214.535 28.584C214.535 27.976 214.407 27.448 214.151 27C213.905 26.552 213.58 26.2107 213.175 25.976C212.769 25.7413 212.332 25.624 211.863 25.624C211.393 25.624 210.956 25.7413 210.551 25.976C210.145 26.2 209.815 26.536 209.559 26.984C209.313 27.4213 209.191 27.944 209.191 28.552C209.191 29.16 209.313 29.6933 209.559 30.152C209.815 30.6107 210.145 30.9627 210.551 31.208C210.967 31.4427 211.404 31.56 211.863 31.56C212.332 31.56 212.769 31.4427 213.175 31.208C213.58 30.9733 213.905 30.632 214.151 30.184C214.407 29.7253 214.535 29.192 214.535 28.584ZM223.218 24.04C223.912 24.04 224.53 24.184 225.074 24.472C225.629 24.76 226.061 25.1867 226.37 25.752C226.68 26.3173 226.834 27 226.834 27.8V33H225.026V28.072C225.026 27.2827 224.829 26.68 224.434 26.264C224.04 25.8373 223.501 25.624 222.818 25.624C222.136 25.624 221.592 25.8373 221.186 26.264C220.792 26.68 220.594 27.2827 220.594 28.072V33H218.77V24.184H220.594V25.192C220.893 24.8293 221.272 24.5467 221.73 24.344C222.2 24.1413 222.696 24.04 223.218 24.04ZM239.445 33L235.141 28.024V33H233.317V21.88H235.141V26.952L239.461 21.88H241.749L236.917 27.448L241.829 33H239.445ZM242.834 28.552C242.834 27.6667 243.016 26.8827 243.378 26.2C243.752 25.5173 244.253 24.9893 244.882 24.616C245.522 24.232 246.226 24.04 246.994 24.04C247.688 24.04 248.29 24.1787 248.802 24.456C249.325 24.7227 249.741 25.0587 250.05 25.464V24.184H251.89V33H250.05V31.688C249.741 32.104 249.32 32.4507 248.786 32.728C248.253 33.0053 247.645 33.144 246.962 33.144C246.205 33.144 245.512 32.952 244.882 32.568C244.253 32.1733 243.752 31.6293 243.378 30.936C243.016 30.232 242.834 29.4373 242.834 28.552ZM250.05 28.584C250.05 27.976 249.922 27.448 249.666 27C249.421 26.552 249.096 26.2107 248.69 25.976C248.285 25.7413 247.848 25.624 247.378 25.624C246.909 25.624 246.472 25.7413 246.066 25.976C245.661 26.2 245.33 26.536 245.074 26.984C244.829 27.4213 244.706 27.944 244.706 28.552C244.706 29.16 244.829 29.6933 245.074 30.152C245.33 30.6107 245.661 30.9627 246.066 31.208C246.482 31.4427 246.92 31.56 247.378 31.56C247.848 31.56 248.285 31.4427 248.69 31.208C249.096 30.9733 249.421 30.632 249.666 30.184C249.922 29.7253 250.05 29.192 250.05 28.584ZM264.958 24.04C265.651 24.04 266.27 24.184 266.814 24.472C267.369 24.76 267.801 25.1867 268.11 25.752C268.43 26.3173 268.59 27 268.59 27.8V33H266.782V28.072C266.782 27.2827 266.585 26.68 266.19 26.264C265.795 25.8373 265.257 25.624 264.574 25.624C263.891 25.624 263.347 25.8373 262.942 26.264C262.547 26.68 262.35 27.2827 262.35 28.072V33H260.542V28.072C260.542 27.2827 260.345 26.68 259.95 26.264C259.555 25.8373 259.017 25.624 258.334 25.624C257.651 25.624 257.107 25.8373 256.702 26.264C256.307 26.68 256.11 27.2827 256.11 28.072V33H254.286V24.184H256.11V25.192C256.409 24.8293 256.787 24.5467 257.246 24.344C257.705 24.1413 258.195 24.04 258.718 24.04C259.422 24.04 260.051 24.1893 260.606 24.488C261.161 24.7867 261.587 25.2187 261.886 25.784C262.153 25.2507 262.569 24.8293 263.134 24.52C263.699 24.2 264.307 24.04 264.958 24.04ZM271.839 23.016C271.508 23.016 271.231 22.904 271.007 22.68C270.783 22.456 270.671 22.1787 270.671 21.848C270.671 21.5173 270.783 21.24 271.007 21.016C271.231 20.792 271.508 20.68 271.839 20.68C272.159 20.68 272.431 20.792 272.655 21.016C272.879 21.24 272.991 21.5173 272.991 21.848C272.991 22.1787 272.879 22.456 272.655 22.68C272.431 22.904 272.159 23.016 271.839 23.016ZM272.735 24.184V33H270.911V24.184H272.735Z" fill="#008F76"/>
<path d="M300 21.28C300 21.8817 299.762 22.459 299.338 22.886C298.362 23.87 297.415 24.896 296.402 25.844C296.289 25.947 296.141 26.0027 295.988 25.9995C295.835 25.9964 295.689 25.9346 295.58 25.827L292.662 22.887C292.238 22.4597 292 21.8821 292 21.28C292 20.6779 292.238 20.1003 292.662 19.673C292.874 19.4598 293.125 19.2905 293.403 19.1751C293.68 19.0596 293.978 19.0001 294.278 19.0001C294.578 19.0001 294.876 19.0596 295.153 19.1751C295.431 19.2905 295.682 19.4598 295.894 19.673L296 19.78L296.106 19.673C296.424 19.3519 296.83 19.1325 297.273 19.0429C297.715 18.9533 298.175 18.9975 298.592 19.1698C299.01 19.3421 299.367 19.6348 299.617 20.0106C299.868 20.3864 300.001 20.8283 300 21.28V21.28Z" stroke="#008F76" stroke-width="1.5" stroke-linejoin="round"/>
<path d="M302 35L305.824 31.176C305.937 31.0636 306 30.9111 306 30.752V25.5C306 25.1022 305.842 24.7206 305.561 24.4393C305.279 24.158 304.898 24 304.5 24V24C304.102 24 303.721 24.158 303.439 24.4393C303.158 24.7206 303 25.1022 303 25.5V30" stroke="#008F76" stroke-width="1.5" stroke-linecap="round" stroke-linejoin="round"/>
<path d="M302 31L302.858 30.142C302.903 30.097 302.939 30.0435 302.963 29.9847C302.988 29.9258 303 29.8627 303 29.799C303 29.7091 302.975 29.621 302.927 29.5445C302.88 29.468 302.812 29.4062 302.732 29.366L302.289 29.145C301.914 28.9573 301.489 28.8925 301.075 28.9596C300.66 29.0267 300.278 29.2224 299.981 29.519L299.086 30.414C298.711 30.789 298.5 31.2976 298.5 31.828V35M290 35L286.176 31.176C286.063 31.0636 286 30.9111 286 30.752V25.5C286 25.1022 286.158 24.7206 286.439 24.4393C286.721 24.158 287.102 24 287.5 24V24C287.898 24 288.279 24.158 288.561 24.4393C288.842 24.7206 289 25.1022 289 25.5V30" stroke="#008F76" stroke-width="1.5" stroke-linecap="round" stroke-linejoin="round"/>
<path d="M290 31L289.142 30.142C289.097 30.0969 289.061 30.0435 289.037 29.9846C289.013 29.9258 289 29.8627 289 29.799V29.799C289 29.616 289.104 29.449 289.268 29.366L289.711 29.145C290.086 28.9573 290.511 28.8925 290.925 28.9596C291.34 29.0267 291.722 29.2224 292.019 29.519L292.914 30.414C293.289 30.789 293.5 31.2976 293.5 31.828V35" stroke="#008F76" stroke-width="1.5" stroke-linecap="round" stroke-linejoin="round"/>
<rect x="81" y="1" width="251" height="52" rx="20" stroke="#008F76"/>
</g>
<defs>
<filter id="filter0_dd_2_25" x="0.5" y="0.5" width="412" height="233" filterUnits="userSpaceOnUse" color-interpolation-filters="sRGB">
<feFlood flood-opacity="0" result="BackgroundImageFix"/>
<feColorMatrix in="SourceAlpha" type="matrix" values="0 0 0 0 0 0 0 0 0 0 0 0 0 0 0 0 0 0 127 0" result="hardAlpha"/>
<feOffset dy="12.5216"/>
<feGaussianBlur stdDeviation="5.00862"/>
<feColorMatrix type="matrix" values="0 0 0 0 0 0 0 0 0 0 0 0 0 0 0 0 0 0 0.015 0"/>
<feBlend mode="normal" in2="BackgroundImageFix" result="effect1_dropShadow_2_25"/>
<feColorMatrix in="SourceAlpha" type="matrix" values="0 0 0 0 0 0 0 0 0 0 0 0 0 0 0 0 0 0 127 0" result="hardAlpha"/>
<feOffset dy="100"/>
<feGaussianBlur stdDeviation="40"/>
<feColorMatrix type="matrix" values="0 0 0 0 0 0 0 0 0 0 0 0 0 0 0 0 0 0 0.03 0"/>
<feBlend mode="normal" in2="effect1_dropShadow_2_25" result="effect2_dropShadow_2_25"/>
<feBlend mode="normal" in="SourceGraphic" in2="effect2_dropShadow_2_25" result="shape"/>
</filter>
</defs>
</svg>
