<svg width="1440" height="576" viewBox="0 0 1440 576" fill="none" xmlns="http://www.w3.org/2000/svg">
<g clip-path="url(#clip0_2_184)">
<rect width="1440" height="576" fill="white"/>
<path d="M276.292 118.54V138H273.1V118.54H276.292ZM288.267 122.32C289.48 122.32 290.563 122.572 291.515 123.076C292.485 123.58 293.241 124.327 293.783 125.316C294.324 126.305 294.595 127.5 294.595 128.9V138H291.431V129.376C291.431 127.995 291.085 126.94 290.395 126.212C289.704 125.465 288.761 125.092 287.567 125.092C286.372 125.092 285.42 125.465 284.711 126.212C284.02 126.94 283.675 127.995 283.675 129.376V138H280.483V122.572H283.675V124.336C284.197 123.701 284.86 123.207 285.663 122.852C286.484 122.497 287.352 122.32 288.267 122.32ZM304.882 122.32C306.077 122.32 307.132 122.563 308.046 123.048C308.98 123.515 309.708 124.103 310.23 124.812V122.572H313.45V138.252C313.45 139.671 313.152 140.931 312.554 142.032C311.957 143.152 311.089 144.029 309.95 144.664C308.83 145.299 307.486 145.616 305.918 145.616C303.828 145.616 302.092 145.121 300.71 144.132C299.329 143.161 298.545 141.836 298.358 140.156H301.522C301.765 140.959 302.278 141.603 303.062 142.088C303.865 142.592 304.817 142.844 305.918 142.844C307.206 142.844 308.242 142.452 309.026 141.668C309.829 140.884 310.23 139.745 310.23 138.252V135.676C309.689 136.404 308.952 137.02 308.018 137.524C307.104 138.009 306.058 138.252 304.882 138.252C303.538 138.252 302.306 137.916 301.186 137.244C300.085 136.553 299.208 135.601 298.554 134.388C297.92 133.156 297.602 131.765 297.602 130.216C297.602 128.667 297.92 127.295 298.554 126.1C299.208 124.905 300.085 123.981 301.186 123.328C302.306 122.656 303.538 122.32 304.882 122.32ZM310.23 130.272C310.23 129.208 310.006 128.284 309.558 127.5C309.129 126.716 308.56 126.119 307.85 125.708C307.141 125.297 306.376 125.092 305.554 125.092C304.733 125.092 303.968 125.297 303.258 125.708C302.549 126.1 301.97 126.688 301.522 127.472C301.093 128.237 300.878 129.152 300.878 130.216C300.878 131.28 301.093 132.213 301.522 133.016C301.97 133.819 302.549 134.435 303.258 134.864C303.986 135.275 304.752 135.48 305.554 135.48C306.376 135.48 307.141 135.275 307.85 134.864C308.56 134.453 309.129 133.856 309.558 133.072C310.006 132.269 310.23 131.336 310.23 130.272ZM319.267 120.528C318.688 120.528 318.203 120.332 317.811 119.94C317.419 119.548 317.223 119.063 317.223 118.484C317.223 117.905 317.419 117.42 317.811 117.028C318.203 116.636 318.688 116.44 319.267 116.44C319.827 116.44 320.303 116.636 320.695 117.028C321.087 117.42 321.283 117.905 321.283 118.484C321.283 119.063 321.087 119.548 320.695 119.94C320.303 120.332 319.827 120.528 319.267 120.528ZM320.835 122.572V138H317.643V122.572H320.835ZM332.81 122.32C334.023 122.32 335.106 122.572 336.058 123.076C337.028 123.58 337.784 124.327 338.326 125.316C338.867 126.305 339.138 127.5 339.138 128.9V138H335.974V129.376C335.974 127.995 335.628 126.94 334.938 126.212C334.247 125.465 333.304 125.092 332.11 125.092C330.915 125.092 329.963 125.465 329.254 126.212C328.563 126.94 328.218 127.995 328.218 129.376V138H325.026V122.572H328.218V124.336C328.74 123.701 329.403 123.207 330.206 122.852C331.027 122.497 331.895 122.32 332.81 122.32ZM534.057 118.54V138H530.865V124.672L524.929 138H522.717L516.753 124.672V138H513.561V118.54H517.005L523.837 133.8L530.641 118.54H534.057ZM552.392 129.908C552.392 130.487 552.355 131.009 552.28 131.476H540.492C540.586 132.708 541.043 133.697 541.864 134.444C542.686 135.191 543.694 135.564 544.888 135.564C546.606 135.564 547.819 134.845 548.528 133.408H551.972C551.506 134.827 550.656 135.993 549.424 136.908C548.211 137.804 546.699 138.252 544.888 138.252C543.414 138.252 542.088 137.925 540.912 137.272C539.755 136.6 538.84 135.667 538.168 134.472C537.515 133.259 537.188 131.859 537.188 130.272C537.188 128.685 537.506 127.295 538.14 126.1C538.794 124.887 539.699 123.953 540.856 123.3C542.032 122.647 543.376 122.32 544.888 122.32C546.344 122.32 547.642 122.637 548.78 123.272C549.919 123.907 550.806 124.803 551.44 125.96C552.075 127.099 552.392 128.415 552.392 129.908ZM549.06 128.9C549.042 127.724 548.622 126.781 547.8 126.072C546.979 125.363 545.962 125.008 544.748 125.008C543.647 125.008 542.704 125.363 541.92 126.072C541.136 126.763 540.67 127.705 540.52 128.9H549.06ZM563.318 122.32C564.531 122.32 565.614 122.572 566.566 123.076C567.536 123.58 568.292 124.327 568.834 125.316C569.375 126.305 569.646 127.5 569.646 128.9V138H566.482V129.376C566.482 127.995 566.136 126.94 565.446 126.212C564.755 125.465 563.812 125.092 562.618 125.092C561.423 125.092 560.471 125.465 559.762 126.212C559.071 126.94 558.726 127.995 558.726 129.376V138H555.534V122.572H558.726V124.336C559.248 123.701 559.911 123.207 560.714 122.852C561.535 122.497 562.403 122.32 563.318 122.32ZM575.341 120.528C574.763 120.528 574.277 120.332 573.885 119.94C573.493 119.548 573.297 119.063 573.297 118.484C573.297 117.905 573.493 117.42 573.885 117.028C574.277 116.636 574.763 116.44 575.341 116.44C575.901 116.44 576.377 116.636 576.769 117.028C577.161 117.42 577.357 117.905 577.357 118.484C577.357 119.063 577.161 119.548 576.769 119.94C576.377 120.332 575.901 120.528 575.341 120.528ZM576.909 122.572V138H573.717V122.572H576.909ZM588.884 122.32C590.097 122.32 591.18 122.572 592.132 123.076C593.103 123.58 593.859 124.327 594.4 125.316C594.941 126.305 595.212 127.5 595.212 128.9V138H592.048V129.376C592.048 127.995 591.703 126.94 591.012 126.212C590.321 125.465 589.379 125.092 588.184 125.092C586.989 125.092 586.037 125.465 585.328 126.212C584.637 126.94 584.292 127.995 584.292 129.376V138H581.1V122.572H584.292V124.336C584.815 123.701 585.477 123.207 586.28 122.852C587.101 122.497 587.969 122.32 588.884 122.32ZM605.5 122.32C606.694 122.32 607.749 122.563 608.664 123.048C609.597 123.515 610.325 124.103 610.848 124.812V122.572H614.068V138.252C614.068 139.671 613.769 140.931 613.172 142.032C612.574 143.152 611.706 144.029 610.568 144.664C609.448 145.299 608.104 145.616 606.536 145.616C604.445 145.616 602.709 145.121 601.328 144.132C599.946 143.161 599.162 141.836 598.976 140.156H602.14C602.382 140.959 602.896 141.603 603.68 142.088C604.482 142.592 605.434 142.844 606.536 142.844C607.824 142.844 608.86 142.452 609.644 141.668C610.446 140.884 610.848 139.745 610.848 138.252V135.676C610.306 136.404 609.569 137.02 608.636 137.524C607.721 138.009 606.676 138.252 605.5 138.252C604.156 138.252 602.924 137.916 601.804 137.244C600.702 136.553 599.825 135.601 599.172 134.388C598.537 133.156 598.22 131.765 598.22 130.216C598.22 128.667 598.537 127.295 599.172 126.1C599.825 124.905 600.702 123.981 601.804 123.328C602.924 122.656 604.156 122.32 605.5 122.32ZM610.848 130.272C610.848 129.208 610.624 128.284 610.176 127.5C609.746 126.716 609.177 126.119 608.468 125.708C607.758 125.297 606.993 125.092 606.172 125.092C605.35 125.092 604.585 125.297 603.876 125.708C603.166 126.1 602.588 126.688 602.14 127.472C601.71 128.237 601.496 129.152 601.496 130.216C601.496 131.28 601.71 132.213 602.14 133.016C602.588 133.819 603.166 134.435 603.876 134.864C604.604 135.275 605.369 135.48 606.172 135.48C606.993 135.48 607.758 135.275 608.468 134.864C609.177 134.453 609.746 133.856 610.176 133.072C610.624 132.269 610.848 131.336 610.848 130.272ZM624.364 130.3L631.476 138H627.164L621.452 131.364V138H618.26V117.28H621.452V129.32L627.052 122.572H631.476L624.364 130.3ZM632.7 130.216C632.7 128.667 633.017 127.295 633.652 126.1C634.305 124.905 635.183 123.981 636.284 123.328C637.404 122.656 638.636 122.32 639.98 122.32C641.193 122.32 642.248 122.563 643.144 123.048C644.059 123.515 644.787 124.103 645.328 124.812V122.572H648.548V138H645.328V135.704C644.787 136.432 644.049 137.039 643.116 137.524C642.183 138.009 641.119 138.252 639.924 138.252C638.599 138.252 637.385 137.916 636.284 137.244C635.183 136.553 634.305 135.601 633.652 134.388C633.017 133.156 632.7 131.765 632.7 130.216ZM645.328 130.272C645.328 129.208 645.104 128.284 644.656 127.5C644.227 126.716 643.657 126.119 642.948 125.708C642.239 125.297 641.473 125.092 640.652 125.092C639.831 125.092 639.065 125.297 638.356 125.708C637.647 126.1 637.068 126.688 636.62 127.472C636.191 128.237 635.976 129.152 635.976 130.216C635.976 131.28 636.191 132.213 636.62 133.016C637.068 133.819 637.647 134.435 638.356 134.864C639.084 135.275 639.849 135.48 640.652 135.48C641.473 135.48 642.239 135.275 642.948 134.864C643.657 134.453 644.227 133.856 644.656 133.072C645.104 132.269 645.328 131.336 645.328 130.272ZM656.465 125.176V133.716C656.465 134.295 656.595 134.715 656.857 134.976C657.137 135.219 657.603 135.34 658.257 135.34H660.217V138H657.697C656.259 138 655.158 137.664 654.393 136.992C653.627 136.32 653.245 135.228 653.245 133.716V125.176H651.425V122.572H653.245V118.736H656.465V122.572H660.217V125.176H656.465ZM669.263 130.3L676.375 138H672.063L666.351 131.364V138H663.159V117.28H666.351V129.32L671.951 122.572H676.375L669.263 130.3ZM677.599 130.216C677.599 128.667 677.916 127.295 678.551 126.1C679.204 124.905 680.081 123.981 681.183 123.328C682.303 122.656 683.535 122.32 684.879 122.32C686.092 122.32 687.147 122.563 688.043 123.048C688.957 123.515 689.685 124.103 690.227 124.812V122.572H693.447V138H690.227V135.704C689.685 136.432 688.948 137.039 688.015 137.524C687.081 138.009 686.017 138.252 684.823 138.252C683.497 138.252 682.284 137.916 681.183 137.244C680.081 136.553 679.204 135.601 678.551 134.388C677.916 133.156 677.599 131.765 677.599 130.216ZM690.227 130.272C690.227 129.208 690.003 128.284 689.555 127.5C689.125 126.716 688.556 126.119 687.847 125.708C687.137 125.297 686.372 125.092 685.551 125.092C684.729 125.092 683.964 125.297 683.255 125.708C682.545 126.1 681.967 126.688 681.519 127.472C681.089 128.237 680.875 129.152 680.875 130.216C680.875 131.28 681.089 132.213 681.519 133.016C681.967 133.819 682.545 134.435 683.255 134.864C683.983 135.275 684.748 135.48 685.551 135.48C686.372 135.48 687.137 135.275 687.847 134.864C688.556 134.453 689.125 133.856 689.555 133.072C690.003 132.269 690.227 131.336 690.227 130.272ZM705.423 122.32C706.636 122.32 707.719 122.572 708.671 123.076C709.642 123.58 710.398 124.327 710.939 125.316C711.48 126.305 711.751 127.5 711.751 128.9V138H708.587V129.376C708.587 127.995 708.242 126.94 707.551 126.212C706.86 125.465 705.918 125.092 704.723 125.092C703.528 125.092 702.576 125.465 701.867 126.212C701.176 126.94 700.831 127.995 700.831 129.376V138H697.639V122.572H700.831V124.336C701.354 123.701 702.016 123.207 702.819 122.852C703.64 122.497 704.508 122.32 705.423 122.32ZM726.288 135.424H732.868V138H723.096V118.54H726.288V135.424ZM737.162 120.528C736.583 120.528 736.098 120.332 735.706 119.94C735.314 119.548 735.118 119.063 735.118 118.484C735.118 117.905 735.314 117.42 735.706 117.028C736.098 116.636 736.583 116.44 737.162 116.44C737.722 116.44 738.198 116.636 738.59 117.028C738.982 117.42 739.178 117.905 739.178 118.484C739.178 119.063 738.982 119.548 738.59 119.94C738.198 120.332 737.722 120.528 737.162 120.528ZM738.73 122.572V138H735.538V122.572H738.73ZM746.644 125.176V133.716C746.644 134.295 746.775 134.715 747.036 134.976C747.316 135.219 747.783 135.34 748.436 135.34H750.396V138H747.876C746.439 138 745.338 137.664 744.572 136.992C743.807 136.32 743.424 135.228 743.424 133.716V125.176H741.604V122.572H743.424V118.736H746.644V122.572H750.396V125.176H746.644ZM767.478 129.908C767.478 130.487 767.441 131.009 767.366 131.476H755.578C755.672 132.708 756.129 133.697 756.95 134.444C757.772 135.191 758.78 135.564 759.974 135.564C761.692 135.564 762.905 134.845 763.614 133.408H767.058C766.592 134.827 765.742 135.993 764.51 136.908C763.297 137.804 761.785 138.252 759.974 138.252C758.5 138.252 757.174 137.925 755.998 137.272C754.841 136.6 753.926 135.667 753.254 134.472C752.601 133.259 752.274 131.859 752.274 130.272C752.274 128.685 752.592 127.295 753.226 126.1C753.88 124.887 754.785 123.953 755.942 123.3C757.118 122.647 758.462 122.32 759.974 122.32C761.43 122.32 762.728 122.637 763.866 123.272C765.005 123.907 765.892 124.803 766.526 125.96C767.161 127.099 767.478 128.415 767.478 129.908ZM764.146 128.9C764.128 127.724 763.708 126.781 762.886 126.072C762.065 125.363 761.048 125.008 759.834 125.008C758.733 125.008 757.79 125.363 757.006 126.072C756.222 126.763 755.756 127.705 755.606 128.9H764.146ZM773.812 124.812C774.278 124.028 774.894 123.421 775.66 122.992C776.444 122.544 777.368 122.32 778.432 122.32V125.624H777.62C776.369 125.624 775.417 125.941 774.764 126.576C774.129 127.211 773.812 128.312 773.812 129.88V138H770.62V122.572H773.812V124.812ZM780.302 130.216C780.302 128.667 780.619 127.295 781.254 126.1C781.907 124.905 782.784 123.981 783.886 123.328C785.006 122.656 786.238 122.32 787.582 122.32C788.795 122.32 789.85 122.563 790.746 123.048C791.66 123.515 792.388 124.103 792.93 124.812V122.572H796.15V138H792.93V135.704C792.388 136.432 791.651 137.039 790.718 137.524C789.784 138.009 788.72 138.252 787.526 138.252C786.2 138.252 784.987 137.916 783.886 137.244C782.784 136.553 781.907 135.601 781.254 134.388C780.619 133.156 780.302 131.765 780.302 130.216ZM792.93 130.272C792.93 129.208 792.706 128.284 792.258 127.5C791.828 126.716 791.259 126.119 790.55 125.708C789.84 125.297 789.075 125.092 788.254 125.092C787.432 125.092 786.667 125.297 785.958 125.708C785.248 126.1 784.67 126.688 784.222 127.472C783.792 128.237 783.578 129.152 783.578 130.216C783.578 131.28 783.792 132.213 784.222 133.016C784.67 133.819 785.248 134.435 785.958 134.864C786.686 135.275 787.451 135.48 788.254 135.48C789.075 135.48 789.84 135.275 790.55 134.864C791.259 134.453 791.828 133.856 792.258 133.072C792.706 132.269 792.93 131.336 792.93 130.272ZM805.942 138.252C804.729 138.252 803.637 138.037 802.666 137.608C801.714 137.16 800.958 136.563 800.398 135.816C799.838 135.051 799.54 134.201 799.502 133.268H802.806C802.862 133.921 803.17 134.472 803.73 134.92C804.309 135.349 805.028 135.564 805.886 135.564C806.782 135.564 807.473 135.396 807.958 135.06C808.462 134.705 808.714 134.257 808.714 133.716C808.714 133.137 808.434 132.708 807.874 132.428C807.333 132.148 806.465 131.84 805.27 131.504C804.113 131.187 803.17 130.879 802.442 130.58C801.714 130.281 801.08 129.824 800.538 129.208C800.016 128.592 799.754 127.78 799.754 126.772C799.754 125.951 799.997 125.204 800.482 124.532C800.968 123.841 801.658 123.3 802.554 122.908C803.469 122.516 804.514 122.32 805.69 122.32C807.445 122.32 808.854 122.768 809.918 123.664C811.001 124.541 811.58 125.745 811.654 127.276H808.462C808.406 126.585 808.126 126.035 807.622 125.624C807.118 125.213 806.437 125.008 805.578 125.008C804.738 125.008 804.094 125.167 803.646 125.484C803.198 125.801 802.974 126.221 802.974 126.744C802.974 127.155 803.124 127.5 803.422 127.78C803.721 128.06 804.085 128.284 804.514 128.452C804.944 128.601 805.578 128.797 806.418 129.04C807.538 129.339 808.453 129.647 809.162 129.964C809.89 130.263 810.516 130.711 811.038 131.308C811.561 131.905 811.832 132.699 811.85 133.688C811.85 134.565 811.608 135.349 811.122 136.04C810.637 136.731 809.946 137.272 809.05 137.664C808.173 138.056 807.137 138.252 805.942 138.252ZM816.923 120.528C816.345 120.528 815.859 120.332 815.467 119.94C815.075 119.548 814.879 119.063 814.879 118.484C814.879 117.905 815.075 117.42 815.467 117.028C815.859 116.636 816.345 116.44 816.923 116.44C817.483 116.44 817.959 116.636 818.351 117.028C818.743 117.42 818.939 117.905 818.939 118.484C818.939 119.063 818.743 119.548 818.351 119.94C817.959 120.332 817.483 120.528 816.923 120.528ZM818.491 122.572V138H815.299V122.572H818.491ZM841.687 134.024H833.539L832.139 138H828.807L835.779 118.512H839.475L846.447 138H843.087L841.687 134.024ZM840.791 131.42L837.627 122.376L834.435 131.42H840.791ZM857.263 122.32C858.476 122.32 859.559 122.572 860.511 123.076C861.482 123.58 862.238 124.327 862.779 125.316C863.32 126.305 863.591 127.5 863.591 128.9V138H860.427V129.376C860.427 127.995 860.082 126.94 859.391 126.212C858.7 125.465 857.758 125.092 856.563 125.092C855.368 125.092 854.416 125.465 853.707 126.212C853.016 126.94 852.671 127.995 852.671 129.376V138H849.479V122.572H852.671V124.336C853.194 123.701 853.856 123.207 854.659 122.852C855.48 122.497 856.348 122.32 857.263 122.32ZM866.599 130.216C866.599 128.667 866.916 127.295 867.551 126.1C868.204 124.905 869.081 123.981 870.183 123.328C871.303 122.656 872.535 122.32 873.879 122.32C875.092 122.32 876.147 122.563 877.043 123.048C877.957 123.515 878.685 124.103 879.227 124.812V122.572H882.447V138H879.227V135.704C878.685 136.432 877.948 137.039 877.015 137.524C876.081 138.009 875.017 138.252 873.823 138.252C872.497 138.252 871.284 137.916 870.183 137.244C869.081 136.553 868.204 135.601 867.551 134.388C866.916 133.156 866.599 131.765 866.599 130.216ZM879.227 130.272C879.227 129.208 879.003 128.284 878.555 127.5C878.125 126.716 877.556 126.119 876.847 125.708C876.137 125.297 875.372 125.092 874.551 125.092C873.729 125.092 872.964 125.297 872.255 125.708C871.545 126.1 870.967 126.688 870.519 127.472C870.089 128.237 869.875 129.152 869.875 130.216C869.875 131.28 870.089 132.213 870.519 133.016C870.967 133.819 871.545 134.435 872.255 134.864C872.983 135.275 873.748 135.48 874.551 135.48C875.372 135.48 876.137 135.275 876.847 134.864C877.556 134.453 878.125 133.856 878.555 133.072C879.003 132.269 879.227 131.336 879.227 130.272ZM892.743 130.3L899.855 138H895.543L889.831 131.364V138H886.639V117.28H889.831V129.32L895.431 122.572H899.855L892.743 130.3ZM913.987 126.52V129.208H902.479V126.52H913.987ZM930.254 134.024H922.106L920.706 138H917.374L924.346 118.512H928.042L935.014 138H931.654L930.254 134.024ZM929.358 131.42L926.194 122.376L923.002 131.42H929.358ZM945.829 122.32C947.043 122.32 948.125 122.572 949.077 123.076C950.048 123.58 950.804 124.327 951.345 125.316C951.887 126.305 952.157 127.5 952.157 128.9V138H948.993V129.376C948.993 127.995 948.648 126.94 947.957 126.212C947.267 125.465 946.324 125.092 945.129 125.092C943.935 125.092 942.983 125.465 942.273 126.212C941.583 126.94 941.237 127.995 941.237 129.376V138H938.045V122.572H941.237V124.336C941.76 123.701 942.423 123.207 943.225 122.852C944.047 122.497 944.915 122.32 945.829 122.32ZM955.165 130.216C955.165 128.667 955.482 127.295 956.117 126.1C956.77 124.905 957.648 123.981 958.749 123.328C959.869 122.656 961.101 122.32 962.445 122.32C963.658 122.32 964.713 122.563 965.609 123.048C966.524 123.515 967.252 124.103 967.793 124.812V122.572H971.013V138H967.793V135.704C967.252 136.432 966.514 137.039 965.581 137.524C964.648 138.009 963.584 138.252 962.389 138.252C961.064 138.252 959.85 137.916 958.749 137.244C957.648 136.553 956.77 135.601 956.117 134.388C955.482 133.156 955.165 131.765 955.165 130.216ZM967.793 130.272C967.793 129.208 967.569 128.284 967.121 127.5C966.692 126.716 966.122 126.119 965.413 125.708C964.704 125.297 963.938 125.092 963.117 125.092C962.296 125.092 961.53 125.297 960.821 125.708C960.112 126.1 959.533 126.688 959.085 127.472C958.656 128.237 958.441 129.152 958.441 130.216C958.441 131.28 958.656 132.213 959.085 133.016C959.533 133.819 960.112 134.435 960.821 134.864C961.549 135.275 962.314 135.48 963.117 135.48C963.938 135.48 964.704 135.275 965.413 134.864C966.122 134.453 966.692 133.856 967.121 133.072C967.569 132.269 967.793 131.336 967.793 130.272ZM981.309 130.3L988.421 138H984.109L978.397 131.364V138H975.205V117.28H978.397V129.32L983.997 122.572H988.421L981.309 130.3ZM1004.39 138.196C1003.09 138.196 1001.91 137.972 1000.87 137.524C999.821 137.057 999 136.404 998.403 135.564C997.805 134.724 997.507 133.744 997.507 132.624H1000.92C1001 133.464 1001.32 134.155 1001.9 134.696C1002.5 135.237 1003.33 135.508 1004.39 135.508C1005.5 135.508 1006.35 135.247 1006.97 134.724C1007.59 134.183 1007.89 133.492 1007.89 132.652C1007.89 131.999 1007.7 131.467 1007.31 131.056C1006.93 130.645 1006.46 130.328 1005.88 130.104C1005.32 129.88 1004.53 129.637 1003.53 129.376C1002.26 129.04 1001.22 128.704 1000.42 128.368C999.635 128.013 998.963 127.472 998.403 126.744C997.843 126.016 997.563 125.045 997.563 123.832C997.563 122.712 997.843 121.732 998.403 120.892C998.963 120.052 999.747 119.408 1000.75 118.96C1001.76 118.512 1002.93 118.288 1004.25 118.288C1006.14 118.288 1007.68 118.764 1008.87 119.716C1010.09 120.649 1010.76 121.937 1010.89 123.58H1007.36C1007.31 122.871 1006.97 122.264 1006.35 121.76C1005.74 121.256 1004.93 121.004 1003.92 121.004C1003 121.004 1002.26 121.237 1001.68 121.704C1001.1 122.171 1000.81 122.843 1000.81 123.72C1000.81 124.317 1000.99 124.812 1001.34 125.204C1001.72 125.577 1002.18 125.876 1002.74 126.1C1003.3 126.324 1004.07 126.567 1005.04 126.828C1006.33 127.183 1007.37 127.537 1008.17 127.892C1009 128.247 1009.69 128.797 1010.25 129.544C1010.83 130.272 1011.11 131.252 1011.11 132.484C1011.11 133.473 1010.84 134.407 1010.3 135.284C1009.78 136.161 1009.01 136.871 1007.98 137.412C1006.97 137.935 1005.78 138.196 1004.39 138.196ZM1029.02 129.908C1029.02 130.487 1028.98 131.009 1028.91 131.476H1017.12C1017.21 132.708 1017.67 133.697 1018.49 134.444C1019.31 135.191 1020.32 135.564 1021.52 135.564C1023.23 135.564 1024.45 134.845 1025.16 133.408H1028.6C1028.13 134.827 1027.29 135.993 1026.05 136.908C1024.84 137.804 1023.33 138.252 1021.52 138.252C1020.04 138.252 1018.72 137.925 1017.54 137.272C1016.38 136.6 1015.47 135.667 1014.8 134.472C1014.14 133.259 1013.82 131.859 1013.82 130.272C1013.82 128.685 1014.13 127.295 1014.77 126.1C1015.42 124.887 1016.33 123.953 1017.49 123.3C1018.66 122.647 1020.01 122.32 1021.52 122.32C1022.97 122.32 1024.27 122.637 1025.41 123.272C1026.55 123.907 1027.43 124.803 1028.07 125.96C1028.7 127.099 1029.02 128.415 1029.02 129.908ZM1025.69 128.9C1025.67 127.724 1025.25 126.781 1024.43 126.072C1023.61 125.363 1022.59 125.008 1021.38 125.008C1020.28 125.008 1019.33 125.363 1018.55 126.072C1017.77 126.763 1017.3 127.705 1017.15 128.9H1025.69ZM1038.27 130.3L1045.38 138H1041.07L1035.35 131.364V138H1032.16V117.28H1035.35V129.32L1040.95 122.572H1045.38L1038.27 130.3ZM1049.29 120.528C1048.71 120.528 1048.23 120.332 1047.83 119.94C1047.44 119.548 1047.25 119.063 1047.25 118.484C1047.25 117.905 1047.44 117.42 1047.83 117.028C1048.23 116.636 1048.71 116.44 1049.29 116.44C1049.85 116.44 1050.33 116.636 1050.72 117.028C1051.11 117.42 1051.31 117.905 1051.31 118.484C1051.31 119.063 1051.11 119.548 1050.72 119.94C1050.33 120.332 1049.85 120.528 1049.29 120.528ZM1050.86 122.572V138H1047.67V122.572H1050.86ZM1058.77 125.176V133.716C1058.77 134.295 1058.9 134.715 1059.17 134.976C1059.45 135.219 1059.91 135.34 1060.57 135.34H1062.53V138H1060.01C1058.57 138 1057.47 137.664 1056.7 136.992C1055.94 136.32 1055.55 135.228 1055.55 133.716V125.176H1053.73V122.572H1055.55V118.736H1058.77V122.572H1062.53V125.176H1058.77ZM1064.4 130.216C1064.4 128.667 1064.72 127.295 1065.36 126.1C1066.01 124.905 1066.89 123.981 1067.99 123.328C1069.11 122.656 1070.34 122.32 1071.68 122.32C1072.9 122.32 1073.95 122.563 1074.85 123.048C1075.76 123.515 1076.49 124.103 1077.03 124.812V122.572H1080.25V138H1077.03V135.704C1076.49 136.432 1075.75 137.039 1074.82 137.524C1073.89 138.009 1072.82 138.252 1071.63 138.252C1070.3 138.252 1069.09 137.916 1067.99 137.244C1066.89 136.553 1066.01 135.601 1065.36 134.388C1064.72 133.156 1064.4 131.765 1064.4 130.216ZM1077.03 130.272C1077.03 129.208 1076.81 128.284 1076.36 127.5C1075.93 126.716 1075.36 126.119 1074.65 125.708C1073.94 125.297 1073.18 125.092 1072.36 125.092C1071.53 125.092 1070.77 125.297 1070.06 125.708C1069.35 126.1 1068.77 126.688 1068.32 127.472C1067.89 128.237 1067.68 129.152 1067.68 130.216C1067.68 131.28 1067.89 132.213 1068.32 133.016C1068.77 133.819 1069.35 134.435 1070.06 134.864C1070.79 135.275 1071.55 135.48 1072.36 135.48C1073.18 135.48 1073.94 135.275 1074.65 134.864C1075.36 134.453 1075.93 133.856 1076.36 133.072C1076.81 132.269 1077.03 131.336 1077.03 130.272ZM1087.64 124.812C1088.1 124.028 1088.72 123.421 1089.48 122.992C1090.27 122.544 1091.19 122.32 1092.26 122.32V125.624H1091.44C1090.19 125.624 1089.24 125.941 1088.59 126.576C1087.95 127.211 1087.64 128.312 1087.64 129.88V138H1084.44V122.572H1087.64V124.812ZM1113.19 138L1105.66 129.292V138H1102.46V118.54H1105.66V127.416L1113.22 118.54H1117.22L1108.76 128.284L1117.36 138H1113.19ZM1121.81 120.528C1121.23 120.528 1120.74 120.332 1120.35 119.94C1119.96 119.548 1119.76 119.063 1119.76 118.484C1119.76 117.905 1119.96 117.42 1120.35 117.028C1120.74 116.636 1121.23 116.44 1121.81 116.44C1122.37 116.44 1122.84 116.636 1123.23 117.028C1123.63 117.42 1123.82 117.905 1123.82 118.484C1123.82 119.063 1123.63 119.548 1123.23 119.94C1122.84 120.332 1122.37 120.528 1121.81 120.528ZM1123.37 122.572V138H1120.18V122.572H1123.37ZM1131.29 125.176V133.716C1131.29 134.295 1131.42 134.715 1131.68 134.976C1131.96 135.219 1132.43 135.34 1133.08 135.34H1135.04V138H1132.52C1131.08 138 1129.98 137.664 1129.22 136.992C1128.45 136.32 1128.07 135.228 1128.07 133.716V125.176H1126.25V122.572H1128.07V118.736H1131.29V122.572H1135.04V125.176H1131.29ZM1136.92 130.216C1136.92 128.667 1137.24 127.295 1137.87 126.1C1138.52 124.905 1139.4 123.981 1140.5 123.328C1141.62 122.656 1142.85 122.32 1144.2 122.32C1145.41 122.32 1146.47 122.563 1147.36 123.048C1148.28 123.515 1149.01 124.103 1149.55 124.812V122.572H1152.77V138H1149.55V135.704C1149.01 136.432 1148.27 137.039 1147.33 137.524C1146.4 138.009 1145.34 138.252 1144.14 138.252C1142.82 138.252 1141.6 137.916 1140.5 137.244C1139.4 136.553 1138.52 135.601 1137.87 134.388C1137.24 133.156 1136.92 131.765 1136.92 130.216ZM1149.55 130.272C1149.55 129.208 1149.32 128.284 1148.87 127.5C1148.45 126.716 1147.88 126.119 1147.17 125.708C1146.46 125.297 1145.69 125.092 1144.87 125.092C1144.05 125.092 1143.28 125.297 1142.57 125.708C1141.87 126.1 1141.29 126.688 1140.84 127.472C1140.41 128.237 1140.19 129.152 1140.19 130.216C1140.19 131.28 1140.41 132.213 1140.84 133.016C1141.29 133.819 1141.87 134.435 1142.57 134.864C1143.3 135.275 1144.07 135.48 1144.87 135.48C1145.69 135.48 1146.46 135.275 1147.17 134.864C1147.88 134.453 1148.45 133.856 1148.87 133.072C1149.32 132.269 1149.55 131.336 1149.55 130.272ZM1162.2 118.26C1164.1 118.26 1165.62 118.783 1166.76 119.828C1167.92 120.873 1168.5 122.301 1168.5 124.112C1168.5 125.997 1167.9 127.416 1166.7 128.368C1165.51 129.32 1163.92 129.796 1161.94 129.796L1161.83 132.008H1159.06L1158.92 127.612H1159.84C1161.65 127.612 1163.04 127.369 1163.99 126.884C1164.96 126.399 1165.44 125.475 1165.44 124.112C1165.44 123.123 1165.15 122.348 1164.58 121.788C1164.02 121.228 1163.23 120.948 1162.22 120.948C1161.22 120.948 1160.42 121.219 1159.84 121.76C1159.26 122.301 1158.98 123.057 1158.98 124.028H1155.98C1155.98 122.908 1156.23 121.909 1156.74 121.032C1157.24 120.155 1157.96 119.473 1158.89 118.988C1159.84 118.503 1160.94 118.26 1162.2 118.26ZM1160.4 138.196C1159.82 138.196 1159.34 138 1158.95 137.608C1158.56 137.216 1158.36 136.731 1158.36 136.152C1158.36 135.573 1158.56 135.088 1158.95 134.696C1159.34 134.304 1159.82 134.108 1160.4 134.108C1160.96 134.108 1161.44 134.304 1161.83 134.696C1162.22 135.088 1162.42 135.573 1162.42 136.152C1162.42 136.731 1162.22 137.216 1161.83 137.608C1161.44 138 1160.96 138.196 1160.4 138.196Z" fill="#212121"/>
<path d="M370.979 118.54V138H367.787V124.672L361.851 138H359.639L353.675 124.672V138H350.483V118.54H353.927L360.759 133.8L367.563 118.54H370.979ZM389.314 129.908C389.314 130.487 389.277 131.009 389.202 131.476H377.414C377.508 132.708 377.965 133.697 378.786 134.444C379.608 135.191 380.616 135.564 381.81 135.564C383.528 135.564 384.741 134.845 385.45 133.408H388.894C388.428 134.827 387.578 135.993 386.346 136.908C385.133 137.804 383.621 138.252 381.81 138.252C380.336 138.252 379.01 137.925 377.834 137.272C376.677 136.6 375.762 135.667 375.09 134.472C374.437 133.259 374.11 131.859 374.11 130.272C374.11 128.685 374.428 127.295 375.062 126.1C375.716 124.887 376.621 123.953 377.778 123.3C378.954 122.647 380.298 122.32 381.81 122.32C383.266 122.32 384.564 122.637 385.702 123.272C386.841 123.907 387.728 124.803 388.362 125.96C388.997 127.099 389.314 128.415 389.314 129.908ZM385.982 128.9C385.964 127.724 385.544 126.781 384.722 126.072C383.901 125.363 382.884 125.008 381.67 125.008C380.569 125.008 379.626 125.363 378.842 126.072C378.058 126.763 377.592 127.705 377.442 128.9H385.982ZM411.131 122.32C412.345 122.32 413.427 122.572 414.379 123.076C415.35 123.58 416.106 124.327 416.647 125.316C417.207 126.305 417.487 127.5 417.487 128.9V138H414.323V129.376C414.323 127.995 413.978 126.94 413.287 126.212C412.597 125.465 411.654 125.092 410.459 125.092C409.265 125.092 408.313 125.465 407.603 126.212C406.913 126.94 406.567 127.995 406.567 129.376V138H403.403V129.376C403.403 127.995 403.058 126.94 402.367 126.212C401.677 125.465 400.734 125.092 399.539 125.092C398.345 125.092 397.393 125.465 396.683 126.212C395.993 126.94 395.647 127.995 395.647 129.376V138H392.455V122.572H395.647V124.336C396.17 123.701 396.833 123.207 397.635 122.852C398.438 122.497 399.297 122.32 400.211 122.32C401.443 122.32 402.545 122.581 403.515 123.104C404.486 123.627 405.233 124.383 405.755 125.372C406.222 124.439 406.95 123.701 407.939 123.16C408.929 122.6 409.993 122.32 411.131 122.32ZM424.741 124.868C425.283 124.121 426.02 123.515 426.953 123.048C427.905 122.563 428.96 122.32 430.117 122.32C431.48 122.32 432.712 122.647 433.813 123.3C434.915 123.953 435.783 124.887 436.417 126.1C437.052 127.295 437.369 128.667 437.369 130.216C437.369 131.765 437.052 133.156 436.417 134.388C435.783 135.601 434.905 136.553 433.785 137.244C432.684 137.916 431.461 138.252 430.117 138.252C428.923 138.252 427.859 138.019 426.925 137.552C426.011 137.085 425.283 136.488 424.741 135.76V138H421.549V117.28H424.741V124.868ZM434.121 130.216C434.121 129.152 433.897 128.237 433.449 127.472C433.02 126.688 432.441 126.1 431.713 125.708C431.004 125.297 430.239 125.092 429.417 125.092C428.615 125.092 427.849 125.297 427.121 125.708C426.412 126.119 425.833 126.716 425.385 127.5C424.956 128.284 424.741 129.208 424.741 130.272C424.741 131.336 424.956 132.269 425.385 133.072C425.833 133.856 426.412 134.453 427.121 134.864C427.849 135.275 428.615 135.48 429.417 135.48C430.239 135.48 431.004 135.275 431.713 134.864C432.441 134.435 433.02 133.819 433.449 133.016C433.897 132.213 434.121 131.28 434.121 130.216ZM439.462 130.216C439.462 128.667 439.779 127.295 440.414 126.1C441.067 124.905 441.944 123.981 443.046 123.328C444.166 122.656 445.398 122.32 446.742 122.32C447.955 122.32 449.01 122.563 449.906 123.048C450.82 123.515 451.548 124.103 452.09 124.812V122.572H455.31V138H452.09V135.704C451.548 136.432 450.811 137.039 449.878 137.524C448.944 138.009 447.88 138.252 446.686 138.252C445.36 138.252 444.147 137.916 443.046 137.244C441.944 136.553 441.067 135.601 440.414 134.388C439.779 133.156 439.462 131.765 439.462 130.216ZM452.09 130.272C452.09 129.208 451.866 128.284 451.418 127.5C450.988 126.716 450.419 126.119 449.71 125.708C449 125.297 448.235 125.092 447.414 125.092C446.592 125.092 445.827 125.297 445.118 125.708C444.408 126.1 443.83 126.688 443.382 127.472C442.952 128.237 442.738 129.152 442.738 130.216C442.738 131.28 442.952 132.213 443.382 133.016C443.83 133.819 444.408 134.435 445.118 134.864C445.846 135.275 446.611 135.48 447.414 135.48C448.235 135.48 449 135.275 449.71 134.864C450.419 134.453 450.988 133.856 451.418 133.072C451.866 132.269 452.09 131.336 452.09 130.272ZM467.286 122.32C468.5 122.32 469.582 122.572 470.534 123.076C471.505 123.58 472.261 124.327 472.802 125.316C473.344 126.305 473.614 127.5 473.614 128.9V138H470.45V129.376C470.45 127.995 470.105 126.94 469.414 126.212C468.724 125.465 467.781 125.092 466.586 125.092C465.392 125.092 464.44 125.465 463.73 126.212C463.04 126.94 462.694 127.995 462.694 129.376V138H459.502V122.572H462.694V124.336C463.217 123.701 463.88 123.207 464.682 122.852C465.504 122.497 466.372 122.32 467.286 122.32ZM481.41 125.176V133.716C481.41 134.295 481.541 134.715 481.802 134.976C482.082 135.219 482.549 135.34 483.202 135.34H485.162V138H482.642C481.205 138 480.103 137.664 479.338 136.992C478.573 136.32 478.19 135.228 478.19 133.716V125.176H476.37V122.572H478.19V118.736H481.41V122.572H485.162V125.176H481.41ZM502.076 122.572V138H498.884V136.18C498.38 136.815 497.717 137.319 496.896 137.692C496.093 138.047 495.235 138.224 494.32 138.224C493.107 138.224 492.015 137.972 491.044 137.468C490.092 136.964 489.336 136.217 488.776 135.228C488.235 134.239 487.964 133.044 487.964 131.644V122.572H491.128V131.168C491.128 132.549 491.473 133.613 492.164 134.36C492.855 135.088 493.797 135.452 494.992 135.452C496.187 135.452 497.129 135.088 497.82 134.36C498.529 133.613 498.884 132.549 498.884 131.168V122.572H502.076Z" fill="#008F76"/>
<path d="M564.86 181.14C564.86 182.3 564.46 183.267 563.66 184.04C562.873 184.8 561.667 185.18 560.04 185.18H557.36V191H555.54V177.06H560.04C561.613 177.06 562.807 177.44 563.62 178.2C564.447 178.96 564.86 179.94 564.86 181.14ZM560.04 183.68C561.053 183.68 561.8 183.46 562.28 183.02C562.76 182.58 563 181.953 563 181.14C563 179.42 562.013 178.56 560.04 178.56H557.36V183.68H560.04ZM577.122 185.1C577.122 185.447 577.102 185.813 577.062 186.2H568.302C568.369 187.28 568.735 188.127 569.402 188.74C570.082 189.34 570.902 189.64 571.862 189.64C572.649 189.64 573.302 189.46 573.822 189.1C574.355 188.727 574.729 188.233 574.942 187.62H576.902C576.609 188.673 576.022 189.533 575.142 190.2C574.262 190.853 573.169 191.18 571.862 191.18C570.822 191.18 569.889 190.947 569.062 190.48C568.249 190.013 567.609 189.353 567.142 188.5C566.675 187.633 566.442 186.633 566.442 185.5C566.442 184.367 566.669 183.373 567.122 182.52C567.575 181.667 568.209 181.013 569.022 180.56C569.849 180.093 570.795 179.86 571.862 179.86C572.902 179.86 573.822 180.087 574.622 180.54C575.422 180.993 576.035 181.62 576.462 182.42C576.902 183.207 577.122 184.1 577.122 185.1ZM575.242 184.72C575.242 184.027 575.089 183.433 574.782 182.94C574.475 182.433 574.055 182.053 573.522 181.8C573.002 181.533 572.422 181.4 571.782 181.4C570.862 181.4 570.075 181.693 569.422 182.28C568.782 182.867 568.415 183.68 568.322 184.72H575.242ZM581.344 181.82C581.664 181.193 582.118 180.707 582.704 180.36C583.304 180.013 584.031 179.84 584.884 179.84V181.72H584.404C582.364 181.72 581.344 182.827 581.344 185.04V191H579.524V180.04H581.344V181.82ZM586.305 185.5C586.305 184.367 586.532 183.38 586.985 182.54C587.439 181.687 588.065 181.027 588.865 180.56C589.679 180.093 590.605 179.86 591.645 179.86C592.992 179.86 594.099 180.187 594.965 180.84C595.845 181.493 596.425 182.4 596.705 183.56H594.745C594.559 182.893 594.192 182.367 593.645 181.98C593.112 181.593 592.445 181.4 591.645 181.4C590.605 181.4 589.765 181.76 589.125 182.48C588.485 183.187 588.165 184.193 588.165 185.5C588.165 186.82 588.485 187.84 589.125 188.56C589.765 189.28 590.605 189.64 591.645 189.64C592.445 189.64 593.112 189.453 593.645 189.08C594.179 188.707 594.545 188.173 594.745 187.48H596.705C596.412 188.6 595.825 189.5 594.945 190.18C594.065 190.847 592.965 191.18 591.645 191.18C590.605 191.18 589.679 190.947 588.865 190.48C588.065 190.013 587.439 189.353 586.985 188.5C586.532 187.647 586.305 186.647 586.305 185.5ZM598.454 185.48C598.454 184.36 598.68 183.38 599.134 182.54C599.587 181.687 600.207 181.027 600.994 180.56C601.794 180.093 602.68 179.86 603.654 179.86C604.614 179.86 605.447 180.067 606.154 180.48C606.86 180.893 607.387 181.413 607.734 182.04V180.04H609.574V191H607.734V188.96C607.374 189.6 606.834 190.133 606.114 190.56C605.407 190.973 604.58 191.18 603.634 191.18C602.66 191.18 601.78 190.94 600.994 190.46C600.207 189.98 599.587 189.307 599.134 188.44C598.68 187.573 598.454 186.587 598.454 185.48ZM607.734 185.5C607.734 184.673 607.567 183.953 607.234 183.34C606.9 182.727 606.447 182.26 605.874 181.94C605.314 181.607 604.694 181.44 604.014 181.44C603.334 181.44 602.714 181.6 602.154 181.92C601.594 182.24 601.147 182.707 600.814 183.32C600.48 183.933 600.314 184.653 600.314 185.48C600.314 186.32 600.48 187.053 600.814 187.68C601.147 188.293 601.594 188.767 602.154 189.1C602.714 189.42 603.334 189.58 604.014 189.58C604.694 189.58 605.314 189.42 605.874 189.1C606.447 188.767 606.9 188.293 607.234 187.68C607.567 187.053 607.734 186.327 607.734 185.5ZM622.089 180.04L615.489 196.16H613.609L615.769 190.88L611.349 180.04H613.369L616.809 188.92L620.209 180.04H622.089ZM623.239 185.48C623.239 184.36 623.466 183.38 623.919 182.54C624.372 181.687 624.992 181.027 625.779 180.56C626.579 180.093 627.466 179.86 628.439 179.86C629.399 179.86 630.232 180.067 630.939 180.48C631.646 180.893 632.172 181.413 632.519 182.04V180.04H634.359V191H632.519V188.96C632.159 189.6 631.619 190.133 630.899 190.56C630.192 190.973 629.366 191.18 628.419 191.18C627.446 191.18 626.566 190.94 625.779 190.46C624.992 189.98 624.372 189.307 623.919 188.44C623.466 187.573 623.239 186.587 623.239 185.48ZM632.519 185.5C632.519 184.673 632.352 183.953 632.019 183.34C631.686 182.727 631.232 182.26 630.659 181.94C630.099 181.607 629.479 181.44 628.799 181.44C628.119 181.44 627.499 181.6 626.939 181.92C626.379 182.24 625.932 182.707 625.599 183.32C625.266 183.933 625.099 184.653 625.099 185.48C625.099 186.32 625.266 187.053 625.599 187.68C625.932 188.293 626.379 188.767 626.939 189.1C627.499 189.42 628.119 189.58 628.799 189.58C629.479 189.58 630.099 189.42 630.659 189.1C631.232 188.767 631.686 188.293 632.019 187.68C632.352 187.053 632.519 186.327 632.519 185.5ZM643.555 191L639.255 186.16V191H637.435V176.2H639.255V184.9L643.475 180.04H646.015L640.855 185.5L646.035 191H643.555ZM647.048 185.48C647.048 184.36 647.274 183.38 647.728 182.54C648.181 181.687 648.801 181.027 649.588 180.56C650.388 180.093 651.274 179.86 652.248 179.86C653.208 179.86 654.041 180.067 654.748 180.48C655.454 180.893 655.981 181.413 656.328 182.04V180.04H658.168V191H656.328V188.96C655.968 189.6 655.428 190.133 654.708 190.56C654.001 190.973 653.174 191.18 652.228 191.18C651.254 191.18 650.374 190.94 649.588 190.46C648.801 189.98 648.181 189.307 647.728 188.44C647.274 187.573 647.048 186.587 647.048 185.48ZM656.328 185.5C656.328 184.673 656.161 183.953 655.828 183.34C655.494 182.727 655.041 182.26 654.468 181.94C653.908 181.607 653.288 181.44 652.608 181.44C651.928 181.44 651.308 181.6 650.748 181.92C650.188 182.24 649.741 182.707 649.408 183.32C649.074 183.933 648.908 184.653 648.908 185.48C648.908 186.32 649.074 187.053 649.408 187.68C649.741 188.293 650.188 188.767 650.748 189.1C651.308 189.42 651.928 189.58 652.608 189.58C653.288 189.58 653.908 189.42 654.468 189.1C655.041 188.767 655.494 188.293 655.828 187.68C656.161 187.053 656.328 186.327 656.328 185.5ZM666.583 179.84C667.916 179.84 668.996 180.247 669.823 181.06C670.65 181.86 671.063 183.02 671.063 184.54V191H669.263V184.8C669.263 183.707 668.99 182.873 668.443 182.3C667.896 181.713 667.15 181.42 666.203 181.42C665.243 181.42 664.476 181.72 663.903 182.32C663.343 182.92 663.063 183.793 663.063 184.94V191H661.243V180.04H663.063V181.6C663.423 181.04 663.91 180.607 664.523 180.3C665.15 179.993 665.836 179.84 666.583 179.84ZM692.548 179.84C693.401 179.84 694.161 180.02 694.828 180.38C695.495 180.727 696.021 181.253 696.408 181.96C696.795 182.667 696.988 183.527 696.988 184.54V191H695.188V184.8C695.188 183.707 694.915 182.873 694.368 182.3C693.835 181.713 693.108 181.42 692.188 181.42C691.241 181.42 690.488 181.727 689.928 182.34C689.368 182.94 689.088 183.813 689.088 184.96V191H687.288V184.8C687.288 183.707 687.015 182.873 686.468 182.3C685.935 181.713 685.208 181.42 684.288 181.42C683.341 181.42 682.588 181.727 682.028 182.34C681.468 182.94 681.188 183.813 681.188 184.96V191H679.368V180.04H681.188V181.62C681.548 181.047 682.028 180.607 682.628 180.3C683.241 179.993 683.915 179.84 684.648 179.84C685.568 179.84 686.381 180.047 687.088 180.46C687.795 180.873 688.321 181.48 688.668 182.28C688.975 181.507 689.481 180.907 690.188 180.48C690.895 180.053 691.681 179.84 692.548 179.84ZM709.974 185.1C709.974 185.447 709.954 185.813 709.914 186.2H701.154C701.22 187.28 701.587 188.127 702.254 188.74C702.934 189.34 703.754 189.64 704.714 189.64C705.5 189.64 706.154 189.46 706.674 189.1C707.207 188.727 707.58 188.233 707.794 187.62H709.754C709.46 188.673 708.874 189.533 707.994 190.2C707.114 190.853 706.02 191.18 704.714 191.18C703.674 191.18 702.74 190.947 701.914 190.48C701.1 190.013 700.46 189.353 699.994 188.5C699.527 187.633 699.294 186.633 699.294 185.5C699.294 184.367 699.52 183.373 699.974 182.52C700.427 181.667 701.06 181.013 701.874 180.56C702.7 180.093 703.647 179.86 704.714 179.86C705.754 179.86 706.674 180.087 707.474 180.54C708.274 180.993 708.887 181.62 709.314 182.42C709.754 183.207 709.974 184.1 709.974 185.1ZM708.094 184.72C708.094 184.027 707.94 183.433 707.634 182.94C707.327 182.433 706.907 182.053 706.374 181.8C705.854 181.533 705.274 181.4 704.634 181.4C703.714 181.4 702.927 181.693 702.274 182.28C701.634 182.867 701.267 183.68 701.174 184.72H708.094ZM714.196 176.2V191H712.376V176.2H714.196ZM716.618 185.48C716.618 184.36 716.844 183.38 717.298 182.54C717.751 181.687 718.371 181.027 719.158 180.56C719.958 180.093 720.844 179.86 721.818 179.86C722.778 179.86 723.611 180.067 724.318 180.48C725.024 180.893 725.551 181.413 725.898 182.04V180.04H727.738V191H725.898V188.96C725.538 189.6 724.998 190.133 724.278 190.56C723.571 190.973 722.744 191.18 721.798 191.18C720.824 191.18 719.944 190.94 719.158 190.46C718.371 189.98 717.751 189.307 717.298 188.44C716.844 187.573 716.618 186.587 716.618 185.48ZM725.898 185.5C725.898 184.673 725.731 183.953 725.398 183.34C725.064 182.727 724.611 182.26 724.038 181.94C723.478 181.607 722.858 181.44 722.178 181.44C721.498 181.44 720.878 181.6 720.318 181.92C719.758 182.24 719.311 182.707 718.978 183.32C718.644 183.933 718.478 184.653 718.478 185.48C718.478 186.32 718.644 187.053 718.978 187.68C719.311 188.293 719.758 188.767 720.318 189.1C720.878 189.42 721.498 189.58 722.178 189.58C722.858 189.58 723.478 189.42 724.038 189.1C724.611 188.767 725.064 188.293 725.398 187.68C725.731 187.053 725.898 186.327 725.898 185.5ZM732.633 176.2V191H730.813V176.2H732.633ZM745.455 180.04V191H743.635V189.38C743.289 189.94 742.802 190.38 742.175 190.7C741.562 191.007 740.882 191.16 740.135 191.16C739.282 191.16 738.515 190.987 737.835 190.64C737.155 190.28 736.615 189.747 736.215 189.04C735.829 188.333 735.635 187.473 735.635 186.46V180.04H737.435V186.22C737.435 187.3 737.709 188.133 738.255 188.72C738.802 189.293 739.549 189.58 740.495 189.58C741.469 189.58 742.235 189.28 742.795 188.68C743.355 188.08 743.635 187.207 743.635 186.06V180.04H745.455ZM749.468 178.26C749.122 178.26 748.828 178.14 748.588 177.9C748.348 177.66 748.228 177.367 748.228 177.02C748.228 176.673 748.348 176.38 748.588 176.14C748.828 175.9 749.122 175.78 749.468 175.78C749.802 175.78 750.082 175.9 750.308 176.14C750.548 176.38 750.668 176.673 750.668 177.02C750.668 177.367 750.548 177.66 750.308 177.9C750.082 178.14 749.802 178.26 749.468 178.26ZM750.348 180.04V191H748.528V180.04H750.348ZM764.902 191L760.602 186.16V191H758.782V176.2H760.602V184.9L764.822 180.04H767.362L762.202 185.5L767.382 191H764.902ZM779.075 185.1C779.075 185.447 779.055 185.813 779.015 186.2H770.255C770.322 187.28 770.688 188.127 771.355 188.74C772.035 189.34 772.855 189.64 773.815 189.64C774.602 189.64 775.255 189.46 775.775 189.1C776.308 188.727 776.682 188.233 776.895 187.62H778.855C778.562 188.673 777.975 189.533 777.095 190.2C776.215 190.853 775.122 191.18 773.815 191.18C772.775 191.18 771.842 190.947 771.015 190.48C770.202 190.013 769.562 189.353 769.095 188.5C768.628 187.633 768.395 186.633 768.395 185.5C768.395 184.367 768.622 183.373 769.075 182.52C769.528 181.667 770.162 181.013 770.975 180.56C771.802 180.093 772.748 179.86 773.815 179.86C774.855 179.86 775.775 180.087 776.575 180.54C777.375 180.993 777.988 181.62 778.415 182.42C778.855 183.207 779.075 184.1 779.075 185.1ZM777.195 184.72C777.195 184.027 777.042 183.433 776.735 182.94C776.428 182.433 776.008 182.053 775.475 181.8C774.955 181.533 774.375 181.4 773.735 181.4C772.815 181.4 772.028 181.693 771.375 182.28C770.735 182.867 770.368 183.68 770.275 184.72H777.195ZM785.998 179.86C786.944 179.86 787.771 180.067 788.478 180.48C789.198 180.893 789.731 181.413 790.078 182.04V180.04H791.918V191.24C791.918 192.24 791.704 193.127 791.278 193.9C790.851 194.687 790.238 195.3 789.438 195.74C788.651 196.18 787.731 196.4 786.678 196.4C785.238 196.4 784.038 196.06 783.078 195.38C782.118 194.7 781.551 193.773 781.378 192.6H783.178C783.378 193.267 783.791 193.8 784.418 194.2C785.044 194.613 785.798 194.82 786.678 194.82C787.678 194.82 788.491 194.507 789.118 193.88C789.758 193.253 790.078 192.373 790.078 191.24V188.94C789.718 189.58 789.184 190.113 788.478 190.54C787.771 190.967 786.944 191.18 785.998 191.18C785.024 191.18 784.138 190.94 783.338 190.46C782.551 189.98 781.931 189.307 781.478 188.44C781.024 187.573 780.798 186.587 780.798 185.48C780.798 184.36 781.024 183.38 781.478 182.54C781.931 181.687 782.551 181.027 783.338 180.56C784.138 180.093 785.024 179.86 785.998 179.86ZM790.078 185.5C790.078 184.673 789.911 183.953 789.578 183.34C789.244 182.727 788.791 182.26 788.218 181.94C787.658 181.607 787.038 181.44 786.358 181.44C785.678 181.44 785.058 181.6 784.498 181.92C783.938 182.24 783.491 182.707 783.158 183.32C782.824 183.933 782.658 184.653 782.658 185.48C782.658 186.32 782.824 187.053 783.158 187.68C783.491 188.293 783.938 188.767 784.498 189.1C785.058 189.42 785.678 189.58 786.358 189.58C787.038 189.58 787.658 189.42 788.218 189.1C788.791 188.767 789.244 188.293 789.578 187.68C789.911 187.053 790.078 186.327 790.078 185.5ZM795.933 178.26C795.586 178.26 795.293 178.14 795.053 177.9C794.813 177.66 794.693 177.367 794.693 177.02C794.693 176.673 794.813 176.38 795.053 176.14C795.293 175.9 795.586 175.78 795.933 175.78C796.266 175.78 796.546 175.9 796.773 176.14C797.013 176.38 797.133 176.673 797.133 177.02C797.133 177.367 797.013 177.66 796.773 177.9C796.546 178.14 796.266 178.26 795.933 178.26ZM796.813 180.04V191H794.993V180.04H796.813ZM799.235 185.48C799.235 184.36 799.462 183.38 799.915 182.54C800.368 181.687 800.988 181.027 801.775 180.56C802.575 180.093 803.462 179.86 804.435 179.86C805.395 179.86 806.228 180.067 806.935 180.48C807.642 180.893 808.168 181.413 808.515 182.04V180.04H810.355V191H808.515V188.96C808.155 189.6 807.615 190.133 806.895 190.56C806.188 190.973 805.362 191.18 804.415 191.18C803.442 191.18 802.562 190.94 801.775 190.46C800.988 189.98 800.368 189.307 799.915 188.44C799.462 187.573 799.235 186.587 799.235 185.48ZM808.515 185.5C808.515 184.673 808.348 183.953 808.015 183.34C807.682 182.727 807.228 182.26 806.655 181.94C806.095 181.607 805.475 181.44 804.795 181.44C804.115 181.44 803.495 181.6 802.935 181.92C802.375 182.24 801.928 182.707 801.595 183.32C801.262 183.933 801.095 184.653 801.095 185.48C801.095 186.32 801.262 187.053 801.595 187.68C801.928 188.293 802.375 188.767 802.935 189.1C803.495 189.42 804.115 189.58 804.795 189.58C805.475 189.58 806.095 189.42 806.655 189.1C807.228 188.767 807.682 188.293 808.015 187.68C808.348 187.053 808.515 186.327 808.515 185.5ZM815.651 181.54V188C815.651 188.533 815.764 188.913 815.991 189.14C816.217 189.353 816.611 189.46 817.171 189.46H818.511V191H816.871C815.857 191 815.097 190.767 814.591 190.3C814.084 189.833 813.831 189.067 813.831 188V181.54H812.411V180.04H813.831V177.28H815.651V180.04H818.511V181.54H815.651ZM820.036 185.48C820.036 184.36 820.262 183.38 820.716 182.54C821.169 181.687 821.789 181.027 822.576 180.56C823.376 180.093 824.262 179.86 825.236 179.86C826.196 179.86 827.029 180.067 827.736 180.48C828.442 180.893 828.969 181.413 829.316 182.04V180.04H831.156V191H829.316V188.96C828.956 189.6 828.416 190.133 827.696 190.56C826.989 190.973 826.162 191.18 825.216 191.18C824.242 191.18 823.362 190.94 822.576 190.46C821.789 189.98 821.169 189.307 820.716 188.44C820.262 187.573 820.036 186.587 820.036 185.48ZM829.316 185.5C829.316 184.673 829.149 183.953 828.816 183.34C828.482 182.727 828.029 182.26 827.456 181.94C826.896 181.607 826.276 181.44 825.596 181.44C824.916 181.44 824.296 181.6 823.736 181.92C823.176 182.24 822.729 182.707 822.396 183.32C822.062 183.933 821.896 184.653 821.896 185.48C821.896 186.32 822.062 187.053 822.396 187.68C822.729 188.293 823.176 188.767 823.736 189.1C824.296 189.42 824.916 189.58 825.596 189.58C826.276 189.58 826.896 189.42 827.456 189.1C828.029 188.767 828.482 188.293 828.816 187.68C829.149 187.053 829.316 186.327 829.316 185.5ZM839.571 179.84C840.905 179.84 841.985 180.247 842.811 181.06C843.638 181.86 844.051 183.02 844.051 184.54V191H842.251V184.8C842.251 183.707 841.978 182.873 841.431 182.3C840.885 181.713 840.138 181.42 839.191 181.42C838.231 181.42 837.465 181.72 836.891 182.32C836.331 182.92 836.051 183.793 836.051 184.94V191H834.231V180.04H836.051V181.6C836.411 181.04 836.898 180.607 837.511 180.3C838.138 179.993 838.825 179.84 839.571 179.84ZM858.476 191L854.176 186.16V191H852.356V176.2H854.176V184.9L858.396 180.04H860.936L855.776 185.5L860.956 191H858.476ZM863.589 178.26C863.243 178.26 862.949 178.14 862.709 177.9C862.469 177.66 862.349 177.367 862.349 177.02C862.349 176.673 862.469 176.38 862.709 176.14C862.949 175.9 863.243 175.78 863.589 175.78C863.923 175.78 864.203 175.9 864.429 176.14C864.669 176.38 864.789 176.673 864.789 177.02C864.789 177.367 864.669 177.66 864.429 177.9C864.203 178.14 863.923 178.26 863.589 178.26ZM864.469 180.04V191H862.649V180.04H864.469ZM869.791 181.54V188C869.791 188.533 869.905 188.913 870.131 189.14C870.358 189.353 870.751 189.46 871.311 189.46H872.651V191H871.011C869.998 191 869.238 190.767 868.731 190.3C868.225 189.833 867.971 189.067 867.971 188V181.54H866.551V180.04H867.971V177.28H869.791V180.04H872.651V181.54H869.791ZM874.176 185.48C874.176 184.36 874.403 183.38 874.856 182.54C875.31 181.687 875.93 181.027 876.716 180.56C877.516 180.093 878.403 179.86 879.376 179.86C880.336 179.86 881.17 180.067 881.876 180.48C882.583 180.893 883.11 181.413 883.456 182.04V180.04H885.296V191H883.456V188.96C883.096 189.6 882.556 190.133 881.836 190.56C881.13 190.973 880.303 191.18 879.356 191.18C878.383 191.18 877.503 190.94 876.716 190.46C875.93 189.98 875.31 189.307 874.856 188.44C874.403 187.573 874.176 186.587 874.176 185.48ZM883.456 185.5C883.456 184.673 883.29 183.953 882.956 183.34C882.623 182.727 882.17 182.26 881.596 181.94C881.036 181.607 880.416 181.44 879.736 181.44C879.056 181.44 878.436 181.6 877.876 181.92C877.316 182.24 876.87 182.707 876.536 183.32C876.203 183.933 876.036 184.653 876.036 185.48C876.036 186.32 876.203 187.053 876.536 187.68C876.87 188.293 877.316 188.767 877.876 189.1C878.436 189.42 879.056 189.58 879.736 189.58C880.416 189.58 881.036 189.42 881.596 189.1C882.17 188.767 882.623 188.293 882.956 187.68C883.29 187.053 883.456 186.327 883.456 185.5Z" fill="#949494"/>
<path d="M701.78 367.9H695.7L694.58 371H692.66L697.7 357.14H699.8L704.82 371H702.9L701.78 367.9ZM701.26 366.42L698.74 359.38L696.22 366.42H701.26ZM709.237 361.54V368C709.237 368.533 709.35 368.913 709.577 369.14C709.803 369.353 710.197 369.46 710.757 369.46H712.097V371H710.457C709.443 371 708.683 370.767 708.177 370.3C707.67 369.833 707.417 369.067 707.417 368V361.54H705.997V360.04H707.417V357.28H709.237V360.04H712.097V361.54H709.237ZM713.622 365.48C713.622 364.36 713.848 363.38 714.302 362.54C714.755 361.687 715.375 361.027 716.162 360.56C716.962 360.093 717.848 359.86 718.822 359.86C719.782 359.86 720.615 360.067 721.322 360.48C722.028 360.893 722.555 361.413 722.902 362.04V360.04H724.742V371H722.902V368.96C722.542 369.6 722.002 370.133 721.282 370.56C720.575 370.973 719.748 371.18 718.802 371.18C717.828 371.18 716.948 370.94 716.162 370.46C715.375 369.98 714.755 369.307 714.302 368.44C713.848 367.573 713.622 366.587 713.622 365.48ZM722.902 365.5C722.902 364.673 722.735 363.953 722.402 363.34C722.068 362.727 721.615 362.26 721.042 361.94C720.482 361.607 719.862 361.44 719.182 361.44C718.502 361.44 717.882 361.6 717.322 361.92C716.762 362.24 716.315 362.707 715.982 363.32C715.648 363.933 715.482 364.653 715.482 365.48C715.482 366.32 715.648 367.053 715.982 367.68C716.315 368.293 716.762 368.767 717.322 369.1C717.882 369.42 718.502 369.58 719.182 369.58C719.862 369.58 720.482 369.42 721.042 369.1C721.615 368.767 722.068 368.293 722.402 367.68C722.735 367.053 722.902 366.327 722.902 365.5ZM737.537 360.04V371H735.717V369.38C735.371 369.94 734.884 370.38 734.257 370.7C733.644 371.007 732.964 371.16 732.217 371.16C731.364 371.16 730.597 370.987 729.917 370.64C729.237 370.28 728.697 369.747 728.297 369.04C727.911 368.333 727.717 367.473 727.717 366.46V360.04H729.517V366.22C729.517 367.3 729.791 368.133 730.337 368.72C730.884 369.293 731.631 369.58 732.577 369.58C733.551 369.58 734.317 369.28 734.877 368.68C735.437 368.08 735.717 367.207 735.717 366.06V360.04H737.537Z" fill="#949494"/>
<g filter="url(#filter0_dd_2_184)">
<rect x="548" y="252" width="344" height="68" rx="20" fill="#008F76"/>
<path d="M579.603 277.32C581.379 277.32 582.931 277.664 584.259 278.352C585.603 279.024 586.635 280 587.355 281.28C588.091 282.544 588.459 284.024 588.459 285.72C588.459 287.416 588.091 288.888 587.355 290.136C586.635 291.384 585.603 292.344 584.259 293.016C582.931 293.672 581.379 294 579.603 294H574.155V277.32H579.603ZM579.603 291.768C581.555 291.768 583.051 291.24 584.091 290.184C585.131 289.128 585.651 287.64 585.651 285.72C585.651 283.784 585.131 282.272 584.091 281.184C583.051 280.096 581.555 279.552 579.603 279.552H576.891V291.768H579.603ZM596.907 294.216C595.659 294.216 594.531 293.936 593.523 293.376C592.515 292.8 591.723 292 591.147 290.976C590.571 289.936 590.283 288.736 590.283 287.376C590.283 286.032 590.579 284.84 591.171 283.8C591.763 282.76 592.571 281.96 593.595 281.4C594.619 280.84 595.763 280.56 597.027 280.56C598.291 280.56 599.435 280.84 600.459 281.4C601.483 281.96 602.291 282.76 602.883 283.8C603.475 284.84 603.771 286.032 603.771 287.376C603.771 288.72 603.467 289.912 602.859 290.952C602.251 291.992 601.419 292.8 600.363 293.376C599.323 293.936 598.171 294.216 596.907 294.216ZM596.907 291.84C597.611 291.84 598.267 291.672 598.875 291.336C599.499 291 600.003 290.496 600.387 289.824C600.771 289.152 600.963 288.336 600.963 287.376C600.963 286.416 600.779 285.608 600.411 284.952C600.043 284.28 599.555 283.776 598.947 283.44C598.339 283.104 597.683 282.936 596.979 282.936C596.275 282.936 595.619 283.104 595.011 283.44C594.419 283.776 593.947 284.28 593.595 284.952C593.243 285.608 593.067 286.416 593.067 287.376C593.067 288.8 593.427 289.904 594.147 290.688C594.883 291.456 595.803 291.84 596.907 291.84ZM613.148 280.56C614.188 280.56 615.116 280.776 615.932 281.208C616.764 281.64 617.412 282.28 617.876 283.128C618.34 283.976 618.572 285 618.572 286.2V294H615.86V286.608C615.86 285.424 615.564 284.52 614.972 283.896C614.38 283.256 613.572 282.936 612.548 282.936C611.524 282.936 610.708 283.256 610.1 283.896C609.508 284.52 609.212 285.424 609.212 286.608V294H606.476V280.776H609.212V282.288C609.66 281.744 610.228 281.32 610.916 281.016C611.62 280.712 612.364 280.56 613.148 280.56ZM621.15 287.328C621.15 286 621.422 284.824 621.966 283.8C622.526 282.776 623.278 281.984 624.222 281.424C625.182 280.848 626.238 280.56 627.39 280.56C628.43 280.56 629.334 280.768 630.102 281.184C630.886 281.584 631.51 282.088 631.974 282.696V280.776H634.734V294H631.974V292.032C631.51 292.656 630.878 293.176 630.078 293.592C629.278 294.008 628.366 294.216 627.342 294.216C626.206 294.216 625.166 293.928 624.222 293.352C623.278 292.76 622.526 291.944 621.966 290.904C621.422 289.848 621.15 288.656 621.15 287.328ZM631.974 287.376C631.974 286.464 631.782 285.672 631.398 285C631.03 284.328 630.542 283.816 629.934 283.464C629.326 283.112 628.67 282.936 627.966 282.936C627.262 282.936 626.606 283.112 625.998 283.464C625.39 283.8 624.894 284.304 624.51 284.976C624.142 285.632 623.958 286.416 623.958 287.328C623.958 288.24 624.142 289.04 624.51 289.728C624.894 290.416 625.39 290.944 625.998 291.312C626.622 291.664 627.278 291.84 627.966 291.84C628.67 291.84 629.326 291.664 629.934 291.312C630.542 290.96 631.03 290.448 631.398 289.776C631.782 289.088 631.974 288.288 631.974 287.376ZM643.127 294.216C642.087 294.216 641.151 294.032 640.319 293.664C639.503 293.28 638.855 292.768 638.375 292.128C637.895 291.472 637.639 290.744 637.607 289.944H640.439C640.487 290.504 640.751 290.976 641.231 291.36C641.727 291.728 642.343 291.912 643.079 291.912C643.847 291.912 644.439 291.768 644.855 291.48C645.287 291.176 645.503 290.792 645.503 290.328C645.503 289.832 645.263 289.464 644.783 289.224C644.319 288.984 643.575 288.72 642.551 288.432C641.559 288.16 640.751 287.896 640.127 287.64C639.503 287.384 638.959 286.992 638.495 286.464C638.047 285.936 637.823 285.24 637.823 284.376C637.823 283.672 638.031 283.032 638.447 282.456C638.863 281.864 639.455 281.4 640.223 281.064C641.007 280.728 641.903 280.56 642.911 280.56C644.415 280.56 645.623 280.944 646.535 281.712C647.463 282.464 647.959 283.496 648.023 284.808H645.287C645.239 284.216 644.999 283.744 644.567 283.392C644.135 283.04 643.551 282.864 642.815 282.864C642.095 282.864 641.543 283 641.159 283.272C640.775 283.544 640.583 283.904 640.583 284.352C640.583 284.704 640.711 285 640.967 285.24C641.223 285.48 641.535 285.672 641.903 285.816C642.271 285.944 642.815 286.112 643.535 286.32C644.495 286.576 645.279 286.84 645.887 287.112C646.511 287.368 647.047 287.752 647.495 288.264C647.943 288.776 648.175 289.456 648.191 290.304C648.191 291.056 647.983 291.728 647.567 292.32C647.151 292.912 646.559 293.376 645.791 293.712C645.039 294.048 644.151 294.216 643.127 294.216ZM652.54 279.024C652.044 279.024 651.628 278.856 651.292 278.52C650.956 278.184 650.788 277.768 650.788 277.272C650.788 276.776 650.956 276.36 651.292 276.024C651.628 275.688 652.044 275.52 652.54 275.52C653.02 275.52 653.428 275.688 653.764 276.024C654.1 276.36 654.268 276.776 654.268 277.272C654.268 277.768 654.1 278.184 653.764 278.52C653.428 278.856 653.02 279.024 652.54 279.024ZM653.884 280.776V294H651.148V280.776H653.884ZM662.798 287.328C662.798 286 663.07 284.824 663.614 283.8C664.174 282.776 664.926 281.984 665.87 281.424C666.83 280.848 667.894 280.56 669.062 280.56C669.926 280.56 670.774 280.752 671.606 281.136C672.454 281.504 673.126 282 673.622 282.624V276.24H676.382V294H673.622V292.008C673.174 292.648 672.55 293.176 671.75 293.592C670.966 294.008 670.062 294.216 669.038 294.216C667.886 294.216 666.83 293.928 665.87 293.352C664.926 292.76 664.174 291.944 663.614 290.904C663.07 289.848 662.798 288.656 662.798 287.328ZM673.622 287.376C673.622 286.464 673.43 285.672 673.046 285C672.678 284.328 672.19 283.816 671.582 283.464C670.974 283.112 670.318 282.936 669.614 282.936C668.91 282.936 668.254 283.112 667.646 283.464C667.038 283.8 666.542 284.304 666.158 284.976C665.79 285.632 665.606 286.416 665.606 287.328C665.606 288.24 665.79 289.04 666.158 289.728C666.542 290.416 667.038 290.944 667.646 291.312C668.27 291.664 668.926 291.84 669.614 291.84C670.318 291.84 670.974 291.664 671.582 291.312C672.19 290.96 672.678 290.448 673.046 289.776C673.43 289.088 673.622 288.288 673.622 287.376ZM692.096 287.064C692.096 287.56 692.064 288.008 692 288.408H681.896C681.976 289.464 682.368 290.312 683.072 290.952C683.776 291.592 684.64 291.912 685.664 291.912C687.136 291.912 688.176 291.296 688.784 290.064H691.736C691.336 291.28 690.608 292.28 689.552 293.064C688.512 293.832 687.216 294.216 685.664 294.216C684.4 294.216 683.264 293.936 682.256 293.376C681.264 292.8 680.48 292 679.904 290.976C679.344 289.936 679.064 288.736 679.064 287.376C679.064 286.016 679.336 284.824 679.88 283.8C680.44 282.76 681.216 281.96 682.208 281.4C683.216 280.84 684.368 280.56 685.664 280.56C686.912 280.56 688.024 280.832 689 281.376C689.976 281.92 690.736 282.688 691.28 283.68C691.824 284.656 692.096 285.784 692.096 287.064ZM689.24 286.2C689.224 285.192 688.864 284.384 688.16 283.776C687.456 283.168 686.584 282.864 685.544 282.864C684.6 282.864 683.792 283.168 683.12 283.776C682.448 284.368 682.048 285.176 681.92 286.2H689.24ZM701.46 280.56C702.5 280.56 703.428 280.776 704.244 281.208C705.076 281.64 705.724 282.28 706.188 283.128C706.652 283.976 706.884 285 706.884 286.2V294H704.172V286.608C704.172 285.424 703.876 284.52 703.284 283.896C702.692 283.256 701.884 282.936 700.86 282.936C699.836 282.936 699.02 283.256 698.412 283.896C697.82 284.52 697.524 285.424 697.524 286.608V294H694.788V280.776H697.524V282.288C697.972 281.744 698.54 281.32 699.228 281.016C699.932 280.712 700.676 280.56 701.46 280.56ZM715.702 280.56C716.726 280.56 717.63 280.768 718.414 281.184C719.214 281.584 719.838 282.088 720.286 282.696V280.776H723.046V294.216C723.046 295.432 722.79 296.512 722.278 297.456C721.766 298.416 721.022 299.168 720.046 299.712C719.086 300.256 717.934 300.528 716.59 300.528C714.798 300.528 713.31 300.104 712.126 299.256C710.942 298.424 710.27 297.288 710.11 295.848H712.822C713.03 296.536 713.47 297.088 714.142 297.504C714.83 297.936 715.646 298.152 716.59 298.152C717.694 298.152 718.582 297.816 719.254 297.144C719.942 296.472 720.286 295.496 720.286 294.216V292.008C719.822 292.632 719.19 293.16 718.39 293.592C717.606 294.008 716.71 294.216 715.702 294.216C714.55 294.216 713.494 293.928 712.534 293.352C711.59 292.76 710.838 291.944 710.278 290.904C709.734 289.848 709.462 288.656 709.462 287.328C709.462 286 709.734 284.824 710.278 283.8C710.838 282.776 711.59 281.984 712.534 281.424C713.494 280.848 714.55 280.56 715.702 280.56ZM720.286 287.376C720.286 286.464 720.094 285.672 719.71 285C719.342 284.328 718.854 283.816 718.246 283.464C717.638 283.112 716.982 282.936 716.278 282.936C715.574 282.936 714.918 283.112 714.31 283.464C713.702 283.8 713.206 284.304 712.822 284.976C712.454 285.632 712.27 286.416 712.27 287.328C712.27 288.24 712.454 289.04 712.822 289.728C713.206 290.416 713.702 290.944 714.31 291.312C714.934 291.664 715.59 291.84 716.278 291.84C716.982 291.84 717.638 291.664 718.246 291.312C718.854 290.96 719.342 290.448 719.71 289.776C720.094 289.088 720.286 288.288 720.286 287.376ZM725.728 287.328C725.728 286 726 284.824 726.544 283.8C727.104 282.776 727.856 281.984 728.8 281.424C729.76 280.848 730.816 280.56 731.968 280.56C733.008 280.56 733.912 280.768 734.68 281.184C735.464 281.584 736.088 282.088 736.552 282.696V280.776H739.312V294H736.552V292.032C736.088 292.656 735.456 293.176 734.656 293.592C733.856 294.008 732.944 294.216 731.92 294.216C730.784 294.216 729.744 293.928 728.8 293.352C727.856 292.76 727.104 291.944 726.544 290.904C726 289.848 725.728 288.656 725.728 287.328ZM736.552 287.376C736.552 286.464 736.36 285.672 735.976 285C735.608 284.328 735.12 283.816 734.512 283.464C733.904 283.112 733.248 282.936 732.544 282.936C731.84 282.936 731.184 283.112 730.576 283.464C729.968 283.8 729.472 284.304 729.088 284.976C728.72 285.632 728.536 286.416 728.536 287.328C728.536 288.24 728.72 289.04 729.088 289.728C729.472 290.416 729.968 290.944 730.576 291.312C731.2 291.664 731.856 291.84 732.544 291.84C733.248 291.84 733.904 291.664 734.512 291.312C735.12 290.96 735.608 290.448 735.976 289.776C736.36 289.088 736.552 288.288 736.552 287.376ZM749.577 280.56C750.617 280.56 751.545 280.776 752.361 281.208C753.193 281.64 753.841 282.28 754.305 283.128C754.769 283.976 755.001 285 755.001 286.2V294H752.289V286.608C752.289 285.424 751.993 284.52 751.401 283.896C750.809 283.256 750.001 282.936 748.977 282.936C747.953 282.936 747.137 283.256 746.529 283.896C745.937 284.52 745.641 285.424 745.641 286.608V294H742.905V280.776H745.641V282.288C746.089 281.744 746.657 281.32 747.345 281.016C748.049 280.712 748.793 280.56 749.577 280.56ZM773.918 294L767.462 286.536V294H764.726V277.32H767.462V284.928L773.942 277.32H777.374L770.126 285.672L777.494 294H773.918ZM779.001 287.328C779.001 286 779.273 284.824 779.817 283.8C780.377 282.776 781.129 281.984 782.073 281.424C783.033 280.848 784.089 280.56 785.241 280.56C786.281 280.56 787.185 280.768 787.953 281.184C788.737 281.584 789.361 282.088 789.825 282.696V280.776H792.585V294H789.825V292.032C789.361 292.656 788.729 293.176 787.929 293.592C787.129 294.008 786.217 294.216 785.193 294.216C784.057 294.216 783.017 293.928 782.073 293.352C781.129 292.76 780.377 291.944 779.817 290.904C779.273 289.848 779.001 288.656 779.001 287.328ZM789.825 287.376C789.825 286.464 789.633 285.672 789.249 285C788.881 284.328 788.393 283.816 787.785 283.464C787.177 283.112 786.521 282.936 785.817 282.936C785.113 282.936 784.457 283.112 783.849 283.464C783.241 283.8 782.745 284.304 782.361 284.976C781.993 285.632 781.809 286.416 781.809 287.328C781.809 288.24 781.993 289.04 782.361 289.728C782.745 290.416 783.241 290.944 783.849 291.312C784.473 291.664 785.129 291.84 785.817 291.84C786.521 291.84 787.177 291.664 787.785 291.312C788.393 290.96 788.881 290.448 789.249 289.776C789.633 289.088 789.825 288.288 789.825 287.376ZM812.187 280.56C813.227 280.56 814.155 280.776 814.971 281.208C815.803 281.64 816.451 282.28 816.915 283.128C817.395 283.976 817.635 285 817.635 286.2V294H814.923V286.608C814.923 285.424 814.627 284.52 814.035 283.896C813.443 283.256 812.635 282.936 811.611 282.936C810.587 282.936 809.771 283.256 809.163 283.896C808.571 284.52 808.275 285.424 808.275 286.608V294H805.563V286.608C805.563 285.424 805.267 284.52 804.675 283.896C804.083 283.256 803.275 282.936 802.251 282.936C801.227 282.936 800.411 283.256 799.803 283.896C799.211 284.52 798.915 285.424 798.915 286.608V294H796.179V280.776H798.915V282.288C799.363 281.744 799.931 281.32 800.619 281.016C801.307 280.712 802.043 280.56 802.827 280.56C803.883 280.56 804.827 280.784 805.659 281.232C806.491 281.68 807.131 282.328 807.579 283.176C807.979 282.376 808.603 281.744 809.451 281.28C810.299 280.8 811.211 280.56 812.187 280.56ZM822.508 279.024C822.012 279.024 821.596 278.856 821.26 278.52C820.924 278.184 820.756 277.768 820.756 277.272C820.756 276.776 820.924 276.36 821.26 276.024C821.596 275.688 822.012 275.52 822.508 275.52C822.988 275.52 823.396 275.688 823.732 276.024C824.068 276.36 824.236 276.776 824.236 277.272C824.236 277.768 824.068 278.184 823.732 278.52C823.396 278.856 822.988 279.024 822.508 279.024ZM823.852 280.776V294H821.116V280.776H823.852Z" fill="white"/>
<path d="M857.333 278.373C857.333 279.176 857.016 279.945 856.451 280.515C855.149 281.827 853.887 283.195 852.536 284.459C852.385 284.596 852.187 284.67 851.983 284.666C851.78 284.662 851.585 284.579 851.44 284.436L847.549 280.516C846.984 279.946 846.666 279.176 846.666 278.373C846.666 277.571 846.984 276.8 847.549 276.231C847.832 275.946 848.167 275.721 848.537 275.567C848.907 275.413 849.303 275.333 849.704 275.333C850.105 275.333 850.501 275.413 850.871 275.567C851.241 275.721 851.576 275.946 851.859 276.231L852 276.373L852.141 276.231C852.565 275.802 853.106 275.51 853.697 275.391C854.287 275.271 854.9 275.33 855.456 275.56C856.013 275.789 856.489 276.18 856.823 276.681C857.157 277.182 857.335 277.771 857.333 278.373V278.373Z" stroke="white" stroke-width="1.5" stroke-linejoin="round"/>
<path d="M860 296.667L865.099 291.568C865.249 291.418 865.333 291.215 865.333 291.003V284C865.333 283.47 865.123 282.961 864.748 282.586C864.372 282.211 863.864 282 863.333 282V282C862.803 282 862.294 282.211 861.919 282.586C861.544 282.961 861.333 283.47 861.333 284V290" stroke="white" stroke-width="1.5" stroke-linecap="round" stroke-linejoin="round"/>
<path d="M860 291.333L861.144 290.189C861.204 290.129 861.252 290.058 861.284 289.98C861.317 289.901 861.333 289.817 861.333 289.732C861.333 289.612 861.3 289.495 861.237 289.393C861.173 289.291 861.083 289.208 860.976 289.155L860.385 288.86C859.885 288.61 859.318 288.523 858.766 288.613C858.214 288.702 857.704 288.963 857.308 289.359L856.115 290.552C855.615 291.052 855.333 291.73 855.333 292.437V296.667M844 296.667L838.901 291.568C838.751 291.418 838.667 291.215 838.667 291.003V284C838.667 283.47 838.877 282.961 839.252 282.586C839.628 282.211 840.136 282 840.667 282V282C841.197 282 841.706 282.211 842.081 282.586C842.456 282.961 842.667 283.47 842.667 284V290" stroke="white" stroke-width="1.5" stroke-linecap="round" stroke-linejoin="round"/>
<path d="M844 291.333L842.856 290.189C842.796 290.129 842.748 290.058 842.716 289.979C842.683 289.901 842.667 289.817 842.667 289.732V289.732C842.667 289.488 842.805 289.265 843.024 289.155L843.615 288.86C844.115 288.61 844.682 288.523 845.234 288.613C845.786 288.702 846.296 288.963 846.692 289.359L847.885 290.552C848.385 291.052 848.667 291.73 848.667 292.437V296.667" stroke="white" stroke-width="1.5" stroke-linecap="round" stroke-linejoin="round"/>
<rect x="548" y="252" width="344" height="68" rx="20" stroke="#008F76"/>
</g>
<g filter="url(#filter1_dd_2_184)">
<path d="M624.374 433.32V450H621.638V442.704H613.79V450H611.054V433.32H613.79V440.472H621.638V433.32H624.374ZM639.952 436.776V450H637.216V448.44C636.784 448.984 636.216 449.416 635.512 449.736C634.824 450.04 634.088 450.192 633.304 450.192C632.264 450.192 631.328 449.976 630.496 449.544C629.68 449.112 629.032 448.472 628.552 447.624C628.088 446.776 627.856 445.752 627.856 444.552V436.776H630.568V444.144C630.568 445.328 630.864 446.24 631.456 446.88C632.048 447.504 632.856 447.816 633.88 447.816C634.904 447.816 635.712 447.504 636.304 446.88C636.912 446.24 637.216 445.328 637.216 444.144V436.776H639.952ZM646.298 438.744C646.762 438.104 647.394 437.584 648.194 437.184C649.01 436.768 649.914 436.56 650.906 436.56C652.074 436.56 653.13 436.84 654.074 437.4C655.018 437.96 655.762 438.76 656.306 439.8C656.85 440.824 657.122 442 657.122 443.328C657.122 444.656 656.85 445.848 656.306 446.904C655.762 447.944 655.01 448.76 654.05 449.352C653.106 449.928 652.058 450.216 650.906 450.216C649.882 450.216 648.97 450.016 648.17 449.616C647.386 449.216 646.762 448.704 646.298 448.08V450H643.562V432.24H646.298V438.744ZM654.338 443.328C654.338 442.416 654.146 441.632 653.762 440.976C653.394 440.304 652.898 439.8 652.274 439.464C651.666 439.112 651.01 438.936 650.306 438.936C649.618 438.936 648.962 439.112 648.338 439.464C647.73 439.816 647.234 440.328 646.85 441C646.482 441.672 646.298 442.464 646.298 443.376C646.298 444.288 646.482 445.088 646.85 445.776C647.234 446.448 647.73 446.96 648.338 447.312C648.962 447.664 649.618 447.84 650.306 447.84C651.01 447.84 651.666 447.664 652.274 447.312C652.898 446.944 653.394 446.416 653.762 445.728C654.146 445.04 654.338 444.24 654.338 443.328ZM671.803 436.776V450H669.067V448.44C668.635 448.984 668.067 449.416 667.363 449.736C666.675 450.04 665.939 450.192 665.155 450.192C664.115 450.192 663.179 449.976 662.347 449.544C661.531 449.112 660.883 448.472 660.403 447.624C659.939 446.776 659.707 445.752 659.707 444.552V436.776H662.419V444.144C662.419 445.328 662.715 446.24 663.307 446.88C663.899 447.504 664.707 447.816 665.731 447.816C666.755 447.816 667.563 447.504 668.155 446.88C668.763 446.24 669.067 445.328 669.067 444.144V436.776H671.803ZM682.085 436.56C683.125 436.56 684.053 436.776 684.869 437.208C685.701 437.64 686.349 438.28 686.813 439.128C687.277 439.976 687.509 441 687.509 442.2V450H684.797V442.608C684.797 441.424 684.501 440.52 683.909 439.896C683.317 439.256 682.509 438.936 681.485 438.936C680.461 438.936 679.645 439.256 679.037 439.896C678.445 440.52 678.149 441.424 678.149 442.608V450H675.413V436.776H678.149V438.288C678.597 437.744 679.165 437.32 679.853 437.016C680.557 436.712 681.301 436.56 682.085 436.56ZM696.327 436.56C697.351 436.56 698.255 436.768 699.039 437.184C699.839 437.584 700.463 438.088 700.911 438.696V436.776H703.671V450.216C703.671 451.432 703.415 452.512 702.903 453.456C702.391 454.416 701.647 455.168 700.671 455.712C699.711 456.256 698.559 456.528 697.215 456.528C695.423 456.528 693.935 456.104 692.751 455.256C691.567 454.424 690.895 453.288 690.735 451.848H693.447C693.655 452.536 694.095 453.088 694.767 453.504C695.455 453.936 696.271 454.152 697.215 454.152C698.319 454.152 699.207 453.816 699.879 453.144C700.567 452.472 700.911 451.496 700.911 450.216V448.008C700.447 448.632 699.815 449.16 699.015 449.592C698.231 450.008 697.335 450.216 696.327 450.216C695.175 450.216 694.119 449.928 693.159 449.352C692.215 448.76 691.463 447.944 690.903 446.904C690.359 445.848 690.087 444.656 690.087 443.328C690.087 442 690.359 440.824 690.903 439.8C691.463 438.776 692.215 437.984 693.159 437.424C694.119 436.848 695.175 436.56 696.327 436.56ZM700.911 443.376C700.911 442.464 700.719 441.672 700.335 441C699.967 440.328 699.479 439.816 698.871 439.464C698.263 439.112 697.607 438.936 696.903 438.936C696.199 438.936 695.543 439.112 694.935 439.464C694.327 439.8 693.831 440.304 693.447 440.976C693.079 441.632 692.895 442.416 692.895 443.328C692.895 444.24 693.079 445.04 693.447 445.728C693.831 446.416 694.327 446.944 694.935 447.312C695.559 447.664 696.215 447.84 696.903 447.84C697.607 447.84 698.263 447.664 698.871 447.312C699.479 446.96 699.967 446.448 700.335 445.776C700.719 445.088 700.911 444.288 700.911 443.376ZM708.657 435.024C708.161 435.024 707.745 434.856 707.409 434.52C707.073 434.184 706.905 433.768 706.905 433.272C706.905 432.776 707.073 432.36 707.409 432.024C707.745 431.688 708.161 431.52 708.657 431.52C709.137 431.52 709.545 431.688 709.881 432.024C710.217 432.36 710.385 432.776 710.385 433.272C710.385 433.768 710.217 434.184 709.881 434.52C709.545 434.856 709.137 435.024 708.657 435.024ZM710.001 436.776V450H707.265V436.776H710.001ZM729.019 450L722.563 442.536V450H719.827V433.32H722.563V440.928L729.043 433.32H732.475L725.227 441.672L732.595 450H729.019ZM734.103 443.328C734.103 442 734.375 440.824 734.919 439.8C735.479 438.776 736.231 437.984 737.175 437.424C738.135 436.848 739.191 436.56 740.343 436.56C741.383 436.56 742.287 436.768 743.055 437.184C743.839 437.584 744.463 438.088 744.927 438.696V436.776H747.687V450H744.927V448.032C744.463 448.656 743.831 449.176 743.031 449.592C742.231 450.008 741.319 450.216 740.295 450.216C739.159 450.216 738.119 449.928 737.175 449.352C736.231 448.76 735.479 447.944 734.919 446.904C734.375 445.848 734.103 444.656 734.103 443.328ZM744.927 443.376C744.927 442.464 744.735 441.672 744.351 441C743.983 440.328 743.495 439.816 742.887 439.464C742.279 439.112 741.623 438.936 740.919 438.936C740.215 438.936 739.559 439.112 738.951 439.464C738.343 439.8 737.847 440.304 737.463 440.976C737.095 441.632 736.911 442.416 736.911 443.328C736.911 444.24 737.095 445.04 737.463 445.728C737.847 446.416 738.343 446.944 738.951 447.312C739.575 447.664 740.231 447.84 740.919 447.84C741.623 447.84 742.279 447.664 742.887 447.312C743.495 446.96 743.983 446.448 744.351 445.776C744.735 445.088 744.927 444.288 744.927 443.376ZM767.288 436.56C768.328 436.56 769.256 436.776 770.072 437.208C770.904 437.64 771.552 438.28 772.016 439.128C772.496 439.976 772.736 441 772.736 442.2V450H770.024V442.608C770.024 441.424 769.728 440.52 769.136 439.896C768.544 439.256 767.736 438.936 766.712 438.936C765.688 438.936 764.872 439.256 764.264 439.896C763.672 440.52 763.376 441.424 763.376 442.608V450H760.664V442.608C760.664 441.424 760.368 440.52 759.776 439.896C759.184 439.256 758.376 438.936 757.352 438.936C756.328 438.936 755.512 439.256 754.904 439.896C754.312 440.52 754.016 441.424 754.016 442.608V450H751.28V436.776H754.016V438.288C754.464 437.744 755.032 437.32 755.72 437.016C756.408 436.712 757.144 436.56 757.928 436.56C758.984 436.56 759.928 436.784 760.76 437.232C761.592 437.68 762.232 438.328 762.68 439.176C763.08 438.376 763.704 437.744 764.552 437.28C765.4 436.8 766.312 436.56 767.288 436.56ZM777.61 435.024C777.114 435.024 776.698 434.856 776.362 434.52C776.026 434.184 775.858 433.768 775.858 433.272C775.858 432.776 776.026 432.36 776.362 432.024C776.698 431.688 777.114 431.52 777.61 431.52C778.09 431.52 778.498 431.688 778.834 432.024C779.17 432.36 779.338 432.776 779.338 433.272C779.338 433.768 779.17 434.184 778.834 434.52C778.498 434.856 778.09 435.024 777.61 435.024ZM778.954 436.776V450H776.218V436.776H778.954Z" fill="#008F76"/>
<g clip-path="url(#clip1_2_184)">
<path d="M799.458 453.54L799.981 453.802C802.161 455.11 804.602 455.72 807.044 455.72C814.717 455.72 820.995 449.442 820.995 441.769C820.995 438.107 819.513 434.532 816.897 431.916C814.281 429.3 810.793 427.818 807.044 427.818C799.371 427.818 793.093 434.096 793.18 441.856C793.18 444.472 793.965 447.001 795.273 449.181L795.621 449.704L794.226 454.848L799.458 453.54Z" fill="#00E676"/>
<path d="M818.379 430.521C815.415 427.469 811.316 425.812 807.131 425.812C798.237 425.812 791.087 433.05 791.174 441.856C791.174 444.647 791.959 447.35 793.267 449.791L791 458.075L799.458 455.895C801.812 457.203 804.428 457.813 807.044 457.813C815.851 457.813 823 450.576 823 441.769C823 437.497 821.344 433.486 818.379 430.521H818.379ZM807.131 455.11C804.777 455.11 802.422 454.5 800.417 453.279L799.894 453.017L794.837 454.325L796.144 449.355L795.796 448.832C791.959 442.641 793.79 434.445 800.068 430.608C806.346 426.772 814.455 428.603 818.292 434.881C822.128 441.159 820.297 449.268 814.02 453.104C812.014 454.412 809.573 455.11 807.131 455.11V455.11ZM814.804 445.431L813.845 444.996C813.845 444.996 812.45 444.385 811.578 443.949C811.491 443.949 811.404 443.862 811.316 443.862C811.055 443.862 810.88 443.949 810.706 444.036C810.706 444.036 810.619 444.124 809.398 445.519C809.311 445.693 809.137 445.78 808.962 445.78H808.875C808.788 445.78 808.613 445.693 808.526 445.606L808.09 445.431C807.131 444.995 806.259 444.472 805.561 443.775C805.387 443.6 805.125 443.426 804.951 443.252C804.341 442.641 803.73 441.944 803.295 441.159L803.207 440.984C803.12 440.897 803.12 440.81 803.033 440.636C803.033 440.461 803.033 440.287 803.12 440.2C803.12 440.2 803.469 439.764 803.73 439.502C803.905 439.328 803.992 439.066 804.166 438.892C804.341 438.63 804.428 438.281 804.341 438.02C804.254 437.584 803.207 435.23 802.946 434.707C802.771 434.445 802.597 434.358 802.335 434.271H801.376C801.202 434.271 801.028 434.358 800.853 434.358L800.766 434.445C800.591 434.532 800.417 434.707 800.243 434.794C800.068 434.968 799.981 435.142 799.807 435.317C799.196 436.102 798.847 437.061 798.847 438.02C798.847 438.717 799.022 439.415 799.283 440.025L799.371 440.287C800.156 441.944 801.202 443.426 802.597 444.734L802.946 445.083C803.207 445.344 803.469 445.519 803.643 445.78C805.474 447.35 807.567 448.483 809.921 449.094C810.183 449.181 810.532 449.181 810.793 449.268H811.665C812.101 449.268 812.624 449.094 812.973 448.919C813.235 448.745 813.409 448.745 813.583 448.57L813.758 448.396C813.932 448.222 814.107 448.135 814.281 447.96C814.455 447.786 814.63 447.611 814.717 447.437C814.891 447.088 814.979 446.652 815.066 446.216V445.606C815.066 445.606 814.979 445.519 814.804 445.431Z" fill="white"/>
</g>
<rect x="585" y="408" width="262" height="68" rx="20" stroke="#008F76"/>
</g>
</g>
<defs>
<filter id="filter0_dd_2_184" x="467.5" y="251.5" width="505" height="249" filterUnits="userSpaceOnUse" color-interpolation-filters="sRGB">
<feFlood flood-opacity="0" result="BackgroundImageFix"/>
<feColorMatrix in="SourceAlpha" type="matrix" values="0 0 0 0 0 0 0 0 0 0 0 0 0 0 0 0 0 0 127 0" result="hardAlpha"/>
<feOffset dy="12.5216"/>
<feGaussianBlur stdDeviation="5.00862"/>
<feColorMatrix type="matrix" values="0 0 0 0 0 0 0 0 0 0 0 0 0 0 0 0 0 0 0.015 0"/>
<feBlend mode="normal" in2="BackgroundImageFix" result="effect1_dropShadow_2_184"/>
<feColorMatrix in="SourceAlpha" type="matrix" values="0 0 0 0 0 0 0 0 0 0 0 0 0 0 0 0 0 0 127 0" result="hardAlpha"/>
<feOffset dy="100"/>
<feGaussianBlur stdDeviation="40"/>
<feColorMatrix type="matrix" values="0 0 0 0 0 0 0 0 0 0 0 0 0 0 0 0 0 0 0.03 0"/>
<feBlend mode="normal" in2="effect1_dropShadow_2_184" result="effect2_dropShadow_2_184"/>
<feBlend mode="normal" in="SourceGraphic" in2="effect2_dropShadow_2_184" result="shape"/>
</filter>
<filter id="filter1_dd_2_184" x="504.5" y="407.5" width="423" height="249" filterUnits="userSpaceOnUse" color-interpolation-filters="sRGB">
<feFlood flood-opacity="0" result="BackgroundImageFix"/>
<feColorMatrix in="SourceAlpha" type="matrix" values="0 0 0 0 0 0 0 0 0 0 0 0 0 0 0 0 0 0 127 0" result="hardAlpha"/>
<feOffset dy="12.5216"/>
<feGaussianBlur stdDeviation="5.00862"/>
<feColorMatrix type="matrix" values="0 0 0 0 0 0 0 0 0 0 0 0 0 0 0 0 0 0 0.015 0"/>
<feBlend mode="normal" in2="BackgroundImageFix" result="effect1_dropShadow_2_184"/>
<feColorMatrix in="SourceAlpha" type="matrix" values="0 0 0 0 0 0 0 0 0 0 0 0 0 0 0 0 0 0 127 0" result="hardAlpha"/>
<feOffset dy="100"/>
<feGaussianBlur stdDeviation="40"/>
<feColorMatrix type="matrix" values="0 0 0 0 0 0 0 0 0 0 0 0 0 0 0 0 0 0 0.03 0"/>
<feBlend mode="normal" in2="effect1_dropShadow_2_184" result="effect2_dropShadow_2_184"/>
<feBlend mode="normal" in="SourceGraphic" in2="effect2_dropShadow_2_184" result="shape"/>
</filter>
<clipPath id="clip0_2_184">
<rect width="1440" height="576" fill="white"/>
</clipPath>
<clipPath id="clip1_2_184">
<rect width="32" height="32.375" fill="white" transform="translate(791 425.812)"/>
</clipPath>
</defs>
</svg>
