<svg width="1440" height="61" viewBox="0 0 1440 61" fill="none" xmlns="http://www.w3.org/2000/svg">
<rect width="1440" height="60" transform="translate(0 0.0214844)" fill="#008F76"/>
<path d="M581 19.5215C575.202 19.5215 570.5 24.223 570.5 30.0215C570.5 35.8199 575.202 40.5215 581 40.5215C586.798 40.5215 591.5 35.8199 591.5 30.0215C591.5 24.223 586.798 19.5215 581 19.5215ZM581 38.7402C576.186 38.7402 572.281 34.8355 572.281 30.0215C572.281 25.2074 576.186 21.3027 581 21.3027C585.814 21.3027 589.719 25.2074 589.719 30.0215C589.719 34.8355 585.814 38.7402 581 38.7402ZM581.131 26.2551C582.373 26.2551 583.217 27.0473 583.311 28.2098C583.318 28.3082 583.4 28.3832 583.498 28.3832H584.827C584.888 28.3832 584.938 28.334 584.938 28.273C584.938 26.241 583.334 24.8184 581.124 24.8184C578.548 24.8184 577.062 26.5574 577.062 29.4309V30.6566C577.062 33.509 578.548 35.2246 581.124 35.2246C583.327 35.2246 584.938 33.8465 584.938 31.9105C584.938 31.8496 584.888 31.8004 584.827 31.8004H583.496C583.398 31.8004 583.318 31.8754 583.309 31.9715C583.21 33.052 582.369 33.7949 581.129 33.7949C579.598 33.7949 578.736 32.6723 578.736 30.6637V29.4309C578.738 27.3918 579.603 26.2551 581.131 26.2551Z" fill="#F8F8F8"/>
<path d="M619.098 27.2375C619.098 27.8735 618.948 28.4735 618.648 29.0375C618.348 29.6015 617.868 30.0635 617.208 30.4235C616.548 30.7715 615.702 30.9455 614.67 30.9455H612.402V36.0215H610.35V23.5115H614.67C615.63 23.5115 616.44 23.6795 617.1 24.0155C617.772 24.3395 618.27 24.7835 618.594 25.3475C618.93 25.9115 619.098 26.5415 619.098 27.2375ZM614.67 29.2715C615.45 29.2715 616.032 29.0975 616.416 28.7495C616.8 28.3895 616.992 27.8855 616.992 27.2375C616.992 25.8695 616.218 25.1855 614.67 25.1855H612.402V29.2715H614.67ZM625.357 36.1835C624.421 36.1835 623.575 35.9735 622.819 35.5535C622.063 35.1215 621.469 34.5215 621.037 33.7535C620.605 32.9735 620.389 32.0735 620.389 31.0535C620.389 30.0455 620.611 29.1515 621.055 28.3715C621.499 27.5915 622.105 26.9915 622.873 26.5715C623.641 26.1515 624.499 25.9415 625.447 25.9415C626.395 25.9415 627.253 26.1515 628.021 26.5715C628.789 26.9915 629.395 27.5915 629.839 28.3715C630.283 29.1515 630.505 30.0455 630.505 31.0535C630.505 32.0615 630.277 32.9555 629.821 33.7355C629.365 34.5155 628.741 35.1215 627.949 35.5535C627.169 35.9735 626.305 36.1835 625.357 36.1835ZM625.357 34.4015C625.885 34.4015 626.377 34.2755 626.833 34.0235C627.301 33.7715 627.679 33.3935 627.967 32.8895C628.255 32.3855 628.399 31.7735 628.399 31.0535C628.399 30.3335 628.261 29.7275 627.985 29.2355C627.709 28.7315 627.343 28.3535 626.887 28.1015C626.431 27.8495 625.939 27.7235 625.411 27.7235C624.883 27.7235 624.391 27.8495 623.935 28.1015C623.491 28.3535 623.137 28.7315 622.873 29.2355C622.609 29.7275 622.477 30.3335 622.477 31.0535C622.477 32.1215 622.747 32.9495 623.287 33.5375C623.839 34.1135 624.529 34.4015 625.357 34.4015ZM633.578 24.7895C633.206 24.7895 632.894 24.6635 632.642 24.4115C632.39 24.1595 632.264 23.8475 632.264 23.4755C632.264 23.1035 632.39 22.7915 632.642 22.5395C632.894 22.2875 633.206 22.1615 633.578 22.1615C633.938 22.1615 634.244 22.2875 634.496 22.5395C634.748 22.7915 634.874 23.1035 634.874 23.4755C634.874 23.8475 634.748 24.1595 634.496 24.4115C634.244 24.6635 633.938 24.7895 633.578 24.7895ZM634.586 37.9655C634.586 38.9375 634.34 39.6395 633.848 40.0715C633.368 40.5155 632.666 40.7375 631.742 40.7375H630.68V39.0095H631.382C631.802 39.0095 632.096 38.9255 632.264 38.7575C632.444 38.6015 632.534 38.3375 632.534 37.9655V26.1035H634.586V37.9655ZM641.582 36.1835C640.646 36.1835 639.8 35.9735 639.044 35.5535C638.288 35.1215 637.694 34.5215 637.262 33.7535C636.83 32.9735 636.614 32.0735 636.614 31.0535C636.614 30.0455 636.836 29.1515 637.28 28.3715C637.724 27.5915 638.33 26.9915 639.098 26.5715C639.866 26.1515 640.724 25.9415 641.672 25.9415C642.62 25.9415 643.478 26.1515 644.246 26.5715C645.014 26.9915 645.62 27.5915 646.064 28.3715C646.508 29.1515 646.73 30.0455 646.73 31.0535C646.73 32.0615 646.502 32.9555 646.046 33.7355C645.59 34.5155 644.966 35.1215 644.174 35.5535C643.394 35.9735 642.53 36.1835 641.582 36.1835ZM641.582 34.4015C642.11 34.4015 642.602 34.2755 643.058 34.0235C643.526 33.7715 643.904 33.3935 644.192 32.8895C644.48 32.3855 644.624 31.7735 644.624 31.0535C644.624 30.3335 644.486 29.7275 644.21 29.2355C643.934 28.7315 643.568 28.3535 643.112 28.1015C642.656 27.8495 642.164 27.7235 641.636 27.7235C641.108 27.7235 640.616 27.8495 640.16 28.1015C639.716 28.3535 639.362 28.7315 639.098 29.2355C638.834 29.7275 638.702 30.3335 638.702 31.0535C638.702 32.1215 638.972 32.9495 639.512 33.5375C640.064 34.1135 640.754 34.4015 641.582 34.4015ZM652.682 31.0715L657.254 36.0215H654.482L650.81 31.7555V36.0215H648.758V22.7015H650.81V30.4415L654.41 26.1035H657.254L652.682 31.0715ZM670.097 29.5955C670.769 29.7155 671.339 30.0695 671.807 30.6575C672.275 31.2455 672.509 31.9115 672.509 32.6555C672.509 33.2915 672.341 33.8675 672.005 34.3835C671.681 34.8875 671.207 35.2895 670.583 35.5895C669.959 35.8775 669.233 36.0215 668.405 36.0215H663.401V23.5115H668.171C669.023 23.5115 669.755 23.6555 670.367 23.9435C670.979 24.2315 671.441 24.6215 671.753 25.1135C672.065 25.5935 672.221 26.1335 672.221 26.7335C672.221 27.4535 672.029 28.0535 671.645 28.5335C671.261 29.0135 670.745 29.3675 670.097 29.5955ZM665.453 28.7675H667.991C668.663 28.7675 669.185 28.6175 669.557 28.3175C669.941 28.0055 670.133 27.5615 670.133 26.9855C670.133 26.4215 669.941 25.9835 669.557 25.6715C669.185 25.3475 668.663 25.1855 667.991 25.1855H665.453V28.7675ZM668.225 34.3475C668.921 34.3475 669.467 34.1795 669.863 33.8435C670.259 33.5075 670.457 33.0395 670.457 32.4395C670.457 31.8275 670.247 31.3415 669.827 30.9815C669.407 30.6215 668.849 30.4415 668.153 30.4415H665.453V34.3475H668.225ZM674.055 31.0175C674.055 30.0215 674.259 29.1395 674.667 28.3715C675.087 27.6035 675.651 27.0095 676.359 26.5895C677.079 26.1575 677.871 25.9415 678.735 25.9415C679.515 25.9415 680.193 26.0975 680.769 26.4095C681.357 26.7095 681.825 27.0875 682.173 27.5435V26.1035H684.243V36.0215H682.173V34.5455C681.825 35.0135 681.351 35.4035 680.751 35.7155C680.151 36.0275 679.467 36.1835 678.699 36.1835C677.847 36.1835 677.067 35.9675 676.359 35.5355C675.651 35.0915 675.087 34.4795 674.667 33.6995C674.259 32.9075 674.055 32.0135 674.055 31.0175ZM682.173 31.0535C682.173 30.3695 682.029 29.7755 681.741 29.2715C681.465 28.7675 681.099 28.3835 680.643 28.1195C680.187 27.8555 679.695 27.7235 679.167 27.7235C678.639 27.7235 678.147 27.8555 677.691 28.1195C677.235 28.3715 676.863 28.7495 676.575 29.2535C676.299 29.7455 676.161 30.3335 676.161 31.0175C676.161 31.7015 676.299 32.3015 676.575 32.8175C676.863 33.3335 677.235 33.7295 677.691 34.0055C678.159 34.2695 678.651 34.4015 679.167 34.4015C679.695 34.4015 680.187 34.2695 680.643 34.0055C681.099 33.7415 681.465 33.3575 681.741 32.8535C682.029 32.3375 682.173 31.7375 682.173 31.0535ZM686.254 31.0535C686.254 30.0335 686.458 29.1395 686.866 28.3715C687.286 27.5915 687.862 26.9915 688.594 26.5715C689.326 26.1515 690.166 25.9415 691.114 25.9415C692.314 25.9415 693.304 26.2295 694.084 26.8055C694.876 27.3695 695.41 28.1795 695.686 29.2355H693.472C693.292 28.7435 693.004 28.3595 692.608 28.0835C692.212 27.8075 691.714 27.6695 691.114 27.6695C690.274 27.6695 689.602 27.9695 689.098 28.5695C688.606 29.1575 688.36 29.9855 688.36 31.0535C688.36 32.1215 688.606 32.9555 689.098 33.5555C689.602 34.1555 690.274 34.4555 691.114 34.4555C692.302 34.4555 693.088 33.9335 693.472 32.8895H695.686C695.398 33.8975 694.858 34.7015 694.066 35.3015C693.274 35.8895 692.29 36.1835 691.114 36.1835C690.166 36.1835 689.326 35.9735 688.594 35.5535C687.862 35.1215 687.286 34.5215 686.866 33.7535C686.458 32.9735 686.254 32.0735 686.254 31.0535ZM697.047 31.0175C697.047 30.0215 697.251 29.1395 697.659 28.3715C698.079 27.6035 698.643 27.0095 699.351 26.5895C700.071 26.1575 700.863 25.9415 701.727 25.9415C702.507 25.9415 703.185 26.0975 703.761 26.4095C704.349 26.7095 704.817 27.0875 705.165 27.5435V26.1035H707.235V36.0215H705.165V34.5455C704.817 35.0135 704.343 35.4035 703.743 35.7155C703.143 36.0275 702.459 36.1835 701.691 36.1835C700.839 36.1835 700.059 35.9675 699.351 35.5355C698.643 35.0915 698.079 34.4795 697.659 33.6995C697.251 32.9075 697.047 32.0135 697.047 31.0175ZM705.165 31.0535C705.165 30.3695 705.021 29.7755 704.733 29.2715C704.457 28.7675 704.091 28.3835 703.635 28.1195C703.179 27.8555 702.687 27.7235 702.159 27.7235C701.631 27.7235 701.139 27.8555 700.683 28.1195C700.227 28.3715 699.855 28.7495 699.567 29.2535C699.291 29.7455 699.153 30.3335 699.153 31.0175C699.153 31.7015 699.291 32.3015 699.567 32.8175C699.855 33.3335 700.227 33.7295 700.683 34.0055C701.151 34.2695 701.643 34.4015 702.159 34.4015C702.687 34.4015 703.179 34.2695 703.635 34.0055C704.091 33.7415 704.457 33.3575 704.733 32.8535C705.021 32.3375 705.165 31.7375 705.165 31.0535ZM723.354 27.2375C723.354 27.8735 723.204 28.4735 722.904 29.0375C722.604 29.6015 722.124 30.0635 721.464 30.4235C720.804 30.7715 719.958 30.9455 718.926 30.9455H716.658V36.0215H714.606V23.5115H718.926C719.886 23.5115 720.696 23.6795 721.356 24.0155C722.028 24.3395 722.526 24.7835 722.85 25.3475C723.186 25.9115 723.354 26.5415 723.354 27.2375ZM718.926 29.2715C719.706 29.2715 720.288 29.0975 720.672 28.7495C721.056 28.3895 721.248 27.8855 721.248 27.2375C721.248 25.8695 720.474 25.1855 718.926 25.1855H716.658V29.2715H718.926ZM727.363 27.5435C727.663 27.0395 728.059 26.6495 728.551 26.3735C729.055 26.0855 729.649 25.9415 730.333 25.9415V28.0655H729.811C729.007 28.0655 728.395 28.2695 727.975 28.6775C727.567 29.0855 727.363 29.7935 727.363 30.8015V36.0215H725.311V26.1035H727.363V27.5435ZM736.521 36.1835C735.585 36.1835 734.739 35.9735 733.983 35.5535C733.227 35.1215 732.633 34.5215 732.201 33.7535C731.769 32.9735 731.553 32.0735 731.553 31.0535C731.553 30.0455 731.775 29.1515 732.219 28.3715C732.663 27.5915 733.269 26.9915 734.037 26.5715C734.805 26.1515 735.663 25.9415 736.611 25.9415C737.559 25.9415 738.417 26.1515 739.185 26.5715C739.953 26.9915 740.559 27.5915 741.003 28.3715C741.447 29.1515 741.669 30.0455 741.669 31.0535C741.669 32.0615 741.441 32.9555 740.985 33.7355C740.529 34.5155 739.905 35.1215 739.113 35.5535C738.333 35.9735 737.469 36.1835 736.521 36.1835ZM736.521 34.4015C737.049 34.4015 737.541 34.2755 737.997 34.0235C738.465 33.7715 738.843 33.3935 739.131 32.8895C739.419 32.3855 739.563 31.7735 739.563 31.0535C739.563 30.3335 739.425 29.7275 739.149 29.2355C738.873 28.7315 738.507 28.3535 738.051 28.1015C737.595 27.8495 737.103 27.7235 736.575 27.7235C736.047 27.7235 735.555 27.8495 735.099 28.1015C734.655 28.3535 734.301 28.7315 734.037 29.2355C733.773 29.7275 733.641 30.3335 733.641 31.0535C733.641 32.1215 733.911 32.9495 734.451 33.5375C735.003 34.1135 735.693 34.4015 736.521 34.4015ZM745.75 27.5795C746.098 27.0995 746.572 26.7095 747.172 26.4095C747.784 26.0975 748.462 25.9415 749.206 25.9415C750.082 25.9415 750.874 26.1515 751.582 26.5715C752.29 26.9915 752.848 27.5915 753.256 28.3715C753.664 29.1395 753.868 30.0215 753.868 31.0175C753.868 32.0135 753.664 32.9075 753.256 33.6995C752.848 34.4795 752.284 35.0915 751.564 35.5355C750.856 35.9675 750.07 36.1835 749.206 36.1835C748.438 36.1835 747.754 36.0335 747.154 35.7335C746.566 35.4335 746.098 35.0495 745.75 34.5815V36.0215H743.698V22.7015H745.75V27.5795ZM751.78 31.0175C751.78 30.3335 751.636 29.7455 751.348 29.2535C751.072 28.7495 750.7 28.3715 750.232 28.1195C749.776 27.8555 749.284 27.7235 748.756 27.7235C748.24 27.7235 747.748 27.8555 747.28 28.1195C746.824 28.3835 746.452 28.7675 746.164 29.2715C745.888 29.7755 745.75 30.3695 745.75 31.0535C745.75 31.7375 745.888 32.3375 746.164 32.8535C746.452 33.3575 746.824 33.7415 747.28 34.0055C747.748 34.2695 748.24 34.4015 748.756 34.4015C749.284 34.4015 749.776 34.2695 750.232 34.0055C750.7 33.7295 751.072 33.3335 751.348 32.8175C751.636 32.3015 751.78 31.7015 751.78 31.0175ZM760.199 36.1835C759.263 36.1835 758.417 35.9735 757.661 35.5535C756.905 35.1215 756.311 34.5215 755.879 33.7535C755.447 32.9735 755.231 32.0735 755.231 31.0535C755.231 30.0455 755.453 29.1515 755.897 28.3715C756.341 27.5915 756.947 26.9915 757.715 26.5715C758.483 26.1515 759.341 25.9415 760.289 25.9415C761.237 25.9415 762.095 26.1515 762.863 26.5715C763.631 26.9915 764.237 27.5915 764.681 28.3715C765.125 29.1515 765.347 30.0455 765.347 31.0535C765.347 32.0615 765.119 32.9555 764.663 33.7355C764.207 34.5155 763.583 35.1215 762.791 35.5535C762.011 35.9735 761.147 36.1835 760.199 36.1835ZM760.199 34.4015C760.727 34.4015 761.219 34.2755 761.675 34.0235C762.143 33.7715 762.521 33.3935 762.809 32.8895C763.097 32.3855 763.241 31.7735 763.241 31.0535C763.241 30.3335 763.103 29.7275 762.827 29.2355C762.551 28.7315 762.185 28.3535 761.729 28.1015C761.273 27.8495 760.781 27.7235 760.253 27.7235C759.725 27.7235 759.233 27.8495 758.777 28.1015C758.333 28.3535 757.979 28.7315 757.715 29.2355C757.451 29.7275 757.319 30.3335 757.319 31.0535C757.319 32.1215 757.589 32.9495 758.129 33.5375C758.681 34.1135 759.371 34.4015 760.199 34.4015ZM769.427 22.7015V36.0215H767.375V22.7015H769.427ZM773.165 24.7895C772.793 24.7895 772.481 24.6635 772.229 24.4115C771.977 24.1595 771.851 23.8475 771.851 23.4755C771.851 23.1035 771.977 22.7915 772.229 22.5395C772.481 22.2875 772.793 22.1615 773.165 22.1615C773.525 22.1615 773.831 22.2875 774.083 22.5395C774.335 22.7915 774.461 23.1035 774.461 23.4755C774.461 23.8475 774.335 24.1595 774.083 24.4115C773.831 24.6635 773.525 24.7895 773.165 24.7895ZM774.173 26.1035V36.0215H772.121V26.1035H774.173ZM781.872 25.9415C782.652 25.9415 783.348 26.1035 783.96 26.4275C784.584 26.7515 785.07 27.2315 785.418 27.8675C785.766 28.5035 785.94 29.2715 785.94 30.1715V36.0215H783.906V30.4775C783.906 29.5895 783.684 28.9115 783.24 28.4435C782.796 27.9635 782.19 27.7235 781.422 27.7235C780.654 27.7235 780.042 27.9635 779.586 28.4435C779.142 28.9115 778.92 29.5895 778.92 30.4775V36.0215H776.868V26.1035H778.92V27.2375C779.256 26.8295 779.682 26.5115 780.198 26.2835C780.726 26.0555 781.284 25.9415 781.872 25.9415ZM792.553 25.9415C793.321 25.9415 793.999 26.0975 794.587 26.4095C795.187 26.7095 795.655 27.0875 795.991 27.5435V26.1035H798.061V36.1835C798.061 37.0955 797.869 37.9055 797.485 38.6135C797.101 39.3335 796.543 39.8975 795.811 40.3055C795.091 40.7135 794.227 40.9175 793.219 40.9175C791.875 40.9175 790.759 40.5995 789.871 39.9635C788.983 39.3395 788.479 38.4875 788.359 37.4075H790.393C790.549 37.9235 790.879 38.3375 791.383 38.6495C791.899 38.9735 792.511 39.1355 793.219 39.1355C794.047 39.1355 794.713 38.8835 795.217 38.3795C795.733 37.8755 795.991 37.1435 795.991 36.1835V34.5275C795.643 34.9955 795.169 35.3915 794.569 35.7155C793.981 36.0275 793.309 36.1835 792.553 36.1835C791.689 36.1835 790.897 35.9675 790.177 35.5355C789.469 35.0915 788.905 34.4795 788.485 33.6995C788.077 32.9075 787.873 32.0135 787.873 31.0175C787.873 30.0215 788.077 29.1395 788.485 28.3715C788.905 27.6035 789.469 27.0095 790.177 26.5895C790.897 26.1575 791.689 25.9415 792.553 25.9415ZM795.991 31.0535C795.991 30.3695 795.847 29.7755 795.559 29.2715C795.283 28.7675 794.917 28.3835 794.461 28.1195C794.005 27.8555 793.513 27.7235 792.985 27.7235C792.457 27.7235 791.965 27.8555 791.509 28.1195C791.053 28.3715 790.681 28.7495 790.393 29.2535C790.117 29.7455 789.979 30.3335 789.979 31.0175C789.979 31.7015 790.117 32.3015 790.393 32.8175C790.681 33.3335 791.053 33.7295 791.509 34.0055C791.977 34.2695 792.469 34.4015 792.985 34.4015C793.513 34.4015 794.005 34.2695 794.461 34.0055C794.917 33.7415 795.283 33.3575 795.559 32.8535C795.847 32.3375 795.991 31.7375 795.991 31.0535ZM804.752 25.9415C805.52 25.9415 806.198 26.0975 806.786 26.4095C807.386 26.7095 807.854 27.0875 808.19 27.5435V26.1035H810.26V36.1835C810.26 37.0955 810.068 37.9055 809.684 38.6135C809.3 39.3335 808.742 39.8975 808.01 40.3055C807.29 40.7135 806.426 40.9175 805.418 40.9175C804.074 40.9175 802.958 40.5995 802.07 39.9635C801.182 39.3395 800.678 38.4875 800.558 37.4075H802.592C802.748 37.9235 803.078 38.3375 803.582 38.6495C804.098 38.9735 804.71 39.1355 805.418 39.1355C806.246 39.1355 806.912 38.8835 807.416 38.3795C807.932 37.8755 808.19 37.1435 808.19 36.1835V34.5275C807.842 34.9955 807.368 35.3915 806.768 35.7155C806.18 36.0275 805.508 36.1835 804.752 36.1835C803.888 36.1835 803.096 35.9675 802.376 35.5355C801.668 35.0915 801.104 34.4795 800.684 33.6995C800.276 32.9075 800.072 32.0135 800.072 31.0175C800.072 30.0215 800.276 29.1395 800.684 28.3715C801.104 27.6035 801.668 27.0095 802.376 26.5895C803.096 26.1575 803.888 25.9415 804.752 25.9415ZM808.19 31.0535C808.19 30.3695 808.046 29.7755 807.758 29.2715C807.482 28.7675 807.116 28.3835 806.66 28.1195C806.204 27.8555 805.712 27.7235 805.184 27.7235C804.656 27.7235 804.164 27.8555 803.708 28.1195C803.252 28.3715 802.88 28.7495 802.592 29.2535C802.316 29.7455 802.178 30.3335 802.178 31.0175C802.178 31.7015 802.316 32.3015 802.592 32.8175C802.88 33.3335 803.252 33.7295 803.708 34.0055C804.176 34.2695 804.668 34.4015 805.184 34.4015C805.712 34.4015 806.204 34.2695 806.66 34.0055C807.116 33.7415 807.482 33.3575 807.758 32.8535C808.046 32.3375 808.19 31.7375 808.19 31.0535ZM817.257 36.1835C816.321 36.1835 815.475 35.9735 814.719 35.5535C813.963 35.1215 813.369 34.5215 812.937 33.7535C812.505 32.9735 812.289 32.0735 812.289 31.0535C812.289 30.0455 812.511 29.1515 812.955 28.3715C813.399 27.5915 814.005 26.9915 814.773 26.5715C815.541 26.1515 816.399 25.9415 817.347 25.9415C818.295 25.9415 819.153 26.1515 819.921 26.5715C820.689 26.9915 821.295 27.5915 821.739 28.3715C822.183 29.1515 822.405 30.0455 822.405 31.0535C822.405 32.0615 822.177 32.9555 821.721 33.7355C821.265 34.5155 820.641 35.1215 819.849 35.5535C819.069 35.9735 818.205 36.1835 817.257 36.1835ZM817.257 34.4015C817.785 34.4015 818.277 34.2755 818.733 34.0235C819.201 33.7715 819.579 33.3935 819.867 32.8895C820.155 32.3855 820.299 31.7735 820.299 31.0535C820.299 30.3335 820.161 29.7275 819.885 29.2355C819.609 28.7315 819.243 28.3535 818.787 28.1015C818.331 27.8495 817.839 27.7235 817.311 27.7235C816.783 27.7235 816.291 27.8495 815.835 28.1015C815.391 28.3535 815.037 28.7315 814.773 29.2355C814.509 29.7275 814.377 30.3335 814.377 31.0535C814.377 32.1215 814.647 32.9495 815.187 33.5375C815.739 34.1135 816.429 34.4015 817.257 34.4015ZM829.974 33.2315C831.126 32.2355 832.032 31.4195 832.692 30.7835C833.364 30.1355 833.922 29.4635 834.366 28.7675C834.81 28.0715 835.032 27.3755 835.032 26.6795C835.032 25.9595 834.858 25.3955 834.51 24.9875C834.174 24.5795 833.64 24.3755 832.908 24.3755C832.2 24.3755 831.648 24.6035 831.252 25.0595C830.868 25.5035 830.664 26.1035 830.64 26.8595H828.66C828.696 25.4915 829.104 24.4475 829.884 23.7275C830.676 22.9955 831.678 22.6295 832.89 22.6295C834.198 22.6295 835.218 22.9895 835.95 23.7095C836.694 24.4295 837.066 25.3895 837.066 26.5895C837.066 27.4535 836.844 28.2875 836.4 29.0915C835.968 29.8835 835.446 30.5975 834.834 31.2335C834.234 31.8575 833.466 32.5835 832.53 33.4115L831.72 34.1315H837.426V35.8415H828.678V34.3475L829.974 33.2315ZM839.228 29.2895C839.228 27.2135 839.576 25.5935 840.272 24.4295C840.98 23.2535 842.192 22.6655 843.908 22.6655C845.624 22.6655 846.83 23.2535 847.526 24.4295C848.234 25.5935 848.588 27.2135 848.588 29.2895C848.588 31.3895 848.234 33.0335 847.526 34.2215C846.83 35.3975 845.624 35.9855 843.908 35.9855C842.192 35.9855 840.98 35.3975 840.272 34.2215C839.576 33.0335 839.228 31.3895 839.228 29.2895ZM846.572 29.2895C846.572 28.3175 846.506 27.4955 846.374 26.8235C846.254 26.1515 846.002 25.6055 845.618 25.1855C845.234 24.7535 844.664 24.5375 843.908 24.5375C843.152 24.5375 842.582 24.7535 842.198 25.1855C841.814 25.6055 841.556 26.1515 841.424 26.8235C841.304 27.4955 841.244 28.3175 841.244 29.2895C841.244 30.2975 841.304 31.1435 841.424 31.8275C841.544 32.5115 841.796 33.0635 842.18 33.4835C842.576 33.9035 843.152 34.1135 843.908 34.1135C844.664 34.1135 845.234 33.9035 845.618 33.4835C846.014 33.0635 846.272 32.5115 846.392 31.8275C846.512 31.1435 846.572 30.2975 846.572 29.2895ZM851.894 33.2315C853.046 32.2355 853.952 31.4195 854.612 30.7835C855.284 30.1355 855.842 29.4635 856.286 28.7675C856.73 28.0715 856.952 27.3755 856.952 26.6795C856.952 25.9595 856.778 25.3955 856.43 24.9875C856.094 24.5795 855.56 24.3755 854.828 24.3755C854.12 24.3755 853.568 24.6035 853.172 25.0595C852.788 25.5035 852.584 26.1035 852.56 26.8595H850.58C850.616 25.4915 851.024 24.4475 851.804 23.7275C852.596 22.9955 853.598 22.6295 854.81 22.6295C856.118 22.6295 857.138 22.9895 857.87 23.7095C858.614 24.4295 858.986 25.3895 858.986 26.5895C858.986 27.4535 858.764 28.2875 858.32 29.0915C857.888 29.8835 857.366 30.5975 856.754 31.2335C856.154 31.8575 855.386 32.5835 854.45 33.4115L853.64 34.1315H859.346V35.8415H850.598V34.3475L851.894 33.2315ZM862.282 33.2315C863.434 32.2355 864.34 31.4195 865 30.7835C865.672 30.1355 866.23 29.4635 866.674 28.7675C867.118 28.0715 867.34 27.3755 867.34 26.6795C867.34 25.9595 867.166 25.3955 866.818 24.9875C866.482 24.5795 865.948 24.3755 865.216 24.3755C864.508 24.3755 863.956 24.6035 863.56 25.0595C863.176 25.5035 862.972 26.1035 862.948 26.8595H860.968C861.004 25.4915 861.412 24.4475 862.192 23.7275C862.984 22.9955 863.986 22.6295 865.198 22.6295C866.506 22.6295 867.526 22.9895 868.258 23.7095C869.002 24.4295 869.374 25.3895 869.374 26.5895C869.374 27.4535 869.152 28.2875 868.708 29.0915C868.276 29.8835 867.754 30.5975 867.142 31.2335C866.542 31.8575 865.774 32.5835 864.838 33.4115L864.028 34.1315H869.734V35.8415H860.986V34.3475L862.282 33.2315Z" fill="white"/>
</svg>
