<svg width="643" height="180" viewBox="0 0 643 180" fill="none" xmlns="http://www.w3.org/2000/svg">
<path d="M8.244 24L3.402 18.402V24H1.35V11.49H3.402V17.196L8.262 11.49H10.836L5.4 17.754L10.926 24H8.244ZM17.0426 24.162C16.1066 24.162 15.2606 23.952 14.5046 23.532C13.7486 23.1 13.1546 22.5 12.7226 21.732C12.2906 20.952 12.0746 20.052 12.0746 19.032C12.0746 18.024 12.2966 17.13 12.7406 16.35C13.1846 15.57 13.7906 14.97 14.5586 14.55C15.3266 14.13 16.1846 13.92 17.1326 13.92C18.0806 13.92 18.9386 14.13 19.7066 14.55C20.4746 14.97 21.0806 15.57 21.5246 16.35C21.9686 17.13 22.1906 18.024 22.1906 19.032C22.1906 20.04 21.9626 20.934 21.5066 21.714C21.0506 22.494 20.4266 23.1 19.6346 23.532C18.8546 23.952 17.9906 24.162 17.0426 24.162ZM17.0426 22.38C17.5706 22.38 18.0626 22.254 18.5186 22.002C18.9866 21.75 19.3646 21.372 19.6526 20.868C19.9406 20.364 20.0846 19.752 20.0846 19.032C20.0846 18.312 19.9466 17.706 19.6706 17.214C19.3946 16.71 19.0286 16.332 18.5726 16.08C18.1166 15.828 17.6246 15.702 17.0966 15.702C16.5686 15.702 16.0766 15.828 15.6206 16.08C15.1766 16.332 14.8226 16.71 14.5586 17.214C14.2946 17.706 14.1626 18.312 14.1626 19.032C14.1626 20.1 14.4326 20.928 14.9726 21.516C15.5246 22.092 16.2146 22.38 17.0426 22.38ZM29.2231 13.92C30.0031 13.92 30.6991 14.082 31.3111 14.406C31.9351 14.73 32.4211 15.21 32.7691 15.846C33.1171 16.482 33.2911 17.25 33.2911 18.15V24H31.2571V18.456C31.2571 17.568 31.0351 16.89 30.5911 16.422C30.1471 15.942 29.5411 15.702 28.7731 15.702C28.0051 15.702 27.3931 15.942 26.9371 16.422C26.4931 16.89 26.2711 17.568 26.2711 18.456V24H24.2191V14.082H26.2711V15.216C26.6071 14.808 27.0331 14.49 27.5491 14.262C28.0771 14.034 28.6351 13.92 29.2231 13.92ZM38.3026 15.756V21.246C38.3026 21.618 38.3866 21.888 38.5546 22.056C38.7346 22.212 39.0346 22.29 39.4546 22.29H40.7146V24H39.0946C38.1706 24 37.4626 23.784 36.9706 23.352C36.4786 22.92 36.2326 22.218 36.2326 21.246V15.756H35.0626V14.082H36.2326V11.616H38.3026V14.082H40.7146V15.756H38.3026ZM41.9219 18.996C41.9219 18 42.1259 17.118 42.5339 16.35C42.9539 15.582 43.5179 14.988 44.2259 14.568C44.9459 14.136 45.7379 13.92 46.6019 13.92C47.3819 13.92 48.0599 14.076 48.6359 14.388C49.2239 14.688 49.6919 15.066 50.0399 15.522V14.082H52.1099V24H50.0399V22.524C49.6919 22.992 49.2179 23.382 48.6179 23.694C48.0179 24.006 47.3339 24.162 46.5659 24.162C45.7139 24.162 44.9339 23.946 44.2259 23.514C43.5179 23.07 42.9539 22.458 42.5339 21.678C42.1259 20.886 41.9219 19.992 41.9219 18.996ZM50.0399 19.032C50.0399 18.348 49.8959 17.754 49.6079 17.25C49.3319 16.746 48.9659 16.362 48.5099 16.098C48.0539 15.834 47.5619 15.702 47.0339 15.702C46.5059 15.702 46.0139 15.834 45.5579 16.098C45.1019 16.35 44.7299 16.728 44.4419 17.232C44.1659 17.724 44.0279 18.312 44.0279 18.996C44.0279 19.68 44.1659 20.28 44.4419 20.796C44.7299 21.312 45.1019 21.708 45.5579 21.984C46.0259 22.248 46.5179 22.38 47.0339 22.38C47.5619 22.38 48.0539 22.248 48.5099 21.984C48.9659 21.72 49.3319 21.336 49.6079 20.832C49.8959 20.316 50.0399 19.716 50.0399 19.032ZM58.7291 19.05L63.3011 24H60.5291L56.8571 19.734V24H54.8051V10.68H56.8571V18.42L60.4571 14.082H63.3011L58.7291 19.05Z" fill="#212121"/>
<path d="M2.4 51.728V55.904H6.64V56.832H2.4V61.072H7.12V62H1.28V50.8H7.12V51.728H2.4ZM19.7269 53.104C20.7509 53.104 21.5829 53.4293 22.2229 54.08C22.8735 54.72 23.1989 55.6533 23.1989 56.88V62H22.0949V57.008C22.0949 56.0587 21.8655 55.3333 21.4069 54.832C20.9482 54.3307 20.3242 54.08 19.5349 54.08C18.7135 54.08 18.0575 54.352 17.5669 54.896C17.0762 55.44 16.8309 56.2293 16.8309 57.264V62H15.7269V57.008C15.7269 56.0587 15.4975 55.3333 15.0389 54.832C14.5802 54.3307 13.9509 54.08 13.1509 54.08C12.3295 54.08 11.6735 54.352 11.1829 54.896C10.6922 55.44 10.4469 56.2293 10.4469 57.264V62H9.32688V53.264H10.4469V54.768C10.7242 54.224 11.1189 53.8133 11.6309 53.536C12.1429 53.248 12.7135 53.104 13.3429 53.104C14.1002 53.104 14.7615 53.2853 15.3269 53.648C15.9029 54.0107 16.3189 54.544 16.5749 55.248C16.8095 54.5547 17.2095 54.0267 17.7749 53.664C18.3509 53.2907 19.0015 53.104 19.7269 53.104ZM25.1743 57.616C25.1743 56.72 25.3503 55.936 25.7023 55.264C26.0649 54.5813 26.5609 54.0587 27.1903 53.696C27.8303 53.3227 28.5503 53.136 29.3503 53.136C30.1823 53.136 30.8969 53.328 31.4943 53.712C32.1023 54.096 32.5396 54.5867 32.8063 55.184V53.264H33.9263V62H32.8063V60.064C32.5289 60.6613 32.0863 61.1573 31.4783 61.552C30.8809 61.936 30.1663 62.128 29.3343 62.128C28.5449 62.128 27.8303 61.9413 27.1903 61.568C26.5609 61.1947 26.0649 60.6667 25.7023 59.984C25.3503 59.3013 25.1743 58.512 25.1743 57.616ZM32.8063 57.632C32.8063 56.928 32.6623 56.3093 32.3743 55.776C32.0863 55.2427 31.6916 54.832 31.1903 54.544C30.6996 54.256 30.1556 54.112 29.5583 54.112C28.9396 54.112 28.3849 54.2507 27.8943 54.528C27.4036 54.8053 27.0143 55.2107 26.7263 55.744C26.4489 56.2667 26.3103 56.8907 26.3103 57.616C26.3103 58.3307 26.4489 58.96 26.7263 59.504C27.0143 60.0373 27.4036 60.448 27.8943 60.736C28.3849 61.0133 28.9396 61.152 29.5583 61.152C30.1556 61.152 30.6996 61.008 31.1903 60.72C31.6916 60.432 32.0863 60.0213 32.3743 59.488C32.6623 58.9547 32.8063 58.336 32.8063 57.632ZM37.0431 51.616C36.8191 51.616 36.6271 51.536 36.4671 51.376C36.3071 51.216 36.2271 51.0187 36.2271 50.784C36.2271 50.5493 36.3071 50.3573 36.4671 50.208C36.6271 50.048 36.8191 49.968 37.0431 49.968C37.2671 49.968 37.4591 50.048 37.6191 50.208C37.7791 50.3573 37.8591 50.5493 37.8591 50.784C37.8591 51.0187 37.7791 51.216 37.6191 51.376C37.4591 51.536 37.2671 51.616 37.0431 51.616ZM37.6031 53.264V62H36.4831V53.264H37.6031ZM41.2594 50.16V62H40.1394V50.16H41.2594Z" fill="#949494"/>
<path d="M7.76 95.344H2.672L1.696 98H0.512L4.592 86.96H5.856L9.92 98H8.736L7.76 95.344ZM7.424 94.416L5.216 88.368L3.008 94.416H7.424ZM12.8375 86.16V98H11.7175V86.16H12.8375ZM14.8618 93.616C14.8618 92.72 15.0378 91.936 15.3898 91.264C15.7524 90.5813 16.2484 90.0587 16.8778 89.696C17.5178 89.3227 18.2378 89.136 19.0378 89.136C19.8698 89.136 20.5844 89.328 21.1818 89.712C21.7898 90.096 22.2271 90.5867 22.4938 91.184V89.264H23.6138V98H22.4938V96.064C22.2164 96.6613 21.7738 97.1573 21.1658 97.552C20.5684 97.936 19.8538 98.128 19.0218 98.128C18.2324 98.128 17.5178 97.9413 16.8778 97.568C16.2484 97.1947 15.7524 96.6667 15.3898 95.984C15.0378 95.3013 14.8618 94.512 14.8618 93.616ZM22.4938 93.632C22.4938 92.928 22.3498 92.3093 22.0618 91.776C21.7738 91.2427 21.3791 90.832 20.8778 90.544C20.3871 90.256 19.8431 90.112 19.2458 90.112C18.6271 90.112 18.0724 90.2507 17.5818 90.528C17.0911 90.8053 16.7018 91.2107 16.4138 91.744C16.1364 92.2667 15.9978 92.8907 15.9978 93.616C15.9978 94.3307 16.1364 94.96 16.4138 95.504C16.7018 96.0373 17.0911 96.448 17.5818 96.736C18.0724 97.0133 18.6271 97.152 19.2458 97.152C19.8431 97.152 20.3871 97.008 20.8778 96.72C21.3791 96.432 21.7738 96.0213 22.0618 95.488C22.3498 94.9547 22.4938 94.336 22.4938 93.632ZM36.5706 89.104C37.5946 89.104 38.4266 89.4293 39.0666 90.08C39.7173 90.72 40.0426 91.6533 40.0426 92.88V98H38.9386V93.008C38.9386 92.0587 38.7093 91.3333 38.2506 90.832C37.792 90.3307 37.168 90.08 36.3786 90.08C35.5573 90.08 34.9013 90.352 34.4106 90.896C33.92 91.44 33.6746 92.2293 33.6746 93.264V98H32.5706V93.008C32.5706 92.0587 32.3413 91.3333 31.8826 90.832C31.424 90.3307 30.7946 90.08 29.9946 90.08C29.1733 90.08 28.5173 90.352 28.0266 90.896C27.536 91.44 27.2906 92.2293 27.2906 93.264V98H26.1706V89.264H27.2906V90.768C27.568 90.224 27.9626 89.8133 28.4746 89.536C28.9866 89.248 29.5573 89.104 30.1866 89.104C30.944 89.104 31.6053 89.2853 32.1706 89.648C32.7466 90.0107 33.1626 90.544 33.4186 91.248C33.6533 90.5547 34.0533 90.0267 34.6186 89.664C35.1946 89.2907 35.8453 89.104 36.5706 89.104ZM42.018 93.616C42.018 92.72 42.194 91.936 42.546 91.264C42.9087 90.5813 43.4047 90.0587 44.034 89.696C44.674 89.3227 45.394 89.136 46.194 89.136C47.026 89.136 47.7407 89.328 48.338 89.712C48.946 90.096 49.3833 90.5867 49.65 91.184V89.264H50.77V98H49.65V96.064C49.3727 96.6613 48.93 97.1573 48.322 97.552C47.7247 97.936 47.01 98.128 46.178 98.128C45.3887 98.128 44.674 97.9413 44.034 97.568C43.4047 97.1947 42.9087 96.6667 42.546 95.984C42.194 95.3013 42.018 94.512 42.018 93.616ZM49.65 93.632C49.65 92.928 49.506 92.3093 49.218 91.776C48.93 91.2427 48.5353 90.832 48.034 90.544C47.5433 90.256 46.9993 90.112 46.402 90.112C45.7833 90.112 45.2287 90.2507 44.738 90.528C44.2473 90.8053 43.858 91.2107 43.57 91.744C43.2927 92.2667 43.154 92.8907 43.154 93.616C43.154 94.3307 43.2927 94.96 43.57 95.504C43.858 96.0373 44.2473 96.448 44.738 96.736C45.2287 97.0133 45.7833 97.152 46.402 97.152C46.9993 97.152 47.5433 97.008 48.034 96.72C48.5353 96.432 48.93 96.0213 49.218 95.488C49.506 94.9547 49.65 94.336 49.65 93.632ZM54.7829 90.208V95.632C54.7829 96.1653 54.8842 96.5333 55.0869 96.736C55.2895 96.9387 55.6469 97.04 56.1589 97.04H57.1829V98H55.9829C55.1935 98 54.6069 97.8187 54.2229 97.456C53.8389 97.0827 53.6469 96.4747 53.6469 95.632V90.208H52.4309V89.264H53.6469V87.072H54.7829V89.264H57.1829V90.208H54.7829Z" fill="#949494"/>
<path d="M9.712 134H8.592L2.4 124.592V134H1.28V122.816H2.4L8.592 132.208V122.816H9.712V134ZM16.0728 134.128C15.2514 134.128 14.5101 133.947 13.8488 133.584C13.1981 133.211 12.6808 132.688 12.2968 132.016C11.9234 131.333 11.7368 130.539 11.7368 129.632C11.7368 128.725 11.9288 127.936 12.3128 127.264C12.6968 126.581 13.2194 126.059 13.8808 125.696C14.5421 125.323 15.2834 125.136 16.1048 125.136C16.9261 125.136 17.6674 125.323 18.3288 125.696C19.0008 126.059 19.5234 126.581 19.8968 127.264C20.2808 127.936 20.4728 128.725 20.4728 129.632C20.4728 130.528 20.2808 131.317 19.8968 132C19.5128 132.683 18.9848 133.211 18.3128 133.584C17.6408 133.947 16.8941 134.128 16.0728 134.128ZM16.0728 133.152C16.6488 133.152 17.1821 133.024 17.6728 132.768C18.1634 132.501 18.5581 132.107 18.8568 131.584C19.1661 131.051 19.3208 130.4 19.3208 129.632C19.3208 128.864 19.1714 128.219 18.8728 127.696C18.5741 127.163 18.1794 126.768 17.6888 126.512C17.1981 126.245 16.6648 126.112 16.0888 126.112C15.5128 126.112 14.9794 126.245 14.4888 126.512C13.9981 126.768 13.6034 127.163 13.3048 127.696C13.0168 128.219 12.8728 128.864 12.8728 129.632C12.8728 130.4 13.0168 131.051 13.3048 131.584C13.6034 132.107 13.9928 132.501 14.4728 132.768C14.9634 133.024 15.4968 133.152 16.0728 133.152ZM22.7064 134.08C22.4717 134.08 22.2744 134 22.1144 133.84C21.965 133.68 21.8904 133.483 21.8904 133.248C21.8904 133.013 21.965 132.821 22.1144 132.672C22.2744 132.512 22.4717 132.432 22.7064 132.432C22.9304 132.432 23.117 132.512 23.2664 132.672C23.4264 132.821 23.5064 133.013 23.5064 133.248C23.5064 133.483 23.4264 133.68 23.2664 133.84C23.117 134 22.9304 134.08 22.7064 134.08ZM35.7633 134L32.9953 129.328H30.9313V134H29.8113V122.816H33.1713C34.4193 122.816 35.3633 123.115 36.0033 123.712C36.6539 124.309 36.9792 125.093 36.9792 126.064C36.9792 126.875 36.7446 127.568 36.2753 128.144C35.8166 128.709 35.1339 129.077 34.2273 129.248L37.1073 134H35.7633ZM30.9313 128.416H33.1873C34.0619 128.416 34.7179 128.203 35.1553 127.776C35.6033 127.349 35.8273 126.779 35.8273 126.064C35.8273 125.328 35.6139 124.763 35.1873 124.368C34.7606 123.963 34.0886 123.76 33.1713 123.76H30.9313V128.416ZM47.1059 129.184C47.1059 129.568 47.0952 129.861 47.0739 130.064H39.8259C39.8579 130.725 40.0179 131.291 40.3059 131.76C40.5939 132.229 40.9725 132.587 41.4419 132.832C41.9112 133.067 42.4232 133.184 42.9779 133.184C43.7032 133.184 44.3112 133.008 44.8019 132.656C45.3032 132.304 45.6339 131.829 45.7939 131.232H46.9779C46.7645 132.085 46.3059 132.784 45.6019 133.328C44.9085 133.861 44.0339 134.128 42.9779 134.128C42.1565 134.128 41.4205 133.947 40.7699 133.584C40.1192 133.211 39.6072 132.688 39.2339 132.016C38.8712 131.333 38.6899 130.539 38.6899 129.632C38.6899 128.725 38.8712 127.931 39.2339 127.248C39.5965 126.565 40.1032 126.043 40.7539 125.68C41.4045 125.317 42.1459 125.136 42.9779 125.136C43.8099 125.136 44.5352 125.317 45.1539 125.68C45.7832 126.043 46.2632 126.533 46.5939 127.152C46.9352 127.76 47.1059 128.437 47.1059 129.184ZM45.9699 129.152C45.9805 128.501 45.8472 127.947 45.5699 127.488C45.3032 127.029 44.9352 126.683 44.4659 126.448C43.9965 126.213 43.4845 126.096 42.9299 126.096C42.0979 126.096 41.3885 126.363 40.8019 126.896C40.2152 127.429 39.8899 128.181 39.8259 129.152H45.9699ZM53.875 134L50.275 130.08V134H49.155V122.16H50.275V129.168L53.795 125.264H55.363L51.219 129.616L55.395 134H53.875ZM64.7465 129.184C64.7465 129.568 64.7358 129.861 64.7145 130.064H57.4665C57.4985 130.725 57.6585 131.291 57.9465 131.76C58.2345 132.229 58.6132 132.587 59.0825 132.832C59.5518 133.067 60.0638 133.184 60.6185 133.184C61.3438 133.184 61.9518 133.008 62.4425 132.656C62.9438 132.304 63.2745 131.829 63.4345 131.232H64.6185C64.4052 132.085 63.9465 132.784 63.2425 133.328C62.5492 133.861 61.6745 134.128 60.6185 134.128C59.7972 134.128 59.0612 133.947 58.4105 133.584C57.7598 133.211 57.2478 132.688 56.8745 132.016C56.5118 131.333 56.3305 130.539 56.3305 129.632C56.3305 128.725 56.5118 127.931 56.8745 127.248C57.2372 126.565 57.7438 126.043 58.3945 125.68C59.0452 125.317 59.7865 125.136 60.6185 125.136C61.4505 125.136 62.1758 125.317 62.7945 125.68C63.4238 126.043 63.9038 126.533 64.2345 127.152C64.5758 127.76 64.7465 128.437 64.7465 129.184ZM63.6105 129.152C63.6212 128.501 63.4878 127.947 63.2105 127.488C62.9438 127.029 62.5758 126.683 62.1065 126.448C61.6372 126.213 61.1252 126.096 60.5705 126.096C59.7385 126.096 59.0292 126.363 58.4425 126.896C57.8558 127.429 57.5305 128.181 57.4665 129.152H63.6105ZM70.8916 125.104C71.937 125.104 72.7903 125.429 73.4516 126.08C74.113 126.72 74.4436 127.653 74.4436 128.88V134H73.3396V129.008C73.3396 128.059 73.0996 127.333 72.6196 126.832C72.1503 126.331 71.505 126.08 70.6836 126.08C69.841 126.08 69.169 126.347 68.6676 126.88C68.1663 127.413 67.9156 128.197 67.9156 129.232V134H66.7956V125.264H67.9156V126.752C68.193 126.219 68.593 125.813 69.1156 125.536C69.6383 125.248 70.2303 125.104 70.8916 125.104ZM77.4806 123.616C77.2566 123.616 77.0646 123.536 76.9046 123.376C76.7446 123.216 76.6646 123.019 76.6646 122.784C76.6646 122.549 76.7446 122.357 76.9046 122.208C77.0646 122.048 77.2566 121.968 77.4806 121.968C77.7046 121.968 77.8966 122.048 78.0566 122.208C78.2166 122.357 78.2966 122.549 78.2966 122.784C78.2966 123.019 78.2166 123.216 78.0566 123.376C77.8966 123.536 77.7046 123.616 77.4806 123.616ZM78.0406 125.264V134H76.9206V125.264H78.0406ZM84.6729 125.104C85.7182 125.104 86.5715 125.429 87.2329 126.08C87.8942 126.72 88.2249 127.653 88.2249 128.88V134H87.1209V129.008C87.1209 128.059 86.8809 127.333 86.4009 126.832C85.9315 126.331 85.2862 126.08 84.4649 126.08C83.6222 126.08 82.9502 126.347 82.4489 126.88C81.9475 127.413 81.6969 128.197 81.6969 129.232V134H80.5769V125.264H81.6969V126.752C81.9742 126.219 82.3742 125.813 82.8969 125.536C83.4195 125.248 84.0115 125.104 84.6729 125.104ZM94.3659 125.136C95.1872 125.136 95.9019 125.328 96.5099 125.712C97.1179 126.096 97.5552 126.581 97.8219 127.168V125.264H98.9419V134.224C98.9419 135.024 98.7659 135.733 98.4139 136.352C98.0725 136.971 97.5925 137.445 96.9739 137.776C96.3552 138.117 95.6512 138.288 94.8619 138.288C93.7419 138.288 92.8085 138.021 92.0619 137.488C91.3259 136.955 90.8672 136.229 90.6859 135.312H91.7899C91.9819 135.92 92.3445 136.405 92.8779 136.768C93.4219 137.131 94.0832 137.312 94.8619 137.312C95.4272 137.312 95.9339 137.189 96.3819 136.944C96.8299 136.709 97.1819 136.357 97.4379 135.888C97.6939 135.419 97.8219 134.864 97.8219 134.224V132.064C97.5445 132.661 97.1019 133.157 96.4939 133.552C95.8965 133.936 95.1872 134.128 94.3659 134.128C93.5659 134.128 92.8459 133.941 92.2059 133.568C91.5765 133.195 91.0805 132.667 90.7179 131.984C90.3659 131.301 90.1899 130.512 90.1899 129.616C90.1899 128.72 90.3659 127.936 90.7179 127.264C91.0805 126.581 91.5765 126.059 92.2059 125.696C92.8459 125.323 93.5659 125.136 94.3659 125.136ZM97.8219 129.632C97.8219 128.928 97.6779 128.309 97.3899 127.776C97.1019 127.243 96.7072 126.832 96.2059 126.544C95.7152 126.256 95.1712 126.112 94.5739 126.112C93.9552 126.112 93.4005 126.251 92.9099 126.528C92.4192 126.805 92.0299 127.211 91.7419 127.744C91.4645 128.267 91.3259 128.891 91.3259 129.616C91.3259 130.331 91.4645 130.96 91.7419 131.504C92.0299 132.037 92.4192 132.448 92.9099 132.736C93.4005 133.013 93.9552 133.152 94.5739 133.152C95.1712 133.152 95.7152 133.008 96.2059 132.72C96.7072 132.432 97.1019 132.021 97.3899 131.488C97.6779 130.955 97.8219 130.336 97.8219 129.632Z" fill="#949494"/>
<path d="M260.432 11.49V13.164H257.102V24H255.05V13.164H251.702V11.49H260.432ZM271.6 18.798C271.6 19.17 271.576 19.506 271.528 19.806H263.95C264.01 20.598 264.304 21.234 264.832 21.714C265.36 22.194 266.008 22.434 266.776 22.434C267.88 22.434 268.66 21.972 269.116 21.048H271.33C271.03 21.96 270.484 22.71 269.692 23.298C268.912 23.874 267.94 24.162 266.776 24.162C265.828 24.162 264.976 23.952 264.22 23.532C263.476 23.1 262.888 22.5 262.456 21.732C262.036 20.952 261.826 20.052 261.826 19.032C261.826 18.012 262.03 17.118 262.438 16.35C262.858 15.57 263.44 14.97 264.184 14.55C264.94 14.13 265.804 13.92 266.776 13.92C267.712 13.92 268.546 14.124 269.278 14.532C270.01 14.94 270.58 15.516 270.988 16.26C271.396 16.992 271.6 17.838 271.6 18.798ZM269.458 18.15C269.446 17.394 269.176 16.788 268.648 16.332C268.12 15.876 267.466 15.648 266.686 15.648C265.978 15.648 265.372 15.876 264.868 16.332C264.364 16.776 264.064 17.382 263.968 18.15H269.458ZM278.624 13.92C279.404 13.92 280.1 14.082 280.712 14.406C281.336 14.73 281.822 15.21 282.17 15.846C282.518 16.482 282.692 17.25 282.692 18.15V24H280.658V18.456C280.658 17.568 280.436 16.89 279.992 16.422C279.548 15.942 278.942 15.702 278.174 15.702C277.406 15.702 276.794 15.942 276.338 16.422C275.894 16.89 275.672 17.568 275.672 18.456V24H273.62V14.082H275.672V15.216C276.008 14.808 276.434 14.49 276.95 14.262C277.478 14.034 278.036 13.92 278.624 13.92ZM287.703 15.756V21.246C287.703 21.618 287.787 21.888 287.955 22.056C288.135 22.212 288.435 22.29 288.855 22.29H290.115V24H288.495C287.571 24 286.863 23.784 286.371 23.352C285.879 22.92 285.633 22.218 285.633 21.246V15.756H284.463V14.082H285.633V11.616H287.703V14.082H290.115V15.756H287.703ZM291.322 18.996C291.322 18 291.526 17.118 291.934 16.35C292.354 15.582 292.918 14.988 293.626 14.568C294.346 14.136 295.138 13.92 296.002 13.92C296.782 13.92 297.46 14.076 298.036 14.388C298.624 14.688 299.092 15.066 299.44 15.522V14.082H301.51V24H299.44V22.524C299.092 22.992 298.618 23.382 298.018 23.694C297.418 24.006 296.734 24.162 295.966 24.162C295.114 24.162 294.334 23.946 293.626 23.514C292.918 23.07 292.354 22.458 291.934 21.678C291.526 20.886 291.322 19.992 291.322 18.996ZM299.44 19.032C299.44 18.348 299.296 17.754 299.008 17.25C298.732 16.746 298.366 16.362 297.91 16.098C297.454 15.834 296.962 15.702 296.434 15.702C295.906 15.702 295.414 15.834 294.958 16.098C294.502 16.35 294.13 16.728 293.842 17.232C293.566 17.724 293.428 18.312 293.428 18.996C293.428 19.68 293.566 20.28 293.842 20.796C294.13 21.312 294.502 21.708 294.958 21.984C295.426 22.248 295.918 22.38 296.434 22.38C296.962 22.38 297.454 22.248 297.91 21.984C298.366 21.72 298.732 21.336 299.008 20.832C299.296 20.316 299.44 19.716 299.44 19.032ZM309.209 13.92C309.989 13.92 310.685 14.082 311.297 14.406C311.921 14.73 312.407 15.21 312.755 15.846C313.103 16.482 313.277 17.25 313.277 18.15V24H311.243V18.456C311.243 17.568 311.021 16.89 310.577 16.422C310.133 15.942 309.527 15.702 308.759 15.702C307.991 15.702 307.379 15.942 306.923 16.422C306.479 16.89 306.257 17.568 306.257 18.456V24H304.205V14.082H306.257V15.216C306.593 14.808 307.019 14.49 307.535 14.262C308.063 14.034 308.621 13.92 309.209 13.92ZM319.891 13.92C320.659 13.92 321.337 14.076 321.925 14.388C322.525 14.688 322.993 15.066 323.329 15.522V14.082H325.399V24.162C325.399 25.074 325.207 25.884 324.823 26.592C324.439 27.312 323.881 27.876 323.149 28.284C322.429 28.692 321.565 28.896 320.557 28.896C319.213 28.896 318.097 28.578 317.209 27.942C316.321 27.318 315.817 26.466 315.697 25.386H317.731C317.887 25.902 318.217 26.316 318.721 26.628C319.237 26.952 319.849 27.114 320.557 27.114C321.385 27.114 322.051 26.862 322.555 26.358C323.071 25.854 323.329 25.122 323.329 24.162V22.506C322.981 22.974 322.507 23.37 321.907 23.694C321.319 24.006 320.647 24.162 319.891 24.162C319.027 24.162 318.235 23.946 317.515 23.514C316.807 23.07 316.243 22.458 315.823 21.678C315.415 20.886 315.211 19.992 315.211 18.996C315.211 18 315.415 17.118 315.823 16.35C316.243 15.582 316.807 14.988 317.515 14.568C318.235 14.136 319.027 13.92 319.891 13.92ZM323.329 19.032C323.329 18.348 323.185 17.754 322.897 17.25C322.621 16.746 322.255 16.362 321.799 16.098C321.343 15.834 320.851 15.702 320.323 15.702C319.795 15.702 319.303 15.834 318.847 16.098C318.391 16.35 318.019 16.728 317.731 17.232C317.455 17.724 317.317 18.312 317.317 18.996C317.317 19.68 317.455 20.28 317.731 20.796C318.019 21.312 318.391 21.708 318.847 21.984C319.315 22.248 319.807 22.38 320.323 22.38C320.851 22.38 321.343 22.248 321.799 21.984C322.255 21.72 322.621 21.336 322.897 20.832C323.185 20.316 323.329 19.716 323.329 19.032ZM339.664 24L334.822 18.402V24H332.77V11.49H334.822V17.196L339.682 11.49H342.256L336.82 17.754L342.346 24H339.664ZM343.477 18.996C343.477 18 343.681 17.118 344.089 16.35C344.509 15.582 345.073 14.988 345.781 14.568C346.501 14.136 347.293 13.92 348.157 13.92C348.937 13.92 349.615 14.076 350.191 14.388C350.779 14.688 351.247 15.066 351.595 15.522V14.082H353.665V24H351.595V22.524C351.247 22.992 350.773 23.382 350.173 23.694C349.573 24.006 348.889 24.162 348.121 24.162C347.269 24.162 346.489 23.946 345.781 23.514C345.073 23.07 344.509 22.458 344.089 21.678C343.681 20.886 343.477 19.992 343.477 18.996ZM351.595 19.032C351.595 18.348 351.451 17.754 351.163 17.25C350.887 16.746 350.521 16.362 350.065 16.098C349.609 15.834 349.117 15.702 348.589 15.702C348.061 15.702 347.569 15.834 347.113 16.098C346.657 16.35 346.285 16.728 345.997 17.232C345.721 17.724 345.583 18.312 345.583 18.996C345.583 19.68 345.721 20.28 345.997 20.796C346.285 21.312 346.657 21.708 347.113 21.984C347.581 22.248 348.073 22.38 348.589 22.38C349.117 22.38 349.609 22.248 350.065 21.984C350.521 21.72 350.887 21.336 351.163 20.832C351.451 20.316 351.595 19.716 351.595 19.032ZM368.366 13.92C369.146 13.92 369.842 14.082 370.454 14.406C371.078 14.73 371.564 15.21 371.912 15.846C372.272 16.482 372.452 17.25 372.452 18.15V24H370.418V18.456C370.418 17.568 370.196 16.89 369.752 16.422C369.308 15.942 368.702 15.702 367.934 15.702C367.166 15.702 366.554 15.942 366.098 16.422C365.654 16.89 365.432 17.568 365.432 18.456V24H363.398V18.456C363.398 17.568 363.176 16.89 362.732 16.422C362.288 15.942 361.682 15.702 360.914 15.702C360.146 15.702 359.534 15.942 359.078 16.422C358.634 16.89 358.412 17.568 358.412 18.456V24H356.36V14.082H358.412V15.216C358.748 14.808 359.174 14.49 359.69 14.262C360.206 14.034 360.758 13.92 361.346 13.92C362.138 13.92 362.846 14.088 363.47 14.424C364.094 14.76 364.574 15.246 364.91 15.882C365.21 15.282 365.678 14.808 366.314 14.46C366.95 14.1 367.634 13.92 368.366 13.92ZM376.107 12.768C375.735 12.768 375.423 12.642 375.171 12.39C374.919 12.138 374.793 11.826 374.793 11.454C374.793 11.082 374.919 10.77 375.171 10.518C375.423 10.266 375.735 10.14 376.107 10.14C376.467 10.14 376.773 10.266 377.025 10.518C377.277 10.77 377.403 11.082 377.403 11.454C377.403 11.826 377.277 12.138 377.025 12.39C376.773 12.642 376.467 12.768 376.107 12.768ZM377.115 14.082V24H375.063V14.082H377.115Z" fill="#212121"/>
<path d="M253.352 50.816V57.856C253.352 58.9653 253.613 59.7867 254.136 60.32C254.669 60.8533 255.395 61.12 256.312 61.12C257.229 61.12 257.944 60.8587 258.456 60.336C258.979 59.8027 259.24 58.976 259.24 57.856V50.816H260.36V57.84C260.36 59.2587 259.981 60.3253 259.224 61.04C258.477 61.7547 257.501 62.112 256.296 62.112C255.091 62.112 254.109 61.7547 253.352 61.04C252.605 60.3253 252.232 59.2587 252.232 57.84V50.816H253.352ZM273.258 53.104C274.282 53.104 275.114 53.4293 275.754 54.08C276.405 54.72 276.73 55.6533 276.73 56.88V62H275.626V57.008C275.626 56.0587 275.397 55.3333 274.938 54.832C274.479 54.3307 273.855 54.08 273.066 54.08C272.245 54.08 271.589 54.352 271.098 54.896C270.607 55.44 270.362 56.2293 270.362 57.264V62H269.258V57.008C269.258 56.0587 269.029 55.3333 268.57 54.832C268.111 54.3307 267.482 54.08 266.682 54.08C265.861 54.08 265.205 54.352 264.714 54.896C264.223 55.44 263.978 56.2293 263.978 57.264V62H262.858V53.264H263.978V54.768C264.255 54.224 264.65 53.8133 265.162 53.536C265.674 53.248 266.245 53.104 266.874 53.104C267.631 53.104 268.293 53.2853 268.858 53.648C269.434 54.0107 269.85 54.544 270.106 55.248C270.341 54.5547 270.741 54.0267 271.306 53.664C271.882 53.2907 272.533 53.104 273.258 53.104ZM286.786 53.264V62H285.666V60.464C285.41 61.008 285.015 61.424 284.482 61.712C283.948 62 283.351 62.144 282.69 62.144C281.644 62.144 280.791 61.824 280.13 61.184C279.468 60.5333 279.138 59.5947 279.138 58.368V53.264H280.242V58.24C280.242 59.1893 280.476 59.9147 280.946 60.416C281.426 60.9173 282.076 61.168 282.898 61.168C283.74 61.168 284.412 60.9013 284.914 60.368C285.415 59.8347 285.666 59.0507 285.666 58.016V53.264H286.786ZM299.743 53.104C300.767 53.104 301.599 53.4293 302.239 54.08C302.889 54.72 303.215 55.6533 303.215 56.88V62H302.111V57.008C302.111 56.0587 301.881 55.3333 301.423 54.832C300.964 54.3307 300.34 54.08 299.551 54.08C298.729 54.08 298.073 54.352 297.583 54.896C297.092 55.44 296.847 56.2293 296.847 57.264V62H295.743V57.008C295.743 56.0587 295.513 55.3333 295.055 54.832C294.596 54.3307 293.967 54.08 293.167 54.08C292.345 54.08 291.689 54.352 291.199 54.896C290.708 55.44 290.463 56.2293 290.463 57.264V62H289.343V53.264H290.463V54.768C290.74 54.224 291.135 53.8133 291.647 53.536C292.159 53.248 292.729 53.104 293.359 53.104C294.116 53.104 294.777 53.2853 295.343 53.648C295.919 54.0107 296.335 54.544 296.591 55.248C296.825 54.5547 297.225 54.0267 297.791 53.664C298.367 53.2907 299.017 53.104 299.743 53.104Z" fill="#949494"/>
<path d="M539.404 15.09C539.08 14.466 538.63 13.998 538.054 13.686C537.478 13.362 536.812 13.2 536.056 13.2C535.228 13.2 534.49 13.386 533.842 13.758C533.194 14.13 532.684 14.658 532.312 15.342C531.952 16.026 531.772 16.818 531.772 17.718C531.772 18.618 531.952 19.416 532.312 20.112C532.684 20.796 533.194 21.324 533.842 21.696C534.49 22.068 535.228 22.254 536.056 22.254C537.172 22.254 538.078 21.942 538.774 21.318C539.47 20.694 539.896 19.848 540.052 18.78H535.354V17.142H542.248V18.744C542.116 19.716 541.768 20.61 541.204 21.426C540.652 22.242 539.926 22.896 539.026 23.388C538.138 23.868 537.148 24.108 536.056 24.108C534.88 24.108 533.806 23.838 532.834 23.298C531.862 22.746 531.088 21.984 530.512 21.012C529.948 20.04 529.666 18.942 529.666 17.718C529.666 16.494 529.948 15.396 530.512 14.424C531.088 13.452 531.862 12.696 532.834 12.156C533.818 11.604 534.892 11.328 536.056 11.328C537.388 11.328 538.57 11.658 539.602 12.318C540.646 12.966 541.402 13.89 541.87 15.09H539.404ZM543.588 18.996C543.588 18 543.792 17.118 544.2 16.35C544.62 15.582 545.184 14.988 545.892 14.568C546.612 14.136 547.404 13.92 548.268 13.92C549.048 13.92 549.726 14.076 550.302 14.388C550.89 14.688 551.358 15.066 551.706 15.522V14.082H553.776V24H551.706V22.524C551.358 22.992 550.884 23.382 550.284 23.694C549.684 24.006 549 24.162 548.232 24.162C547.38 24.162 546.6 23.946 545.892 23.514C545.184 23.07 544.62 22.458 544.2 21.678C543.792 20.886 543.588 19.992 543.588 18.996ZM551.706 19.032C551.706 18.348 551.562 17.754 551.274 17.25C550.998 16.746 550.632 16.362 550.176 16.098C549.72 15.834 549.228 15.702 548.7 15.702C548.172 15.702 547.68 15.834 547.224 16.098C546.768 16.35 546.396 16.728 546.108 17.232C545.832 17.724 545.694 18.312 545.694 18.996C545.694 19.68 545.832 20.28 546.108 20.796C546.396 21.312 546.768 21.708 547.224 21.984C547.692 22.248 548.184 22.38 548.7 22.38C549.228 22.38 549.72 22.248 550.176 21.984C550.632 21.72 550.998 21.336 551.274 20.832C551.562 20.316 551.706 19.716 551.706 19.032ZM558.523 10.68V24H556.471V10.68H558.523ZM570.307 18.798C570.307 19.17 570.283 19.506 570.235 19.806H562.657C562.717 20.598 563.011 21.234 563.539 21.714C564.067 22.194 564.715 22.434 565.483 22.434C566.587 22.434 567.367 21.972 567.823 21.048H570.037C569.737 21.96 569.191 22.71 568.399 23.298C567.619 23.874 566.647 24.162 565.483 24.162C564.535 24.162 563.683 23.952 562.927 23.532C562.183 23.1 561.595 22.5 561.163 21.732C560.743 20.952 560.533 20.052 560.533 19.032C560.533 18.012 560.737 17.118 561.145 16.35C561.565 15.57 562.147 14.97 562.891 14.55C563.647 14.13 564.511 13.92 565.483 13.92C566.419 13.92 567.253 14.124 567.985 14.532C568.717 14.94 569.287 15.516 569.695 16.26C570.103 16.992 570.307 17.838 570.307 18.798ZM568.165 18.15C568.153 17.394 567.883 16.788 567.355 16.332C566.827 15.876 566.173 15.648 565.393 15.648C564.685 15.648 564.079 15.876 563.575 16.332C563.071 16.776 562.771 17.382 562.675 18.15H568.165ZM574.379 15.522C574.679 15.018 575.075 14.628 575.567 14.352C576.071 14.064 576.665 13.92 577.349 13.92V16.044H576.827C576.023 16.044 575.411 16.248 574.991 16.656C574.583 17.064 574.379 17.772 574.379 18.78V24H572.327V14.082H574.379V15.522ZM588.163 14.082L582.079 28.662H579.955L581.971 23.838L578.065 14.082H580.351L583.141 21.642L586.039 14.082H588.163Z" fill="#212121"/>
<path d="M536.248 62L531.4 56.832V62H530.28V50.816H531.4V56.048L536.248 50.816H537.672L532.44 56.4L537.72 62H536.248ZM547.278 57.184C547.278 57.568 547.267 57.8613 547.246 58.064H539.998C540.03 58.7253 540.19 59.2907 540.478 59.76C540.766 60.2293 541.144 60.5867 541.614 60.832C542.083 61.0667 542.595 61.184 543.15 61.184C543.875 61.184 544.483 61.008 544.974 60.656C545.475 60.304 545.806 59.8293 545.966 59.232H547.15C546.936 60.0853 546.478 60.784 545.774 61.328C545.08 61.8613 544.206 62.128 543.15 62.128C542.328 62.128 541.592 61.9467 540.942 61.584C540.291 61.2107 539.779 60.688 539.406 60.016C539.043 59.3333 538.862 58.5387 538.862 57.632C538.862 56.7253 539.043 55.9307 539.406 55.248C539.768 54.5653 540.275 54.0427 540.926 53.68C541.576 53.3173 542.318 53.136 543.15 53.136C543.982 53.136 544.707 53.3173 545.326 53.68C545.955 54.0427 546.435 54.5333 546.766 55.152C547.107 55.76 547.278 56.4373 547.278 57.184ZM546.142 57.152C546.152 56.5013 546.019 55.9467 545.742 55.488C545.475 55.0293 545.107 54.6827 544.638 54.448C544.168 54.2133 543.656 54.096 543.102 54.096C542.27 54.096 541.56 54.3627 540.974 54.896C540.387 55.4293 540.062 56.1813 539.998 57.152H546.142ZM552.991 53.136C553.812 53.136 554.527 53.328 555.135 53.712C555.743 54.096 556.18 54.5813 556.447 55.168V53.264H557.567V62.224C557.567 63.024 557.391 63.7333 557.039 64.352C556.698 64.9707 556.218 65.4453 555.599 65.776C554.98 66.1173 554.276 66.288 553.487 66.288C552.367 66.288 551.434 66.0213 550.687 65.488C549.951 64.9547 549.492 64.2293 549.311 63.312H550.415C550.607 63.92 550.97 64.4053 551.503 64.768C552.047 65.1307 552.708 65.312 553.487 65.312C554.052 65.312 554.559 65.1893 555.007 64.944C555.455 64.7093 555.807 64.3573 556.063 63.888C556.319 63.4187 556.447 62.864 556.447 62.224V60.064C556.17 60.6613 555.727 61.1573 555.119 61.552C554.522 61.936 553.812 62.128 552.991 62.128C552.191 62.128 551.471 61.9413 550.831 61.568C550.202 61.1947 549.706 60.6667 549.343 59.984C548.991 59.3013 548.815 58.512 548.815 57.616C548.815 56.72 548.991 55.936 549.343 55.264C549.706 54.5813 550.202 54.0587 550.831 53.696C551.471 53.3227 552.191 53.136 552.991 53.136ZM556.447 57.632C556.447 56.928 556.303 56.3093 556.015 55.776C555.727 55.2427 555.332 54.832 554.831 54.544C554.34 54.256 553.796 54.112 553.199 54.112C552.58 54.112 552.026 54.2507 551.535 54.528C551.044 54.8053 550.655 55.2107 550.367 55.744C550.09 56.2667 549.951 56.8907 549.951 57.616C549.951 58.3307 550.09 58.96 550.367 59.504C550.655 60.0373 551.044 60.448 551.535 60.736C552.026 61.0133 552.58 61.152 553.199 61.152C553.796 61.152 554.34 61.008 554.831 60.72C555.332 60.432 555.727 60.0213 556.015 59.488C556.303 58.9547 556.447 58.336 556.447 57.632ZM560.684 51.616C560.46 51.616 560.268 51.536 560.108 51.376C559.948 51.216 559.868 51.0187 559.868 50.784C559.868 50.5493 559.948 50.3573 560.108 50.208C560.268 50.048 560.46 49.968 560.684 49.968C560.908 49.968 561.1 50.048 561.26 50.208C561.42 50.3573 561.5 50.5493 561.5 50.784C561.5 51.0187 561.42 51.216 561.26 51.376C561.1 51.536 560.908 51.616 560.684 51.616ZM561.244 53.264V62H560.124V53.264H561.244ZM563.268 57.616C563.268 56.72 563.444 55.936 563.796 55.264C564.159 54.5813 564.655 54.0587 565.284 53.696C565.924 53.3227 566.644 53.136 567.444 53.136C568.276 53.136 568.991 53.328 569.588 53.712C570.196 54.096 570.633 54.5867 570.9 55.184V53.264H572.02V62H570.9V60.064C570.623 60.6613 570.18 61.1573 569.572 61.552C568.975 61.936 568.26 62.128 567.428 62.128C566.639 62.128 565.924 61.9413 565.284 61.568C564.655 61.1947 564.159 60.6667 563.796 59.984C563.444 59.3013 563.268 58.512 563.268 57.616ZM570.9 57.632C570.9 56.928 570.756 56.3093 570.468 55.776C570.18 55.2427 569.785 54.832 569.284 54.544C568.793 54.256 568.249 54.112 567.652 54.112C567.033 54.112 566.479 54.2507 565.988 54.528C565.497 54.8053 565.108 55.2107 564.82 55.744C564.543 56.2667 564.404 56.8907 564.404 57.616C564.404 58.3307 564.543 58.96 564.82 59.504C565.108 60.0373 565.497 60.448 565.988 60.736C566.479 61.0133 567.033 61.152 567.652 61.152C568.249 61.152 568.793 61.008 569.284 60.72C569.785 60.432 570.18 60.0213 570.468 59.488C570.756 58.9547 570.9 58.336 570.9 57.632ZM576.033 54.208V59.632C576.033 60.1653 576.134 60.5333 576.337 60.736C576.54 60.9387 576.897 61.04 577.409 61.04H578.433V62H577.233C576.444 62 575.857 61.8187 575.473 61.456C575.089 61.0827 574.897 60.4747 574.897 59.632V54.208H573.681V53.264H574.897V51.072H576.033V53.264H578.433V54.208H576.033ZM579.768 57.616C579.768 56.72 579.944 55.936 580.296 55.264C580.659 54.5813 581.155 54.0587 581.784 53.696C582.424 53.3227 583.144 53.136 583.944 53.136C584.776 53.136 585.491 53.328 586.088 53.712C586.696 54.096 587.133 54.5867 587.4 55.184V53.264H588.52V62H587.4V60.064C587.123 60.6613 586.68 61.1573 586.072 61.552C585.475 61.936 584.76 62.128 583.928 62.128C583.139 62.128 582.424 61.9413 581.784 61.568C581.155 61.1947 580.659 60.6667 580.296 59.984C579.944 59.3013 579.768 58.512 579.768 57.616ZM587.4 57.632C587.4 56.928 587.256 56.3093 586.968 55.776C586.68 55.2427 586.285 54.832 585.784 54.544C585.293 54.256 584.749 54.112 584.152 54.112C583.533 54.112 582.979 54.2507 582.488 54.528C581.997 54.8053 581.608 55.2107 581.32 55.744C581.043 56.2667 580.904 56.8907 580.904 57.616C580.904 58.3307 581.043 58.96 581.32 59.504C581.608 60.0373 581.997 60.448 582.488 60.736C582.979 61.0133 583.533 61.152 584.152 61.152C584.749 61.152 585.293 61.008 585.784 60.72C586.285 60.432 586.68 60.0213 586.968 59.488C587.256 58.9547 587.4 58.336 587.4 57.632ZM595.173 53.104C596.218 53.104 597.072 53.4293 597.733 54.08C598.394 54.72 598.725 55.6533 598.725 56.88V62H597.621V57.008C597.621 56.0587 597.381 55.3333 596.901 54.832C596.432 54.3307 595.786 54.08 594.965 54.08C594.122 54.08 593.45 54.3467 592.949 54.88C592.448 55.4133 592.197 56.1973 592.197 57.232V62H591.077V53.264H592.197V54.752C592.474 54.2187 592.874 53.8133 593.397 53.536C593.92 53.248 594.512 53.104 595.173 53.104ZM605.129 61.12C607.091 59.648 608.606 58.3307 609.673 57.168C610.75 55.9947 611.289 54.848 611.289 53.728C611.289 52.992 611.102 52.4053 610.729 51.968C610.366 51.52 609.769 51.296 608.937 51.296C608.126 51.296 607.497 51.552 607.049 52.064C606.611 52.5653 606.366 53.2373 606.312 54.08H605.225C605.289 52.896 605.651 51.9787 606.312 51.328C606.985 50.6667 607.859 50.336 608.937 50.336C609.971 50.336 610.809 50.6293 611.449 51.216C612.089 51.792 612.409 52.6133 612.409 53.68C612.409 54.9707 611.87 56.224 610.793 57.44C609.726 58.6453 608.409 59.824 606.841 60.976H612.76V61.92H605.129V61.12ZM614.509 56.16C614.509 54.3253 614.791 52.9013 615.357 51.888C615.922 50.8747 616.935 50.368 618.397 50.368C619.858 50.368 620.871 50.8747 621.437 51.888C622.002 52.9013 622.285 54.3253 622.285 56.16C622.285 58.0267 622.002 59.472 621.437 60.496C620.871 61.52 619.858 62.032 618.397 62.032C616.925 62.032 615.906 61.52 615.341 60.496C614.786 59.472 614.509 58.0267 614.509 56.16ZM621.181 56.16C621.181 55.168 621.111 54.3307 620.973 53.648C620.834 52.9653 620.562 52.416 620.157 52C619.751 51.584 619.165 51.376 618.397 51.376C617.629 51.376 617.042 51.584 616.637 52C616.231 52.416 615.959 52.9653 615.821 53.648C615.682 54.3307 615.613 55.168 615.613 56.16C615.613 57.184 615.682 58.0427 615.821 58.736C615.959 59.4187 616.231 59.968 616.637 60.384C617.042 60.8 617.629 61.008 618.397 61.008C619.165 61.008 619.751 60.8 620.157 60.384C620.562 59.968 620.834 59.4187 620.973 58.736C621.111 58.0427 621.181 57.184 621.181 56.16ZM623.824 51.536V50.528H626.544V62H625.408V51.536H623.824ZM631.264 56.048C630.603 55.8347 630.096 55.4987 629.744 55.04C629.403 54.5813 629.232 54.0267 629.232 53.376C629.232 52.8 629.376 52.288 629.664 51.84C629.963 51.3813 630.395 51.024 630.96 50.768C631.525 50.5013 632.203 50.368 632.992 50.368C633.781 50.368 634.459 50.5013 635.024 50.768C635.589 51.024 636.016 51.3813 636.304 51.84C636.603 52.288 636.752 52.8 636.752 53.376C636.752 54.016 636.576 54.5707 636.224 55.04C635.883 55.5093 635.381 55.8453 634.72 56.048C635.445 56.2293 636.016 56.576 636.432 57.088C636.848 57.6 637.056 58.224 637.056 58.96C637.056 59.6427 636.885 60.24 636.544 60.752C636.213 61.2533 635.739 61.6427 635.12 61.92C634.512 62.1973 633.803 62.336 632.992 62.336C632.181 62.336 631.467 62.1973 630.848 61.92C630.24 61.6427 629.765 61.2533 629.424 60.752C629.093 60.24 628.928 59.6427 628.928 58.96C628.928 58.224 629.136 57.6 629.552 57.088C629.968 56.576 630.539 56.2293 631.264 56.048ZM635.664 53.504C635.664 52.8 635.424 52.256 634.944 51.872C634.464 51.488 633.813 51.296 632.992 51.296C632.171 51.296 631.52 51.488 631.04 51.872C630.56 52.2453 630.32 52.7893 630.32 53.504C630.32 54.1653 630.565 54.6933 631.056 55.088C631.547 55.4827 632.192 55.68 632.992 55.68C633.792 55.68 634.437 55.4827 634.928 55.088C635.419 54.6933 635.664 54.1653 635.664 53.504ZM632.992 56.544C632.117 56.544 631.403 56.7413 630.848 57.136C630.293 57.5307 630.016 58.128 630.016 58.928C630.016 59.696 630.283 60.2987 630.816 60.736C631.349 61.1733 632.075 61.392 632.992 61.392C633.899 61.392 634.619 61.1733 635.152 60.736C635.685 60.288 635.952 59.6853 635.952 58.928C635.952 58.1387 635.675 57.5467 635.12 57.152C634.576 56.7467 633.867 56.544 632.992 56.544Z" fill="#949494"/>
<path d="M536.248 98L531.4 92.832V98H530.28V86.816H531.4V92.048L536.248 86.816H537.672L532.44 92.4L537.72 98H536.248ZM547.278 93.184C547.278 93.568 547.267 93.8613 547.246 94.064H539.998C540.03 94.7253 540.19 95.2907 540.478 95.76C540.766 96.2293 541.144 96.5867 541.614 96.832C542.083 97.0667 542.595 97.184 543.15 97.184C543.875 97.184 544.483 97.008 544.974 96.656C545.475 96.304 545.806 95.8293 545.966 95.232H547.15C546.936 96.0853 546.478 96.784 545.774 97.328C545.08 97.8613 544.206 98.128 543.15 98.128C542.328 98.128 541.592 97.9467 540.942 97.584C540.291 97.2107 539.779 96.688 539.406 96.016C539.043 95.3333 538.862 94.5387 538.862 93.632C538.862 92.7253 539.043 91.9307 539.406 91.248C539.768 90.5653 540.275 90.0427 540.926 89.68C541.576 89.3173 542.318 89.136 543.15 89.136C543.982 89.136 544.707 89.3173 545.326 89.68C545.955 90.0427 546.435 90.5333 546.766 91.152C547.107 91.76 547.278 92.4373 547.278 93.184ZM546.142 93.152C546.152 92.5013 546.019 91.9467 545.742 91.488C545.475 91.0293 545.107 90.6827 544.638 90.448C544.168 90.2133 543.656 90.096 543.102 90.096C542.27 90.096 541.56 90.3627 540.974 90.896C540.387 91.4293 540.062 92.1813 539.998 93.152H546.142ZM552.991 89.136C553.812 89.136 554.527 89.328 555.135 89.712C555.743 90.096 556.18 90.5813 556.447 91.168V89.264H557.567V98.224C557.567 99.024 557.391 99.7333 557.039 100.352C556.698 100.971 556.218 101.445 555.599 101.776C554.98 102.117 554.276 102.288 553.487 102.288C552.367 102.288 551.434 102.021 550.687 101.488C549.951 100.955 549.492 100.229 549.311 99.312H550.415C550.607 99.92 550.97 100.405 551.503 100.768C552.047 101.131 552.708 101.312 553.487 101.312C554.052 101.312 554.559 101.189 555.007 100.944C555.455 100.709 555.807 100.357 556.063 99.888C556.319 99.4187 556.447 98.864 556.447 98.224V96.064C556.17 96.6613 555.727 97.1573 555.119 97.552C554.522 97.936 553.812 98.128 552.991 98.128C552.191 98.128 551.471 97.9413 550.831 97.568C550.202 97.1947 549.706 96.6667 549.343 95.984C548.991 95.3013 548.815 94.512 548.815 93.616C548.815 92.72 548.991 91.936 549.343 91.264C549.706 90.5813 550.202 90.0587 550.831 89.696C551.471 89.3227 552.191 89.136 552.991 89.136ZM556.447 93.632C556.447 92.928 556.303 92.3093 556.015 91.776C555.727 91.2427 555.332 90.832 554.831 90.544C554.34 90.256 553.796 90.112 553.199 90.112C552.58 90.112 552.026 90.2507 551.535 90.528C551.044 90.8053 550.655 91.2107 550.367 91.744C550.09 92.2667 549.951 92.8907 549.951 93.616C549.951 94.3307 550.09 94.96 550.367 95.504C550.655 96.0373 551.044 96.448 551.535 96.736C552.026 97.0133 552.58 97.152 553.199 97.152C553.796 97.152 554.34 97.008 554.831 96.72C555.332 96.432 555.727 96.0213 556.015 95.488C556.303 94.9547 556.447 94.336 556.447 93.632ZM560.684 87.616C560.46 87.616 560.268 87.536 560.108 87.376C559.948 87.216 559.868 87.0187 559.868 86.784C559.868 86.5493 559.948 86.3573 560.108 86.208C560.268 86.048 560.46 85.968 560.684 85.968C560.908 85.968 561.1 86.048 561.26 86.208C561.42 86.3573 561.5 86.5493 561.5 86.784C561.5 87.0187 561.42 87.216 561.26 87.376C561.1 87.536 560.908 87.616 560.684 87.616ZM561.244 89.264V98H560.124V89.264H561.244ZM563.268 93.616C563.268 92.72 563.444 91.936 563.796 91.264C564.159 90.5813 564.655 90.0587 565.284 89.696C565.924 89.3227 566.644 89.136 567.444 89.136C568.276 89.136 568.991 89.328 569.588 89.712C570.196 90.096 570.633 90.5867 570.9 91.184V89.264H572.02V98H570.9V96.064C570.623 96.6613 570.18 97.1573 569.572 97.552C568.975 97.936 568.26 98.128 567.428 98.128C566.639 98.128 565.924 97.9413 565.284 97.568C564.655 97.1947 564.159 96.6667 563.796 95.984C563.444 95.3013 563.268 94.512 563.268 93.616ZM570.9 93.632C570.9 92.928 570.756 92.3093 570.468 91.776C570.18 91.2427 569.785 90.832 569.284 90.544C568.793 90.256 568.249 90.112 567.652 90.112C567.033 90.112 566.479 90.2507 565.988 90.528C565.497 90.8053 565.108 91.2107 564.82 91.744C564.543 92.2667 564.404 92.8907 564.404 93.616C564.404 94.3307 564.543 94.96 564.82 95.504C565.108 96.0373 565.497 96.448 565.988 96.736C566.479 97.0133 567.033 97.152 567.652 97.152C568.249 97.152 568.793 97.008 569.284 96.72C569.785 96.432 570.18 96.0213 570.468 95.488C570.756 94.9547 570.9 94.336 570.9 93.632ZM576.033 90.208V95.632C576.033 96.1653 576.134 96.5333 576.337 96.736C576.54 96.9387 576.897 97.04 577.409 97.04H578.433V98H577.233C576.444 98 575.857 97.8187 575.473 97.456C575.089 97.0827 574.897 96.4747 574.897 95.632V90.208H573.681V89.264H574.897V87.072H576.033V89.264H578.433V90.208H576.033ZM579.768 93.616C579.768 92.72 579.944 91.936 580.296 91.264C580.659 90.5813 581.155 90.0587 581.784 89.696C582.424 89.3227 583.144 89.136 583.944 89.136C584.776 89.136 585.491 89.328 586.088 89.712C586.696 90.096 587.133 90.5867 587.4 91.184V89.264H588.52V98H587.4V96.064C587.123 96.6613 586.68 97.1573 586.072 97.552C585.475 97.936 584.76 98.128 583.928 98.128C583.139 98.128 582.424 97.9413 581.784 97.568C581.155 97.1947 580.659 96.6667 580.296 95.984C579.944 95.3013 579.768 94.512 579.768 93.616ZM587.4 93.632C587.4 92.928 587.256 92.3093 586.968 91.776C586.68 91.2427 586.285 90.832 585.784 90.544C585.293 90.256 584.749 90.112 584.152 90.112C583.533 90.112 582.979 90.2507 582.488 90.528C581.997 90.8053 581.608 91.2107 581.32 91.744C581.043 92.2667 580.904 92.8907 580.904 93.616C580.904 94.3307 581.043 94.96 581.32 95.504C581.608 96.0373 581.997 96.448 582.488 96.736C582.979 97.0133 583.533 97.152 584.152 97.152C584.749 97.152 585.293 97.008 585.784 96.72C586.285 96.432 586.68 96.0213 586.968 95.488C587.256 94.9547 587.4 94.336 587.4 93.632ZM595.173 89.104C596.218 89.104 597.072 89.4293 597.733 90.08C598.394 90.72 598.725 91.6533 598.725 92.88V98H597.621V93.008C597.621 92.0587 597.381 91.3333 596.901 90.832C596.432 90.3307 595.786 90.08 594.965 90.08C594.122 90.08 593.45 90.3467 592.949 90.88C592.448 91.4133 592.197 92.1973 592.197 93.232V98H591.077V89.264H592.197V90.752C592.474 90.2187 592.874 89.8133 593.397 89.536C593.92 89.248 594.512 89.104 595.173 89.104ZM605.129 97.12C607.091 95.648 608.606 94.3307 609.673 93.168C610.75 91.9947 611.289 90.848 611.289 89.728C611.289 88.992 611.102 88.4053 610.729 87.968C610.366 87.52 609.769 87.296 608.937 87.296C608.126 87.296 607.497 87.552 607.049 88.064C606.611 88.5653 606.366 89.2373 606.312 90.08H605.225C605.289 88.896 605.651 87.9787 606.312 87.328C606.985 86.6667 607.859 86.336 608.937 86.336C609.971 86.336 610.809 86.6293 611.449 87.216C612.089 87.792 612.409 88.6133 612.409 89.68C612.409 90.9707 611.87 92.224 610.793 93.44C609.726 94.6453 608.409 95.824 606.841 96.976H612.76V97.92H605.129V97.12ZM614.509 92.16C614.509 90.3253 614.791 88.9013 615.357 87.888C615.922 86.8747 616.935 86.368 618.397 86.368C619.858 86.368 620.871 86.8747 621.437 87.888C622.002 88.9013 622.285 90.3253 622.285 92.16C622.285 94.0267 622.002 95.472 621.437 96.496C620.871 97.52 619.858 98.032 618.397 98.032C616.925 98.032 615.906 97.52 615.341 96.496C614.786 95.472 614.509 94.0267 614.509 92.16ZM621.181 92.16C621.181 91.168 621.111 90.3307 620.973 89.648C620.834 88.9653 620.562 88.416 620.157 88C619.751 87.584 619.165 87.376 618.397 87.376C617.629 87.376 617.042 87.584 616.637 88C616.231 88.416 615.959 88.9653 615.821 89.648C615.682 90.3307 615.613 91.168 615.613 92.16C615.613 93.184 615.682 94.0427 615.821 94.736C615.959 95.4187 616.231 95.968 616.637 96.384C617.042 96.8 617.629 97.008 618.397 97.008C619.165 97.008 619.751 96.8 620.157 96.384C620.562 95.968 620.834 95.4187 620.973 94.736C621.111 94.0427 621.181 93.184 621.181 92.16ZM623.824 87.536V86.528H626.544V98H625.408V87.536H623.824ZM630.528 94.944C630.645 95.6373 630.912 96.1707 631.328 96.544C631.744 96.9173 632.315 97.104 633.04 97.104C634.043 97.104 634.784 96.7147 635.264 95.936C635.755 95.1467 635.979 93.8453 635.936 92.032C635.733 92.6187 635.344 93.0827 634.768 93.424C634.203 93.7547 633.552 93.92 632.816 93.92C631.696 93.92 630.795 93.584 630.112 92.912C629.44 92.24 629.104 91.3067 629.104 90.112C629.104 89.3973 629.243 88.752 629.52 88.176C629.797 87.6 630.219 87.1467 630.784 86.816C631.349 86.4853 632.043 86.32 632.864 86.32C634.379 86.32 635.435 86.816 636.032 87.808C636.629 88.7893 636.928 90.2027 636.928 92.048C636.928 94.0427 636.629 95.5413 636.032 96.544C635.445 97.5467 634.432 98.048 632.992 98.048C631.936 98.048 631.115 97.7653 630.528 97.2C629.941 96.624 629.595 95.872 629.488 94.944H630.528ZM632.992 92.96C633.493 92.96 633.952 92.8587 634.368 92.656C634.795 92.4427 635.136 92.1333 635.392 91.728C635.648 91.3227 635.776 90.8373 635.776 90.272C635.776 89.3973 635.525 88.6773 635.024 88.112C634.533 87.5467 633.824 87.264 632.896 87.264C632.075 87.264 631.413 87.52 630.912 88.032C630.421 88.544 630.176 89.2267 630.176 90.08C630.176 90.976 630.421 91.68 630.912 92.192C631.403 92.704 632.096 92.96 632.992 92.96Z" fill="#949494"/>
<path d="M536.248 134L531.4 128.832V134H530.28V122.816H531.4V128.048L536.248 122.816H537.672L532.44 128.4L537.72 134H536.248ZM547.278 129.184C547.278 129.568 547.267 129.861 547.246 130.064H539.998C540.03 130.725 540.19 131.291 540.478 131.76C540.766 132.229 541.144 132.587 541.614 132.832C542.083 133.067 542.595 133.184 543.15 133.184C543.875 133.184 544.483 133.008 544.974 132.656C545.475 132.304 545.806 131.829 545.966 131.232H547.15C546.936 132.085 546.478 132.784 545.774 133.328C545.08 133.861 544.206 134.128 543.15 134.128C542.328 134.128 541.592 133.947 540.942 133.584C540.291 133.211 539.779 132.688 539.406 132.016C539.043 131.333 538.862 130.539 538.862 129.632C538.862 128.725 539.043 127.931 539.406 127.248C539.768 126.565 540.275 126.043 540.926 125.68C541.576 125.317 542.318 125.136 543.15 125.136C543.982 125.136 544.707 125.317 545.326 125.68C545.955 126.043 546.435 126.533 546.766 127.152C547.107 127.76 547.278 128.437 547.278 129.184ZM546.142 129.152C546.152 128.501 546.019 127.947 545.742 127.488C545.475 127.029 545.107 126.683 544.638 126.448C544.168 126.213 543.656 126.096 543.102 126.096C542.27 126.096 541.56 126.363 540.974 126.896C540.387 127.429 540.062 128.181 539.998 129.152H546.142ZM552.991 125.136C553.812 125.136 554.527 125.328 555.135 125.712C555.743 126.096 556.18 126.581 556.447 127.168V125.264H557.567V134.224C557.567 135.024 557.391 135.733 557.039 136.352C556.698 136.971 556.218 137.445 555.599 137.776C554.98 138.117 554.276 138.288 553.487 138.288C552.367 138.288 551.434 138.021 550.687 137.488C549.951 136.955 549.492 136.229 549.311 135.312H550.415C550.607 135.92 550.97 136.405 551.503 136.768C552.047 137.131 552.708 137.312 553.487 137.312C554.052 137.312 554.559 137.189 555.007 136.944C555.455 136.709 555.807 136.357 556.063 135.888C556.319 135.419 556.447 134.864 556.447 134.224V132.064C556.17 132.661 555.727 133.157 555.119 133.552C554.522 133.936 553.812 134.128 552.991 134.128C552.191 134.128 551.471 133.941 550.831 133.568C550.202 133.195 549.706 132.667 549.343 131.984C548.991 131.301 548.815 130.512 548.815 129.616C548.815 128.72 548.991 127.936 549.343 127.264C549.706 126.581 550.202 126.059 550.831 125.696C551.471 125.323 552.191 125.136 552.991 125.136ZM556.447 129.632C556.447 128.928 556.303 128.309 556.015 127.776C555.727 127.243 555.332 126.832 554.831 126.544C554.34 126.256 553.796 126.112 553.199 126.112C552.58 126.112 552.026 126.251 551.535 126.528C551.044 126.805 550.655 127.211 550.367 127.744C550.09 128.267 549.951 128.891 549.951 129.616C549.951 130.331 550.09 130.96 550.367 131.504C550.655 132.037 551.044 132.448 551.535 132.736C552.026 133.013 552.58 133.152 553.199 133.152C553.796 133.152 554.34 133.008 554.831 132.72C555.332 132.432 555.727 132.021 556.015 131.488C556.303 130.955 556.447 130.336 556.447 129.632ZM560.684 123.616C560.46 123.616 560.268 123.536 560.108 123.376C559.948 123.216 559.868 123.019 559.868 122.784C559.868 122.549 559.948 122.357 560.108 122.208C560.268 122.048 560.46 121.968 560.684 121.968C560.908 121.968 561.1 122.048 561.26 122.208C561.42 122.357 561.5 122.549 561.5 122.784C561.5 123.019 561.42 123.216 561.26 123.376C561.1 123.536 560.908 123.616 560.684 123.616ZM561.244 125.264V134H560.124V125.264H561.244ZM563.268 129.616C563.268 128.72 563.444 127.936 563.796 127.264C564.159 126.581 564.655 126.059 565.284 125.696C565.924 125.323 566.644 125.136 567.444 125.136C568.276 125.136 568.991 125.328 569.588 125.712C570.196 126.096 570.633 126.587 570.9 127.184V125.264H572.02V134H570.9V132.064C570.623 132.661 570.18 133.157 569.572 133.552C568.975 133.936 568.26 134.128 567.428 134.128C566.639 134.128 565.924 133.941 565.284 133.568C564.655 133.195 564.159 132.667 563.796 131.984C563.444 131.301 563.268 130.512 563.268 129.616ZM570.9 129.632C570.9 128.928 570.756 128.309 570.468 127.776C570.18 127.243 569.785 126.832 569.284 126.544C568.793 126.256 568.249 126.112 567.652 126.112C567.033 126.112 566.479 126.251 565.988 126.528C565.497 126.805 565.108 127.211 564.82 127.744C564.543 128.267 564.404 128.891 564.404 129.616C564.404 130.331 564.543 130.96 564.82 131.504C565.108 132.037 565.497 132.448 565.988 132.736C566.479 133.013 567.033 133.152 567.652 133.152C568.249 133.152 568.793 133.008 569.284 132.72C569.785 132.432 570.18 132.021 570.468 131.488C570.756 130.955 570.9 130.336 570.9 129.632ZM576.033 126.208V131.632C576.033 132.165 576.134 132.533 576.337 132.736C576.54 132.939 576.897 133.04 577.409 133.04H578.433V134H577.233C576.444 134 575.857 133.819 575.473 133.456C575.089 133.083 574.897 132.475 574.897 131.632V126.208H573.681V125.264H574.897V123.072H576.033V125.264H578.433V126.208H576.033ZM579.768 129.616C579.768 128.72 579.944 127.936 580.296 127.264C580.659 126.581 581.155 126.059 581.784 125.696C582.424 125.323 583.144 125.136 583.944 125.136C584.776 125.136 585.491 125.328 586.088 125.712C586.696 126.096 587.133 126.587 587.4 127.184V125.264H588.52V134H587.4V132.064C587.123 132.661 586.68 133.157 586.072 133.552C585.475 133.936 584.76 134.128 583.928 134.128C583.139 134.128 582.424 133.941 581.784 133.568C581.155 133.195 580.659 132.667 580.296 131.984C579.944 131.301 579.768 130.512 579.768 129.616ZM587.4 129.632C587.4 128.928 587.256 128.309 586.968 127.776C586.68 127.243 586.285 126.832 585.784 126.544C585.293 126.256 584.749 126.112 584.152 126.112C583.533 126.112 582.979 126.251 582.488 126.528C581.997 126.805 581.608 127.211 581.32 127.744C581.043 128.267 580.904 128.891 580.904 129.616C580.904 130.331 581.043 130.96 581.32 131.504C581.608 132.037 581.997 132.448 582.488 132.736C582.979 133.013 583.533 133.152 584.152 133.152C584.749 133.152 585.293 133.008 585.784 132.72C586.285 132.432 586.68 132.021 586.968 131.488C587.256 130.955 587.4 130.336 587.4 129.632ZM595.173 125.104C596.218 125.104 597.072 125.429 597.733 126.08C598.394 126.72 598.725 127.653 598.725 128.88V134H597.621V129.008C597.621 128.059 597.381 127.333 596.901 126.832C596.432 126.331 595.786 126.08 594.965 126.08C594.122 126.08 593.45 126.347 592.949 126.88C592.448 127.413 592.197 128.197 592.197 129.232V134H591.077V125.264H592.197V126.752C592.474 126.219 592.874 125.813 593.397 125.536C593.92 125.248 594.512 125.104 595.173 125.104ZM605.129 133.12C607.091 131.648 608.606 130.331 609.673 129.168C610.75 127.995 611.289 126.848 611.289 125.728C611.289 124.992 611.102 124.405 610.729 123.968C610.366 123.52 609.769 123.296 608.937 123.296C608.126 123.296 607.497 123.552 607.049 124.064C606.611 124.565 606.366 125.237 606.312 126.08H605.225C605.289 124.896 605.651 123.979 606.312 123.328C606.985 122.667 607.859 122.336 608.937 122.336C609.971 122.336 610.809 122.629 611.449 123.216C612.089 123.792 612.409 124.613 612.409 125.68C612.409 126.971 611.87 128.224 610.793 129.44C609.726 130.645 608.409 131.824 606.841 132.976H612.76V133.92H605.129V133.12ZM614.509 128.16C614.509 126.325 614.791 124.901 615.357 123.888C615.922 122.875 616.935 122.368 618.397 122.368C619.858 122.368 620.871 122.875 621.437 123.888C622.002 124.901 622.285 126.325 622.285 128.16C622.285 130.027 622.002 131.472 621.437 132.496C620.871 133.52 619.858 134.032 618.397 134.032C616.925 134.032 615.906 133.52 615.341 132.496C614.786 131.472 614.509 130.027 614.509 128.16ZM621.181 128.16C621.181 127.168 621.111 126.331 620.973 125.648C620.834 124.965 620.562 124.416 620.157 124C619.751 123.584 619.165 123.376 618.397 123.376C617.629 123.376 617.042 123.584 616.637 124C616.231 124.416 615.959 124.965 615.821 125.648C615.682 126.331 615.613 127.168 615.613 128.16C615.613 129.184 615.682 130.043 615.821 130.736C615.959 131.419 616.231 131.968 616.637 132.384C617.042 132.8 617.629 133.008 618.397 133.008C619.165 133.008 619.751 132.8 620.157 132.384C620.562 131.968 620.834 131.419 620.973 130.736C621.111 130.043 621.181 129.184 621.181 128.16ZM624.144 133.12C626.107 131.648 627.621 130.331 628.688 129.168C629.765 127.995 630.304 126.848 630.304 125.728C630.304 124.992 630.117 124.405 629.744 123.968C629.381 123.52 628.784 123.296 627.952 123.296C627.141 123.296 626.512 123.552 626.064 124.064C625.627 124.565 625.381 125.237 625.328 126.08H624.24C624.304 124.896 624.667 123.979 625.328 123.328C626 122.667 626.875 122.336 627.952 122.336C628.987 122.336 629.824 122.629 630.464 123.216C631.104 123.792 631.424 124.613 631.424 125.68C631.424 126.971 630.885 128.224 629.808 129.44C628.741 130.645 627.424 131.824 625.856 132.976H631.776V133.92H624.144V133.12ZM633.524 128.16C633.524 126.325 633.807 124.901 634.372 123.888C634.938 122.875 635.951 122.368 637.412 122.368C638.874 122.368 639.887 122.875 640.452 123.888C641.018 124.901 641.3 126.325 641.3 128.16C641.3 130.027 641.018 131.472 640.452 132.496C639.887 133.52 638.874 134.032 637.412 134.032C635.94 134.032 634.922 133.52 634.356 132.496C633.802 131.472 633.524 130.027 633.524 128.16ZM640.196 128.16C640.196 127.168 640.127 126.331 639.988 125.648C639.85 124.965 639.578 124.416 639.172 124C638.767 123.584 638.18 123.376 637.412 123.376C636.644 123.376 636.058 123.584 635.652 124C635.247 124.416 634.975 124.965 634.836 125.648C634.698 126.331 634.628 127.168 634.628 128.16C634.628 129.184 634.698 130.043 634.836 130.736C634.975 131.419 635.247 131.968 635.652 132.384C636.058 132.8 636.644 133.008 637.412 133.008C638.18 133.008 638.767 132.8 639.172 132.384C639.578 131.968 639.85 131.419 639.988 130.736C640.127 130.043 640.196 129.184 640.196 128.16Z" fill="#949494"/>
<path d="M536.248 170L531.4 164.832V170H530.28V158.816H531.4V164.048L536.248 158.816H537.672L532.44 164.4L537.72 170H536.248ZM547.278 165.184C547.278 165.568 547.267 165.861 547.246 166.064H539.998C540.03 166.725 540.19 167.291 540.478 167.76C540.766 168.229 541.144 168.587 541.614 168.832C542.083 169.067 542.595 169.184 543.15 169.184C543.875 169.184 544.483 169.008 544.974 168.656C545.475 168.304 545.806 167.829 545.966 167.232H547.15C546.936 168.085 546.478 168.784 545.774 169.328C545.08 169.861 544.206 170.128 543.15 170.128C542.328 170.128 541.592 169.947 540.942 169.584C540.291 169.211 539.779 168.688 539.406 168.016C539.043 167.333 538.862 166.539 538.862 165.632C538.862 164.725 539.043 163.931 539.406 163.248C539.768 162.565 540.275 162.043 540.926 161.68C541.576 161.317 542.318 161.136 543.15 161.136C543.982 161.136 544.707 161.317 545.326 161.68C545.955 162.043 546.435 162.533 546.766 163.152C547.107 163.76 547.278 164.437 547.278 165.184ZM546.142 165.152C546.152 164.501 546.019 163.947 545.742 163.488C545.475 163.029 545.107 162.683 544.638 162.448C544.168 162.213 543.656 162.096 543.102 162.096C542.27 162.096 541.56 162.363 540.974 162.896C540.387 163.429 540.062 164.181 539.998 165.152H546.142ZM552.991 161.136C553.812 161.136 554.527 161.328 555.135 161.712C555.743 162.096 556.18 162.581 556.447 163.168V161.264H557.567V170.224C557.567 171.024 557.391 171.733 557.039 172.352C556.698 172.971 556.218 173.445 555.599 173.776C554.98 174.117 554.276 174.288 553.487 174.288C552.367 174.288 551.434 174.021 550.687 173.488C549.951 172.955 549.492 172.229 549.311 171.312H550.415C550.607 171.92 550.97 172.405 551.503 172.768C552.047 173.131 552.708 173.312 553.487 173.312C554.052 173.312 554.559 173.189 555.007 172.944C555.455 172.709 555.807 172.357 556.063 171.888C556.319 171.419 556.447 170.864 556.447 170.224V168.064C556.17 168.661 555.727 169.157 555.119 169.552C554.522 169.936 553.812 170.128 552.991 170.128C552.191 170.128 551.471 169.941 550.831 169.568C550.202 169.195 549.706 168.667 549.343 167.984C548.991 167.301 548.815 166.512 548.815 165.616C548.815 164.72 548.991 163.936 549.343 163.264C549.706 162.581 550.202 162.059 550.831 161.696C551.471 161.323 552.191 161.136 552.991 161.136ZM556.447 165.632C556.447 164.928 556.303 164.309 556.015 163.776C555.727 163.243 555.332 162.832 554.831 162.544C554.34 162.256 553.796 162.112 553.199 162.112C552.58 162.112 552.026 162.251 551.535 162.528C551.044 162.805 550.655 163.211 550.367 163.744C550.09 164.267 549.951 164.891 549.951 165.616C549.951 166.331 550.09 166.96 550.367 167.504C550.655 168.037 551.044 168.448 551.535 168.736C552.026 169.013 552.58 169.152 553.199 169.152C553.796 169.152 554.34 169.008 554.831 168.72C555.332 168.432 555.727 168.021 556.015 167.488C556.303 166.955 556.447 166.336 556.447 165.632ZM560.684 159.616C560.46 159.616 560.268 159.536 560.108 159.376C559.948 159.216 559.868 159.019 559.868 158.784C559.868 158.549 559.948 158.357 560.108 158.208C560.268 158.048 560.46 157.968 560.684 157.968C560.908 157.968 561.1 158.048 561.26 158.208C561.42 158.357 561.5 158.549 561.5 158.784C561.5 159.019 561.42 159.216 561.26 159.376C561.1 159.536 560.908 159.616 560.684 159.616ZM561.244 161.264V170H560.124V161.264H561.244ZM563.268 165.616C563.268 164.72 563.444 163.936 563.796 163.264C564.159 162.581 564.655 162.059 565.284 161.696C565.924 161.323 566.644 161.136 567.444 161.136C568.276 161.136 568.991 161.328 569.588 161.712C570.196 162.096 570.633 162.587 570.9 163.184V161.264H572.02V170H570.9V168.064C570.623 168.661 570.18 169.157 569.572 169.552C568.975 169.936 568.26 170.128 567.428 170.128C566.639 170.128 565.924 169.941 565.284 169.568C564.655 169.195 564.159 168.667 563.796 167.984C563.444 167.301 563.268 166.512 563.268 165.616ZM570.9 165.632C570.9 164.928 570.756 164.309 570.468 163.776C570.18 163.243 569.785 162.832 569.284 162.544C568.793 162.256 568.249 162.112 567.652 162.112C567.033 162.112 566.479 162.251 565.988 162.528C565.497 162.805 565.108 163.211 564.82 163.744C564.543 164.267 564.404 164.891 564.404 165.616C564.404 166.331 564.543 166.96 564.82 167.504C565.108 168.037 565.497 168.448 565.988 168.736C566.479 169.013 567.033 169.152 567.652 169.152C568.249 169.152 568.793 169.008 569.284 168.72C569.785 168.432 570.18 168.021 570.468 167.488C570.756 166.955 570.9 166.336 570.9 165.632ZM576.033 162.208V167.632C576.033 168.165 576.134 168.533 576.337 168.736C576.54 168.939 576.897 169.04 577.409 169.04H578.433V170H577.233C576.444 170 575.857 169.819 575.473 169.456C575.089 169.083 574.897 168.475 574.897 167.632V162.208H573.681V161.264H574.897V159.072H576.033V161.264H578.433V162.208H576.033ZM579.768 165.616C579.768 164.72 579.944 163.936 580.296 163.264C580.659 162.581 581.155 162.059 581.784 161.696C582.424 161.323 583.144 161.136 583.944 161.136C584.776 161.136 585.491 161.328 586.088 161.712C586.696 162.096 587.133 162.587 587.4 163.184V161.264H588.52V170H587.4V168.064C587.123 168.661 586.68 169.157 586.072 169.552C585.475 169.936 584.76 170.128 583.928 170.128C583.139 170.128 582.424 169.941 581.784 169.568C581.155 169.195 580.659 168.667 580.296 167.984C579.944 167.301 579.768 166.512 579.768 165.616ZM587.4 165.632C587.4 164.928 587.256 164.309 586.968 163.776C586.68 163.243 586.285 162.832 585.784 162.544C585.293 162.256 584.749 162.112 584.152 162.112C583.533 162.112 582.979 162.251 582.488 162.528C581.997 162.805 581.608 163.211 581.32 163.744C581.043 164.267 580.904 164.891 580.904 165.616C580.904 166.331 581.043 166.96 581.32 167.504C581.608 168.037 581.997 168.448 582.488 168.736C582.979 169.013 583.533 169.152 584.152 169.152C584.749 169.152 585.293 169.008 585.784 168.72C586.285 168.432 586.68 168.021 586.968 167.488C587.256 166.955 587.4 166.336 587.4 165.632ZM595.173 161.104C596.218 161.104 597.072 161.429 597.733 162.08C598.394 162.72 598.725 163.653 598.725 164.88V170H597.621V165.008C597.621 164.059 597.381 163.333 596.901 162.832C596.432 162.331 595.786 162.08 594.965 162.08C594.122 162.08 593.45 162.347 592.949 162.88C592.448 163.413 592.197 164.197 592.197 165.232V170H591.077V161.264H592.197V162.752C592.474 162.219 592.874 161.813 593.397 161.536C593.92 161.248 594.512 161.104 595.173 161.104ZM605.129 169.12C607.091 167.648 608.606 166.331 609.673 165.168C610.75 163.995 611.289 162.848 611.289 161.728C611.289 160.992 611.102 160.405 610.729 159.968C610.366 159.52 609.769 159.296 608.937 159.296C608.126 159.296 607.497 159.552 607.049 160.064C606.611 160.565 606.366 161.237 606.312 162.08H605.225C605.289 160.896 605.651 159.979 606.312 159.328C606.985 158.667 607.859 158.336 608.937 158.336C609.971 158.336 610.809 158.629 611.449 159.216C612.089 159.792 612.409 160.613 612.409 161.68C612.409 162.971 611.87 164.224 610.793 165.44C609.726 166.645 608.409 167.824 606.841 168.976H612.76V169.92H605.129V169.12ZM614.509 164.16C614.509 162.325 614.791 160.901 615.357 159.888C615.922 158.875 616.935 158.368 618.397 158.368C619.858 158.368 620.871 158.875 621.437 159.888C622.002 160.901 622.285 162.325 622.285 164.16C622.285 166.027 622.002 167.472 621.437 168.496C620.871 169.52 619.858 170.032 618.397 170.032C616.925 170.032 615.906 169.52 615.341 168.496C614.786 167.472 614.509 166.027 614.509 164.16ZM621.181 164.16C621.181 163.168 621.111 162.331 620.973 161.648C620.834 160.965 620.562 160.416 620.157 160C619.751 159.584 619.165 159.376 618.397 159.376C617.629 159.376 617.042 159.584 616.637 160C616.231 160.416 615.959 160.965 615.821 161.648C615.682 162.331 615.613 163.168 615.613 164.16C615.613 165.184 615.682 166.043 615.821 166.736C615.959 167.419 616.231 167.968 616.637 168.384C617.042 168.8 617.629 169.008 618.397 169.008C619.165 169.008 619.751 168.8 620.157 168.384C620.562 167.968 620.834 167.419 620.973 166.736C621.111 166.043 621.181 165.184 621.181 164.16ZM624.144 169.12C626.107 167.648 627.621 166.331 628.688 165.168C629.765 163.995 630.304 162.848 630.304 161.728C630.304 160.992 630.117 160.405 629.744 159.968C629.381 159.52 628.784 159.296 627.952 159.296C627.141 159.296 626.512 159.552 626.064 160.064C625.627 160.565 625.381 161.237 625.328 162.08H624.24C624.304 160.896 624.667 159.979 625.328 159.328C626 158.667 626.875 158.336 627.952 158.336C628.987 158.336 629.824 158.629 630.464 159.216C631.104 159.792 631.424 160.613 631.424 161.68C631.424 162.971 630.885 164.224 629.808 165.44C628.741 166.645 627.424 167.824 625.856 168.976H631.776V169.92H624.144V169.12ZM632.98 159.536V158.528H635.7V170H634.564V159.536H632.98Z" fill="#949494"/>
</svg>
