<svg width="369" height="232" viewBox="0 0 369 232" fill="none" xmlns="http://www.w3.org/2000/svg">
<g filter="url(#filter0_dd_2_33)">
<rect x="80" width="209" height="52" rx="20" fill="#008F76"/>
<path d="M104.85 26.416C104.85 25.328 105.1 24.352 105.602 23.488C106.114 22.624 106.802 21.952 107.666 21.472C108.54 20.9813 109.495 20.736 110.53 20.736C111.714 20.736 112.764 21.0293 113.682 21.616C114.61 22.192 115.282 23.0133 115.698 24.08H113.506C113.218 23.4933 112.818 23.056 112.306 22.768C111.794 22.48 111.202 22.336 110.53 22.336C109.794 22.336 109.138 22.5013 108.562 22.832C107.986 23.1627 107.532 23.6373 107.202 24.256C106.882 24.8747 106.722 25.5947 106.722 26.416C106.722 27.2373 106.882 27.9573 107.202 28.576C107.532 29.1947 107.986 29.6747 108.562 30.016C109.138 30.3467 109.794 30.512 110.53 30.512C111.202 30.512 111.794 30.368 112.306 30.08C112.818 29.792 113.218 29.3547 113.506 28.768H115.698C115.282 29.8347 114.61 30.656 113.682 31.232C112.764 31.808 111.714 32.096 110.53 32.096C109.484 32.096 108.53 31.856 107.666 31.376C106.802 30.8853 106.114 30.208 105.602 29.344C105.1 28.48 104.85 27.504 104.85 26.416ZM117.225 27.552C117.225 26.6667 117.406 25.8827 117.769 25.2C118.142 24.5173 118.643 23.9893 119.273 23.616C119.913 23.232 120.617 23.04 121.385 23.04C122.078 23.04 122.681 23.1787 123.193 23.456C123.715 23.7227 124.131 24.0587 124.441 24.464V23.184H126.281V32H124.441V30.688C124.131 31.104 123.71 31.4507 123.177 31.728C122.643 32.0053 122.035 32.144 121.353 32.144C120.595 32.144 119.902 31.952 119.273 31.568C118.643 31.1733 118.142 30.6293 117.769 29.936C117.406 29.232 117.225 28.4373 117.225 27.552ZM124.441 27.584C124.441 26.976 124.313 26.448 124.057 26C123.811 25.552 123.486 25.2107 123.081 24.976C122.675 24.7413 122.238 24.624 121.769 24.624C121.299 24.624 120.862 24.7413 120.457 24.976C120.051 25.2 119.721 25.536 119.465 25.984C119.219 26.4213 119.097 26.944 119.097 27.552C119.097 28.16 119.219 28.6933 119.465 29.152C119.721 29.6107 120.051 29.9627 120.457 30.208C120.873 30.4427 121.31 30.56 121.769 30.56C122.238 30.56 122.675 30.4427 123.081 30.208C123.486 29.9733 123.811 29.632 124.057 29.184C124.313 28.7253 124.441 28.192 124.441 27.584ZM130.501 24.464C130.767 24.016 131.119 23.6693 131.557 23.424C132.005 23.168 132.533 23.04 133.141 23.04V24.928H132.677C131.962 24.928 131.418 25.1093 131.045 25.472C130.682 25.8347 130.501 26.464 130.501 27.36V32H128.677V23.184H130.501V24.464ZM135.745 22.016C135.415 22.016 135.137 21.904 134.913 21.68C134.689 21.456 134.577 21.1787 134.577 20.848C134.577 20.5173 134.689 20.24 134.913 20.016C135.137 19.792 135.415 19.68 135.745 19.68C136.065 19.68 136.337 19.792 136.561 20.016C136.785 20.24 136.897 20.5173 136.897 20.848C136.897 21.1787 136.785 21.456 136.561 21.68C136.337 21.904 136.065 22.016 135.745 22.016ZM136.641 23.184V32H134.817V23.184H136.641ZM149.256 20.88V28.896C149.256 29.888 148.952 30.672 148.344 31.248C147.747 31.824 146.958 32.112 145.976 32.112C144.995 32.112 144.2 31.824 143.592 31.248C142.995 30.672 142.696 29.888 142.696 28.896H144.536C144.547 29.3867 144.67 29.776 144.904 30.064C145.15 30.352 145.507 30.496 145.976 30.496C146.446 30.496 146.803 30.352 147.048 30.064C147.294 29.7653 147.416 29.376 147.416 28.896V20.88H149.256ZM160.207 23.184V32H158.383V30.96C158.095 31.3227 157.717 31.6107 157.247 31.824C156.789 32.0267 156.298 32.128 155.775 32.128C155.082 32.128 154.458 31.984 153.903 31.696C153.359 31.408 152.927 30.9813 152.607 30.416C152.298 29.8507 152.143 29.168 152.143 28.368V23.184H153.951V28.096C153.951 28.8853 154.149 29.4933 154.543 29.92C154.938 30.336 155.477 30.544 156.159 30.544C156.842 30.544 157.381 30.336 157.775 29.92C158.181 29.4933 158.383 28.8853 158.383 28.096V23.184H160.207ZM162.006 27.552C162.006 26.6667 162.187 25.8827 162.55 25.2C162.923 24.5173 163.425 23.9893 164.054 23.616C164.694 23.232 165.403 23.04 166.182 23.04C166.758 23.04 167.323 23.168 167.878 23.424C168.443 23.6693 168.891 24 169.222 24.416V20.16H171.062V32H169.222V30.672C168.923 31.0987 168.507 31.4507 167.974 31.728C167.451 32.0053 166.849 32.144 166.166 32.144C165.398 32.144 164.694 31.952 164.054 31.568C163.425 31.1733 162.923 30.6293 162.55 29.936C162.187 29.232 162.006 28.4373 162.006 27.552ZM169.222 27.584C169.222 26.976 169.094 26.448 168.838 26C168.593 25.552 168.267 25.2107 167.862 24.976C167.457 24.7413 167.019 24.624 166.55 24.624C166.081 24.624 165.643 24.7413 165.238 24.976C164.833 25.2 164.502 25.536 164.246 25.984C164.001 26.4213 163.878 26.944 163.878 27.552C163.878 28.16 164.001 28.6933 164.246 29.152C164.502 29.6107 164.833 29.9627 165.238 30.208C165.654 30.4427 166.091 30.56 166.55 30.56C167.019 30.56 167.457 30.4427 167.862 30.208C168.267 29.9733 168.593 29.632 168.838 29.184C169.094 28.7253 169.222 28.192 169.222 27.584ZM181.442 23.184V32H179.618V30.96C179.33 31.3227 178.951 31.6107 178.482 31.824C178.023 32.0267 177.532 32.128 177.01 32.128C176.316 32.128 175.692 31.984 175.138 31.696C174.594 31.408 174.162 30.9813 173.842 30.416C173.532 29.8507 173.378 29.168 173.378 28.368V23.184H175.186V28.096C175.186 28.8853 175.383 29.4933 175.778 29.92C176.172 30.336 176.711 30.544 177.394 30.544C178.076 30.544 178.615 30.336 179.01 29.92C179.415 29.4933 179.618 28.8853 179.618 28.096V23.184H181.442ZM185.672 20.16V32H183.848V20.16H185.672ZM198.175 26.288C198.773 26.3947 199.279 26.7093 199.695 27.232C200.111 27.7547 200.319 28.3467 200.319 29.008C200.319 29.5733 200.17 30.0853 199.871 30.544C199.583 30.992 199.162 31.3493 198.607 31.616C198.053 31.872 197.407 32 196.671 32H192.223V20.88H196.463C197.221 20.88 197.871 21.008 198.415 21.264C198.959 21.52 199.37 21.8667 199.647 22.304C199.925 22.7307 200.063 23.2107 200.063 23.744C200.063 24.384 199.893 24.9173 199.551 25.344C199.21 25.7707 198.751 26.0853 198.175 26.288ZM194.047 25.552H196.303C196.901 25.552 197.365 25.4187 197.695 25.152C198.037 24.8747 198.207 24.48 198.207 23.968C198.207 23.4667 198.037 23.0773 197.695 22.8C197.365 22.512 196.901 22.368 196.303 22.368H194.047V25.552ZM196.511 30.512C197.13 30.512 197.615 30.3627 197.967 30.064C198.319 29.7653 198.495 29.3493 198.495 28.816C198.495 28.272 198.309 27.84 197.935 27.52C197.562 27.2 197.066 27.04 196.447 27.04H194.047V30.512H196.511ZM210.286 23.184V32H208.462V30.96C208.174 31.3227 207.795 31.6107 207.326 31.824C206.867 32.0267 206.376 32.128 205.854 32.128C205.16 32.128 204.536 31.984 203.982 31.696C203.438 31.408 203.006 30.9813 202.686 30.416C202.376 29.8507 202.222 29.168 202.222 28.368V23.184H204.03V28.096C204.03 28.8853 204.227 29.4933 204.622 29.92C205.016 30.336 205.555 30.544 206.238 30.544C206.92 30.544 207.459 30.336 207.854 29.92C208.259 29.4933 208.462 28.8853 208.462 28.096V23.184H210.286ZM216.18 27.6L220.244 32H217.78L214.516 28.208V32H212.692V20.16H214.516V27.04L217.716 23.184H220.244L216.18 27.6ZM229.536 23.184V32H227.712V30.96C227.424 31.3227 227.045 31.6107 226.576 31.824C226.117 32.0267 225.626 32.128 225.104 32.128C224.41 32.128 223.786 31.984 223.232 31.696C222.688 31.408 222.256 30.9813 221.936 30.416C221.626 29.8507 221.472 29.168 221.472 28.368V23.184H223.28V28.096C223.28 28.8853 223.477 29.4933 223.872 29.92C224.266 30.336 224.805 30.544 225.488 30.544C226.17 30.544 226.709 30.336 227.104 29.92C227.509 29.4933 227.712 28.8853 227.712 28.096V23.184H229.536Z" fill="white"/>
<path d="M262 35L257.514 30.506M260 24.5C260 26.7543 259.104 28.9163 257.51 30.5104C255.916 32.1045 253.754 33 251.5 33C249.246 33 247.084 32.1045 245.49 30.5104C243.896 28.9163 243 26.7543 243 24.5C243 22.2457 243.896 20.0837 245.49 18.4896C247.084 16.8955 249.246 16 251.5 16C253.754 16 255.916 16.8955 257.51 18.4896C259.104 20.0837 260 22.2457 260 24.5V24.5Z" stroke="white" stroke-width="2" stroke-linecap="round"/>
</g>
<defs>
<filter id="filter0_dd_2_33" x="0" y="0" width="369" height="232" filterUnits="userSpaceOnUse" color-interpolation-filters="sRGB">
<feFlood flood-opacity="0" result="BackgroundImageFix"/>
<feColorMatrix in="SourceAlpha" type="matrix" values="0 0 0 0 0 0 0 0 0 0 0 0 0 0 0 0 0 0 127 0" result="hardAlpha"/>
<feOffset dy="12.5216"/>
<feGaussianBlur stdDeviation="5.00862"/>
<feColorMatrix type="matrix" values="0 0 0 0 0 0 0 0 0 0 0 0 0 0 0 0 0 0 0.015 0"/>
<feBlend mode="normal" in2="BackgroundImageFix" result="effect1_dropShadow_2_33"/>
<feColorMatrix in="SourceAlpha" type="matrix" values="0 0 0 0 0 0 0 0 0 0 0 0 0 0 0 0 0 0 127 0" result="hardAlpha"/>
<feOffset dy="100"/>
<feGaussianBlur stdDeviation="40"/>
<feColorMatrix type="matrix" values="0 0 0 0 0 0 0 0 0 0 0 0 0 0 0 0 0 0 0.03 0"/>
<feBlend mode="normal" in2="effect1_dropShadow_2_33" result="effect2_dropShadow_2_33"/>
<feBlend mode="normal" in="SourceGraphic" in2="effect2_dropShadow_2_33" result="shape"/>
</filter>
</defs>
</svg>
