<svg width="1440" height="296" viewBox="0 0 1440 296" fill="none" xmlns="http://www.w3.org/2000/svg">
<rect width="1440" height="296" fill="white"/>
<path d="M227 108C216.391 108 206.217 112.214 198.716 119.716C191.214 127.217 187 137.391 187 148C187 158.609 191.214 168.783 198.716 176.284C206.217 183.786 216.391 188 227 188L227 177.897C219.071 177.897 211.467 174.747 205.86 169.14C200.253 163.533 197.103 155.929 197.103 148C197.103 140.071 200.253 132.467 205.86 126.86C211.467 121.253 219.071 118.103 227 118.103V108Z" fill="#008F76"/>
<path d="M227 108C237.609 108 247.783 112.214 255.284 119.716C262.786 127.217 267 137.391 267 148C267 158.609 262.786 168.783 255.284 176.284C247.783 183.786 237.609 188 227 188L227 177.897C234.929 177.897 242.533 174.747 248.14 169.14C253.747 163.533 256.897 155.929 256.897 148C256.897 140.071 253.747 132.467 248.14 126.86C242.533 121.253 234.929 118.103 227 118.103V108Z" fill="#A6A6A6"/>
<path d="M300.61 123.544H290.242V129.016C290.69 128.461 291.33 128.013 292.162 127.672C292.994 127.309 293.88 127.128 294.818 127.128C296.525 127.128 297.922 127.501 299.01 128.248C300.098 128.995 300.888 129.955 301.378 131.128C301.869 132.28 302.114 133.517 302.114 134.84C302.114 137.293 301.41 139.267 300.002 140.76C298.616 142.253 296.632 143 294.05 143C291.618 143 289.677 142.392 288.226 141.176C286.776 139.96 285.954 138.371 285.762 136.408H290.114C290.306 137.261 290.733 137.944 291.394 138.456C292.077 138.968 292.941 139.224 293.986 139.224C295.245 139.224 296.194 138.829 296.834 138.04C297.474 137.251 297.794 136.205 297.794 134.904C297.794 133.581 297.464 132.579 296.802 131.896C296.162 131.192 295.213 130.84 293.954 130.84C293.058 130.84 292.312 131.064 291.714 131.512C291.117 131.96 290.69 132.557 290.434 133.304H286.146V119.608H300.61V123.544ZM305.524 131.032C305.524 127.341 306.185 124.451 307.508 122.36C308.852 120.269 311.071 119.224 314.164 119.224C317.257 119.224 319.465 120.269 320.788 122.36C322.132 124.451 322.804 127.341 322.804 131.032C322.804 134.744 322.132 137.656 320.788 139.768C319.465 141.88 317.257 142.936 314.164 142.936C311.071 142.936 308.852 141.88 307.508 139.768C306.185 137.656 305.524 134.744 305.524 131.032ZM318.388 131.032C318.388 129.453 318.281 128.131 318.068 127.064C317.876 125.976 317.471 125.091 316.852 124.408C316.255 123.725 315.359 123.384 314.164 123.384C312.969 123.384 312.063 123.725 311.444 124.408C310.847 125.091 310.441 125.976 310.228 127.064C310.036 128.131 309.94 129.453 309.94 131.032C309.94 132.653 310.036 134.019 310.228 135.128C310.42 136.216 310.825 137.101 311.444 137.784C312.063 138.445 312.969 138.776 314.164 138.776C315.359 138.776 316.265 138.445 316.884 137.784C317.503 137.101 317.908 136.216 318.1 135.128C318.292 134.019 318.388 132.653 318.388 131.032ZM326.212 131.032C326.212 127.341 326.873 124.451 328.196 122.36C329.54 120.269 331.758 119.224 334.852 119.224C337.945 119.224 340.153 120.269 341.476 122.36C342.82 124.451 343.492 127.341 343.492 131.032C343.492 134.744 342.82 137.656 341.476 139.768C340.153 141.88 337.945 142.936 334.852 142.936C331.758 142.936 329.54 141.88 328.196 139.768C326.873 137.656 326.212 134.744 326.212 131.032ZM339.076 131.032C339.076 129.453 338.969 128.131 338.756 127.064C338.564 125.976 338.158 125.091 337.54 124.408C336.942 123.725 336.046 123.384 334.852 123.384C333.657 123.384 332.75 123.725 332.132 124.408C331.534 125.091 331.129 125.976 330.916 127.064C330.724 128.131 330.628 129.453 330.628 131.032C330.628 132.653 330.724 134.019 330.916 135.128C331.108 136.216 331.513 137.101 332.132 137.784C332.75 138.445 333.657 138.776 334.852 138.776C336.046 138.776 336.953 138.445 337.572 137.784C338.19 137.101 338.596 136.216 338.788 135.128C338.98 134.019 339.076 132.653 339.076 131.032ZM364.147 133.56H358.099V139.768H353.875V133.56H347.827V129.656H353.875V123.448H358.099V129.656H364.147V133.56Z" fill="#212121"/>
<path d="M289.848 174.848V183.088C289.848 184.005 289.565 184.741 289 185.296C288.435 185.84 287.688 186.112 286.76 186.112C285.821 186.112 285.069 185.835 284.504 185.28C283.939 184.715 283.656 183.947 283.656 182.976H285.112C285.123 183.52 285.261 183.963 285.528 184.304C285.805 184.645 286.216 184.816 286.76 184.816C287.304 184.816 287.709 184.656 287.976 184.336C288.243 184.005 288.376 183.589 288.376 183.088V174.848H289.848ZM300.492 177.232V186H299.036V184.704C298.759 185.152 298.37 185.504 297.868 185.76C297.378 186.005 296.834 186.128 296.236 186.128C295.554 186.128 294.94 185.989 294.396 185.712C293.852 185.424 293.42 184.997 293.1 184.432C292.791 183.867 292.636 183.179 292.636 182.368V177.232H294.076V182.176C294.076 183.04 294.295 183.707 294.732 184.176C295.17 184.635 295.767 184.864 296.524 184.864C297.303 184.864 297.916 184.624 298.364 184.144C298.812 183.664 299.036 182.965 299.036 182.048V177.232H300.492ZM302.407 181.584C302.407 180.688 302.588 179.904 302.951 179.232C303.313 178.549 303.809 178.021 304.439 177.648C305.079 177.275 305.793 177.088 306.583 177.088C307.265 177.088 307.9 177.248 308.487 177.568C309.073 177.877 309.521 178.288 309.831 178.8V174.16H311.303V186H309.831V184.352C309.543 184.875 309.116 185.307 308.551 185.648C307.985 185.979 307.324 186.144 306.567 186.144C305.788 186.144 305.079 185.952 304.439 185.568C303.809 185.184 303.313 184.645 302.951 183.952C302.588 183.259 302.407 182.469 302.407 181.584ZM309.831 181.6C309.831 180.939 309.697 180.363 309.431 179.872C309.164 179.381 308.801 179.008 308.343 178.752C307.895 178.485 307.399 178.352 306.855 178.352C306.311 178.352 305.815 178.48 305.367 178.736C304.919 178.992 304.561 179.365 304.295 179.856C304.028 180.347 303.895 180.923 303.895 181.584C303.895 182.256 304.028 182.843 304.295 183.344C304.561 183.835 304.919 184.213 305.367 184.48C305.815 184.736 306.311 184.864 306.855 184.864C307.399 184.864 307.895 184.736 308.343 184.48C308.801 184.213 309.164 183.835 309.431 183.344C309.697 182.843 309.831 182.261 309.831 181.6ZM321.539 177.232V186H320.083V184.704C319.806 185.152 319.417 185.504 318.915 185.76C318.425 186.005 317.881 186.128 317.283 186.128C316.601 186.128 315.987 185.989 315.443 185.712C314.899 185.424 314.467 184.997 314.147 184.432C313.838 183.867 313.683 183.179 313.683 182.368V177.232H315.123V182.176C315.123 183.04 315.342 183.707 315.779 184.176C316.217 184.635 316.814 184.864 317.571 184.864C318.35 184.864 318.963 184.624 319.411 184.144C319.859 183.664 320.083 182.965 320.083 182.048V177.232H321.539ZM325.454 174.16V186H323.998V174.16H325.454ZM337.785 180.256C338.19 180.32 338.558 180.485 338.889 180.752C339.23 181.019 339.497 181.349 339.689 181.744C339.891 182.139 339.993 182.56 339.993 183.008C339.993 183.573 339.849 184.085 339.561 184.544C339.273 184.992 338.851 185.349 338.297 185.616C337.753 185.872 337.107 186 336.361 186H332.201V174.848H336.201C336.958 174.848 337.603 174.976 338.137 175.232C338.67 175.477 339.07 175.813 339.337 176.24C339.603 176.667 339.737 177.147 339.737 177.68C339.737 178.341 339.555 178.891 339.193 179.328C338.841 179.755 338.371 180.064 337.785 180.256ZM333.657 179.664H336.105C336.787 179.664 337.315 179.504 337.689 179.184C338.062 178.864 338.249 178.421 338.249 177.856C338.249 177.291 338.062 176.848 337.689 176.528C337.315 176.208 336.777 176.048 336.073 176.048H333.657V179.664ZM336.233 184.8C336.958 184.8 337.523 184.629 337.929 184.288C338.334 183.947 338.537 183.472 338.537 182.864C338.537 182.245 338.323 181.76 337.897 181.408C337.47 181.045 336.899 180.864 336.185 180.864H333.657V184.8H336.233ZM349.789 177.232V186H348.333V184.704C348.056 185.152 347.667 185.504 347.165 185.76C346.675 186.005 346.131 186.128 345.533 186.128C344.851 186.128 344.237 185.989 343.693 185.712C343.149 185.424 342.717 184.997 342.397 184.432C342.088 183.867 341.933 183.179 341.933 182.368V177.232H343.373V182.176C343.373 183.04 343.592 183.707 344.029 184.176C344.467 184.635 345.064 184.864 345.821 184.864C346.6 184.864 347.213 184.624 347.661 184.144C348.109 183.664 348.333 182.965 348.333 182.048V177.232H349.789ZM357.144 186L353.704 182.128V186H352.248V174.16H353.704V181.12L357.08 177.232H359.112L354.984 181.6L359.128 186H357.144ZM368.258 177.232V186H366.802V184.704C366.525 185.152 366.135 185.504 365.634 185.76C365.143 186.005 364.599 186.128 364.002 186.128C363.319 186.128 362.706 185.989 362.162 185.712C361.618 185.424 361.186 184.997 360.866 184.432C360.557 183.867 360.402 183.179 360.402 182.368V177.232H361.842V182.176C361.842 183.04 362.061 183.707 362.498 184.176C362.935 184.635 363.533 184.864 364.29 184.864C365.069 184.864 365.682 184.624 366.13 184.144C366.578 183.664 366.802 182.965 366.802 182.048V177.232H368.258Z" fill="#949494"/>
<path d="M620 108C609.391 108 599.217 112.214 591.716 119.716C584.214 127.217 580 137.391 580 148C580 158.609 584.214 168.783 591.716 176.284C599.217 183.786 609.391 188 620 188L620 177.897C612.071 177.897 604.467 174.747 598.86 169.14C593.253 163.533 590.103 155.929 590.103 148C590.103 140.071 593.253 132.467 598.86 126.86C604.467 121.253 612.071 118.103 620 118.103V108Z" fill="#008F76"/>
<path d="M620 108C630.609 108 640.783 112.214 648.284 119.716C655.786 127.217 660 137.391 660 148C660 158.609 655.786 168.783 648.284 176.284C640.783 183.786 630.609 188 620 188L620 177.897C627.929 177.897 635.533 174.747 641.14 169.14C646.747 163.533 649.897 155.929 649.897 148C649.897 140.071 646.747 132.467 641.14 126.86C635.533 121.253 627.929 118.103 620 118.103V108Z" fill="#A6A6A6"/>
<path d="M732.332 136.568C732.332 137.677 732.044 138.723 731.468 139.704C730.913 140.664 730.081 141.464 728.972 142.104C727.884 142.723 726.593 143.085 725.1 143.192V145.784H723.052V143.16C720.918 142.968 719.201 142.328 717.9 141.24C716.598 140.131 715.926 138.637 715.884 136.76H720.684C720.812 138.296 721.601 139.224 723.052 139.544V133.432C721.516 133.048 720.278 132.664 719.34 132.28C718.401 131.896 717.59 131.277 716.908 130.424C716.225 129.571 715.884 128.408 715.884 126.936C715.884 125.08 716.545 123.565 717.868 122.392C719.212 121.219 720.94 120.547 723.052 120.376V117.784H725.1V120.376C727.148 120.547 728.78 121.165 729.996 122.232C731.233 123.299 731.926 124.771 732.076 126.648H727.244C727.18 126.029 726.956 125.496 726.572 125.048C726.209 124.579 725.718 124.248 725.1 124.056V130.104C726.7 130.509 727.958 130.904 728.876 131.288C729.814 131.651 730.625 132.259 731.308 133.112C731.99 133.944 732.332 135.096 732.332 136.568ZM720.556 126.712C720.556 127.416 720.769 127.992 721.196 128.44C721.622 128.867 722.241 129.219 723.052 129.496V123.96C722.284 124.067 721.676 124.355 721.228 124.824C720.78 125.293 720.556 125.923 720.556 126.712ZM725.1 139.608C725.91 139.459 726.54 139.128 726.988 138.616C727.457 138.104 727.692 137.485 727.692 136.76C727.692 136.056 727.468 135.491 727.02 135.064C726.572 134.637 725.932 134.285 725.1 134.008V139.608ZM736.821 131.032C736.821 127.341 737.482 124.451 738.805 122.36C740.149 120.269 742.368 119.224 745.461 119.224C748.554 119.224 750.762 120.269 752.085 122.36C753.429 124.451 754.101 127.341 754.101 131.032C754.101 134.744 753.429 137.656 752.085 139.768C750.762 141.88 748.554 142.936 745.461 142.936C742.368 142.936 740.149 141.88 738.805 139.768C737.482 137.656 736.821 134.744 736.821 131.032ZM749.685 131.032C749.685 129.453 749.578 128.131 749.365 127.064C749.173 125.976 748.768 125.091 748.149 124.408C747.552 123.725 746.656 123.384 745.461 123.384C744.266 123.384 743.36 123.725 742.741 124.408C742.144 125.091 741.738 125.976 741.525 127.064C741.333 128.131 741.237 129.453 741.237 131.032C741.237 132.653 741.333 134.019 741.525 135.128C741.717 136.216 742.122 137.101 742.741 137.784C743.36 138.445 744.266 138.776 745.461 138.776C746.656 138.776 747.562 138.445 748.181 137.784C748.8 137.101 749.205 136.216 749.397 135.128C749.589 134.019 749.685 132.653 749.685 131.032Z" fill="#212121"/>
<path d="M685.68 178.08C685.371 177.429 684.923 176.928 684.336 176.576C683.749 176.213 683.067 176.032 682.288 176.032C681.509 176.032 680.805 176.213 680.176 176.576C679.557 176.928 679.067 177.44 678.704 178.112C678.352 178.773 678.176 179.541 678.176 180.416C678.176 181.291 678.352 182.059 678.704 182.72C679.067 183.381 679.557 183.893 680.176 184.256C680.805 184.608 681.509 184.784 682.288 184.784C683.376 184.784 684.272 184.459 684.976 183.808C685.68 183.157 686.091 182.277 686.208 181.168H681.76V179.984H687.76V181.104C687.675 182.021 687.387 182.864 686.896 183.632C686.405 184.389 685.76 184.992 684.96 185.44C684.16 185.877 683.269 186.096 682.288 186.096C681.253 186.096 680.309 185.856 679.456 185.376C678.603 184.885 677.925 184.208 677.424 183.344C676.933 182.48 676.688 181.504 676.688 180.416C676.688 179.328 676.933 178.352 677.424 177.488C677.925 176.613 678.603 175.936 679.456 175.456C680.309 174.965 681.253 174.72 682.288 174.72C683.472 174.72 684.517 175.013 685.424 175.6C686.341 176.187 687.008 177.013 687.424 178.08H685.68ZM691.141 178.656C691.397 178.155 691.76 177.765 692.229 177.488C692.709 177.211 693.29 177.072 693.973 177.072V178.576H693.589C691.957 178.576 691.141 179.461 691.141 181.232V186H689.685V177.232H691.141V178.656ZM695.11 181.584C695.11 180.688 695.291 179.904 695.654 179.232C696.017 178.549 696.513 178.021 697.142 177.648C697.782 177.275 698.491 177.088 699.27 177.088C700.038 177.088 700.705 177.253 701.27 177.584C701.835 177.915 702.257 178.331 702.534 178.832V177.232H704.006V186H702.534V184.368C702.246 184.88 701.814 185.307 701.238 185.648C700.673 185.979 700.011 186.144 699.254 186.144C698.475 186.144 697.771 185.952 697.142 185.568C696.513 185.184 696.017 184.645 695.654 183.952C695.291 183.259 695.11 182.469 695.11 181.584ZM702.534 181.6C702.534 180.939 702.401 180.363 702.134 179.872C701.867 179.381 701.505 179.008 701.046 178.752C700.598 178.485 700.102 178.352 699.558 178.352C699.014 178.352 698.518 178.48 698.07 178.736C697.622 178.992 697.265 179.365 696.998 179.856C696.731 180.347 696.598 180.923 696.598 181.584C696.598 182.256 696.731 182.843 696.998 183.344C697.265 183.835 697.622 184.213 698.07 184.48C698.518 184.736 699.014 184.864 699.558 184.864C700.102 184.864 700.598 184.736 701.046 184.48C701.505 184.213 701.867 183.835 702.134 183.344C702.401 182.843 702.534 182.261 702.534 181.6ZM708.242 178.432V183.6C708.242 184.027 708.333 184.331 708.514 184.512C708.696 184.683 709.01 184.768 709.458 184.768H710.53V186H709.218C708.408 186 707.8 185.813 707.394 185.44C706.989 185.067 706.786 184.453 706.786 183.6V178.432H705.65V177.232H706.786V175.024H708.242V177.232H710.53V178.432H708.242ZM713.047 175.808C712.769 175.808 712.535 175.712 712.343 175.52C712.151 175.328 712.055 175.093 712.055 174.816C712.055 174.539 712.151 174.304 712.343 174.112C712.535 173.92 712.769 173.824 713.047 173.824C713.313 173.824 713.537 173.92 713.719 174.112C713.911 174.304 714.007 174.539 714.007 174.816C714.007 175.093 713.911 175.328 713.719 175.52C713.537 175.712 713.313 175.808 713.047 175.808ZM713.751 177.232V186H712.295V177.232H713.751ZM719.336 186.144C718.664 186.144 718.061 186.032 717.528 185.808C716.995 185.573 716.573 185.253 716.264 184.848C715.955 184.432 715.784 183.957 715.752 183.424H717.256C717.299 183.861 717.501 184.219 717.864 184.496C718.237 184.773 718.723 184.912 719.32 184.912C719.875 184.912 720.312 184.789 720.632 184.544C720.952 184.299 721.112 183.989 721.112 183.616C721.112 183.232 720.941 182.949 720.6 182.768C720.259 182.576 719.731 182.389 719.016 182.208C718.365 182.037 717.832 181.867 717.416 181.696C717.011 181.515 716.659 181.253 716.36 180.912C716.072 180.56 715.928 180.101 715.928 179.536C715.928 179.088 716.061 178.677 716.328 178.304C716.595 177.931 716.973 177.637 717.464 177.424C717.955 177.2 718.515 177.088 719.144 177.088C720.115 177.088 720.899 177.333 721.496 177.824C722.093 178.315 722.413 178.987 722.456 179.84H721C720.968 179.381 720.781 179.013 720.44 178.736C720.109 178.459 719.661 178.32 719.096 178.32C718.573 178.32 718.157 178.432 717.848 178.656C717.539 178.88 717.384 179.173 717.384 179.536C717.384 179.824 717.475 180.064 717.656 180.256C717.848 180.437 718.083 180.587 718.36 180.704C718.648 180.811 719.043 180.933 719.544 181.072C720.173 181.243 720.685 181.413 721.08 181.584C721.475 181.744 721.811 181.989 722.088 182.32C722.376 182.651 722.525 183.083 722.536 183.616C722.536 184.096 722.403 184.528 722.136 184.912C721.869 185.296 721.491 185.6 721 185.824C720.52 186.037 719.965 186.144 719.336 186.144ZM736.313 178.112C736.313 179.04 735.993 179.813 735.353 180.432C734.724 181.04 733.758 181.344 732.457 181.344H730.313V186H728.857V174.848H732.457C733.716 174.848 734.67 175.152 735.321 175.76C735.982 176.368 736.313 177.152 736.313 178.112ZM732.457 180.144C733.268 180.144 733.865 179.968 734.249 179.616C734.633 179.264 734.825 178.763 734.825 178.112C734.825 176.736 734.036 176.048 732.457 176.048H730.313V180.144H732.457ZM746.123 181.28C746.123 181.557 746.107 181.851 746.075 182.16H739.067C739.12 183.024 739.413 183.701 739.947 184.192C740.491 184.672 741.147 184.912 741.915 184.912C742.544 184.912 743.067 184.768 743.483 184.48C743.909 184.181 744.208 183.787 744.379 183.296H745.947C745.712 184.139 745.243 184.827 744.539 185.36C743.835 185.883 742.96 186.144 741.915 186.144C741.083 186.144 740.336 185.957 739.675 185.584C739.024 185.211 738.512 184.683 738.139 184C737.765 183.307 737.579 182.507 737.579 181.6C737.579 180.693 737.76 179.899 738.123 179.216C738.485 178.533 738.992 178.011 739.643 177.648C740.304 177.275 741.061 177.088 741.915 177.088C742.747 177.088 743.483 177.269 744.123 177.632C744.763 177.995 745.253 178.496 745.595 179.136C745.947 179.765 746.123 180.48 746.123 181.28ZM744.619 180.976C744.619 180.421 744.496 179.947 744.251 179.552C744.005 179.147 743.669 178.843 743.243 178.64C742.827 178.427 742.363 178.32 741.851 178.32C741.115 178.32 740.485 178.555 739.963 179.024C739.451 179.493 739.157 180.144 739.083 180.976H744.619ZM758.589 177.072C759.271 177.072 759.879 177.216 760.413 177.504C760.946 177.781 761.367 178.203 761.677 178.768C761.986 179.333 762.141 180.021 762.141 180.832V186H760.701V181.04C760.701 180.165 760.482 179.499 760.045 179.04C759.618 178.571 759.037 178.336 758.301 178.336C757.543 178.336 756.941 178.581 756.493 179.072C756.045 179.552 755.821 180.251 755.821 181.168V186H754.381V181.04C754.381 180.165 754.162 179.499 753.725 179.04C753.298 178.571 752.717 178.336 751.981 178.336C751.223 178.336 750.621 178.581 750.173 179.072C749.725 179.552 749.501 180.251 749.501 181.168V186H748.045V177.232H749.501V178.496C749.789 178.037 750.173 177.685 750.653 177.44C751.143 177.195 751.682 177.072 752.269 177.072C753.005 177.072 753.655 177.237 754.221 177.568C754.786 177.899 755.207 178.384 755.485 179.024C755.73 178.405 756.135 177.925 756.701 177.584C757.266 177.243 757.895 177.072 758.589 177.072ZM765.281 175.808C765.004 175.808 764.769 175.712 764.577 175.52C764.385 175.328 764.289 175.093 764.289 174.816C764.289 174.539 764.385 174.304 764.577 174.112C764.769 173.92 765.004 173.824 765.281 173.824C765.548 173.824 765.772 173.92 765.953 174.112C766.145 174.304 766.241 174.539 766.241 174.816C766.241 175.093 766.145 175.328 765.953 175.52C765.772 175.712 765.548 175.808 765.281 175.808ZM765.985 177.232V186H764.529V177.232H765.985ZM772.738 177.072C773.805 177.072 774.669 177.397 775.33 178.048C775.992 178.688 776.322 179.616 776.322 180.832V186H774.882V181.04C774.882 180.165 774.664 179.499 774.226 179.04C773.789 178.571 773.192 178.336 772.434 178.336C771.666 178.336 771.053 178.576 770.594 179.056C770.146 179.536 769.922 180.235 769.922 181.152V186H768.466V177.232H769.922V178.48C770.21 178.032 770.6 177.685 771.09 177.44C771.592 177.195 772.141 177.072 772.738 177.072ZM779.485 175.808C779.207 175.808 778.973 175.712 778.781 175.52C778.599 175.328 778.509 175.093 778.509 174.816C778.509 174.539 778.599 174.304 778.781 174.112C778.973 173.92 779.207 173.824 779.485 173.824C779.762 173.824 779.991 173.92 780.173 174.112C780.365 174.304 780.461 174.539 780.461 174.816C780.461 175.093 780.365 175.328 780.173 175.52C779.991 175.712 779.762 175.808 779.485 175.808ZM780.205 187.904C780.205 188.683 780.007 189.253 779.613 189.616C779.218 189.979 778.642 190.16 777.885 190.16H777.037V188.928H777.645C778.05 188.928 778.333 188.848 778.493 188.688C778.663 188.528 778.749 188.256 778.749 187.872V177.232H780.205V187.904ZM782.126 181.584C782.126 180.688 782.307 179.904 782.67 179.232C783.032 178.549 783.528 178.021 784.158 177.648C784.798 177.275 785.507 177.088 786.286 177.088C787.054 177.088 787.72 177.253 788.286 177.584C788.851 177.915 789.272 178.331 789.55 178.832V177.232H791.022V186H789.55V184.368C789.262 184.88 788.83 185.307 788.254 185.648C787.688 185.979 787.027 186.144 786.27 186.144C785.491 186.144 784.787 185.952 784.158 185.568C783.528 185.184 783.032 184.645 782.67 183.952C782.307 183.259 782.126 182.469 782.126 181.584ZM789.55 181.6C789.55 180.939 789.416 180.363 789.15 179.872C788.883 179.381 788.52 179.008 788.062 178.752C787.614 178.485 787.118 178.352 786.574 178.352C786.03 178.352 785.534 178.48 785.086 178.736C784.638 178.992 784.28 179.365 784.014 179.856C783.747 180.347 783.614 180.923 783.614 181.584C783.614 182.256 783.747 182.843 784.014 183.344C784.28 183.835 784.638 184.213 785.086 184.48C785.534 184.736 786.03 184.864 786.574 184.864C787.118 184.864 787.614 184.736 788.062 184.48C788.52 184.213 788.883 183.835 789.15 183.344C789.416 182.843 789.55 182.261 789.55 181.6ZM804.026 177.072C804.709 177.072 805.317 177.216 805.85 177.504C806.383 177.781 806.805 178.203 807.114 178.768C807.423 179.333 807.578 180.021 807.578 180.832V186H806.138V181.04C806.138 180.165 805.919 179.499 805.482 179.04C805.055 178.571 804.474 178.336 803.738 178.336C802.981 178.336 802.378 178.581 801.93 179.072C801.482 179.552 801.258 180.251 801.258 181.168V186H799.818V181.04C799.818 180.165 799.599 179.499 799.162 179.04C798.735 178.571 798.154 178.336 797.418 178.336C796.661 178.336 796.058 178.581 795.61 179.072C795.162 179.552 794.938 180.251 794.938 181.168V186H793.482V177.232H794.938V178.496C795.226 178.037 795.61 177.685 796.09 177.44C796.581 177.195 797.119 177.072 797.706 177.072C798.442 177.072 799.093 177.237 799.658 177.568C800.223 177.899 800.645 178.384 800.922 179.024C801.167 178.405 801.573 177.925 802.138 177.584C802.703 177.243 803.333 177.072 804.026 177.072ZM809.422 181.584C809.422 180.688 809.604 179.904 809.966 179.232C810.329 178.549 810.825 178.021 811.454 177.648C812.094 177.275 812.804 177.088 813.582 177.088C814.35 177.088 815.017 177.253 815.582 177.584C816.148 177.915 816.569 178.331 816.846 178.832V177.232H818.318V186H816.846V184.368C816.558 184.88 816.126 185.307 815.55 185.648C814.985 185.979 814.324 186.144 813.566 186.144C812.788 186.144 812.084 185.952 811.454 185.568C810.825 185.184 810.329 184.645 809.966 183.952C809.604 183.259 809.422 182.469 809.422 181.584ZM816.846 181.6C816.846 180.939 816.713 180.363 816.446 179.872C816.18 179.381 815.817 179.008 815.358 178.752C814.91 178.485 814.414 178.352 813.87 178.352C813.326 178.352 812.83 178.48 812.382 178.736C811.934 178.992 811.577 179.365 811.31 179.856C811.044 180.347 810.91 180.923 810.91 181.584C810.91 182.256 811.044 182.843 811.31 183.344C811.577 183.835 811.934 184.213 812.382 184.48C812.83 184.736 813.326 184.864 813.87 184.864C814.414 184.864 814.91 184.736 815.358 184.48C815.817 184.213 816.18 183.835 816.446 183.344C816.713 182.843 816.846 182.261 816.846 181.6ZM825.051 177.072C826.118 177.072 826.982 177.397 827.643 178.048C828.304 178.688 828.635 179.616 828.635 180.832V186H827.195V181.04C827.195 180.165 826.976 179.499 826.539 179.04C826.102 178.571 825.504 178.336 824.747 178.336C823.979 178.336 823.366 178.576 822.907 179.056C822.459 179.536 822.235 180.235 822.235 181.152V186H820.779V177.232H822.235V178.48C822.523 178.032 822.912 177.685 823.403 177.44C823.904 177.195 824.454 177.072 825.051 177.072Z" fill="#949494"/>
<path d="M1080 108C1069.39 108 1059.22 112.214 1051.72 119.716C1044.21 127.217 1040 137.391 1040 148C1040 158.609 1044.21 168.783 1051.72 176.284C1059.22 183.786 1069.39 188 1080 188L1080 177.897C1072.07 177.897 1064.47 174.747 1058.86 169.14C1053.25 163.533 1050.1 155.929 1050.1 148C1050.1 140.071 1053.25 132.467 1058.86 126.86C1064.47 121.253 1072.07 118.103 1080 118.103V108Z" fill="#008F76"/>
<path d="M1080 108C1090.61 108 1100.78 112.214 1108.28 119.716C1115.79 127.217 1120 137.391 1120 148C1120 158.609 1115.79 168.783 1108.28 176.284C1100.78 183.786 1090.61 188 1080 188L1080 177.897C1087.93 177.897 1095.53 174.747 1101.14 169.14C1106.75 163.533 1109.9 155.929 1109.9 148C1109.9 140.071 1106.75 132.467 1101.14 126.86C1095.53 121.253 1087.93 118.103 1080 118.103V108Z" fill="#A6A6A6"/>
<path d="M1201.58 123.544H1191.21V129.016C1191.66 128.461 1192.3 128.013 1193.13 127.672C1193.96 127.309 1194.85 127.128 1195.79 127.128C1197.49 127.128 1198.89 127.501 1199.98 128.248C1201.07 128.995 1201.86 129.955 1202.35 131.128C1202.84 132.28 1203.08 133.517 1203.08 134.84C1203.08 137.293 1202.38 139.267 1200.97 140.76C1199.58 142.253 1197.6 143 1195.02 143C1192.59 143 1190.65 142.392 1189.2 141.176C1187.74 139.96 1186.92 138.371 1186.73 136.408H1191.08C1191.28 137.261 1191.7 137.944 1192.36 138.456C1193.05 138.968 1193.91 139.224 1194.96 139.224C1196.21 139.224 1197.16 138.829 1197.8 138.04C1198.44 137.251 1198.76 136.205 1198.76 134.904C1198.76 133.581 1198.43 132.579 1197.77 131.896C1197.13 131.192 1196.18 130.84 1194.92 130.84C1194.03 130.84 1193.28 131.064 1192.68 131.512C1192.09 131.96 1191.66 132.557 1191.4 133.304H1187.12V119.608H1201.58V123.544Z" fill="#212121"/>
<path d="M1143.28 186L1138.69 180.912V186H1137.23V174.848H1138.69V180.016L1143.3 174.848H1145.14L1140.08 180.432L1145.18 186H1143.28ZM1154.81 181.28C1154.81 181.557 1154.79 181.851 1154.76 182.16H1147.75C1147.81 183.024 1148.1 183.701 1148.63 184.192C1149.18 184.672 1149.83 184.912 1150.6 184.912C1151.23 184.912 1151.75 184.768 1152.17 184.48C1152.6 184.181 1152.9 183.787 1153.07 183.296H1154.63C1154.4 184.139 1153.93 184.827 1153.23 185.36C1152.52 185.883 1151.65 186.144 1150.6 186.144C1149.77 186.144 1149.02 185.957 1148.36 185.584C1147.71 185.211 1147.2 184.683 1146.83 184C1146.45 183.307 1146.27 182.507 1146.27 181.6C1146.27 180.693 1146.45 179.899 1146.81 179.216C1147.17 178.533 1147.68 178.011 1148.33 177.648C1148.99 177.275 1149.75 177.088 1150.6 177.088C1151.43 177.088 1152.17 177.269 1152.81 177.632C1153.45 177.995 1153.94 178.496 1154.28 179.136C1154.63 179.765 1154.81 180.48 1154.81 181.28ZM1153.31 180.976C1153.31 180.421 1153.18 179.947 1152.94 179.552C1152.69 179.147 1152.36 178.843 1151.93 178.64C1151.51 178.427 1151.05 178.32 1150.54 178.32C1149.8 178.32 1149.17 178.555 1148.65 179.024C1148.14 179.493 1147.84 180.144 1147.77 180.976H1153.31ZM1160.35 177.088C1161.11 177.088 1161.77 177.253 1162.33 177.584C1162.91 177.915 1163.33 178.331 1163.61 178.832V177.232H1165.08V186.192C1165.08 186.992 1164.91 187.701 1164.57 188.32C1164.23 188.949 1163.74 189.44 1163.1 189.792C1162.47 190.144 1161.73 190.32 1160.89 190.32C1159.74 190.32 1158.78 190.048 1158.01 189.504C1157.24 188.96 1156.79 188.219 1156.65 187.28H1158.09C1158.25 187.813 1158.58 188.24 1159.08 188.56C1159.59 188.891 1160.19 189.056 1160.89 189.056C1161.69 189.056 1162.34 188.805 1162.84 188.304C1163.36 187.803 1163.61 187.099 1163.61 186.192V184.352C1163.32 184.864 1162.9 185.291 1162.33 185.632C1161.77 185.973 1161.11 186.144 1160.35 186.144C1159.57 186.144 1158.86 185.952 1158.22 185.568C1157.59 185.184 1157.09 184.645 1156.73 183.952C1156.37 183.259 1156.19 182.469 1156.19 181.584C1156.19 180.688 1156.37 179.904 1156.73 179.232C1157.09 178.549 1157.59 178.021 1158.22 177.648C1158.86 177.275 1159.57 177.088 1160.35 177.088ZM1163.61 181.6C1163.61 180.939 1163.48 180.363 1163.21 179.872C1162.95 179.381 1162.58 179.008 1162.12 178.752C1161.68 178.485 1161.18 178.352 1160.64 178.352C1160.09 178.352 1159.6 178.48 1159.15 178.736C1158.7 178.992 1158.34 179.365 1158.08 179.856C1157.81 180.347 1157.68 180.923 1157.68 181.584C1157.68 182.256 1157.81 182.843 1158.08 183.344C1158.34 183.835 1158.7 184.213 1159.15 184.48C1159.6 184.736 1160.09 184.864 1160.64 184.864C1161.18 184.864 1161.68 184.736 1162.12 184.48C1162.58 184.213 1162.95 183.835 1163.21 183.344C1163.48 182.843 1163.61 182.261 1163.61 181.6ZM1168.3 175.808C1168.02 175.808 1167.78 175.712 1167.59 175.52C1167.4 175.328 1167.3 175.093 1167.3 174.816C1167.3 174.539 1167.4 174.304 1167.59 174.112C1167.78 173.92 1168.02 173.824 1168.3 173.824C1168.56 173.824 1168.79 173.92 1168.97 174.112C1169.16 174.304 1169.26 174.539 1169.26 174.816C1169.26 175.093 1169.16 175.328 1168.97 175.52C1168.79 175.712 1168.56 175.808 1168.3 175.808ZM1169 177.232V186H1167.54V177.232H1169ZM1170.94 181.584C1170.94 180.688 1171.12 179.904 1171.48 179.232C1171.84 178.549 1172.34 178.021 1172.97 177.648C1173.61 177.275 1174.32 177.088 1175.1 177.088C1175.87 177.088 1176.53 177.253 1177.1 177.584C1177.66 177.915 1178.08 178.331 1178.36 178.832V177.232H1179.83V186H1178.36V184.368C1178.07 184.88 1177.64 185.307 1177.07 185.648C1176.5 185.979 1175.84 186.144 1175.08 186.144C1174.3 186.144 1173.6 185.952 1172.97 185.568C1172.34 185.184 1171.84 184.645 1171.48 183.952C1171.12 183.259 1170.94 182.469 1170.94 181.584ZM1178.36 181.6C1178.36 180.939 1178.23 180.363 1177.96 179.872C1177.7 179.381 1177.33 179.008 1176.87 178.752C1176.43 178.485 1175.93 178.352 1175.39 178.352C1174.84 178.352 1174.35 178.48 1173.9 178.736C1173.45 178.992 1173.09 179.365 1172.83 179.856C1172.56 180.347 1172.43 180.923 1172.43 181.584C1172.43 182.256 1172.56 182.843 1172.83 183.344C1173.09 183.835 1173.45 184.213 1173.9 184.48C1174.35 184.736 1174.84 184.864 1175.39 184.864C1175.93 184.864 1176.43 184.736 1176.87 184.48C1177.33 184.213 1177.7 183.835 1177.96 183.344C1178.23 182.843 1178.36 182.261 1178.36 181.6ZM1184.07 178.432V183.6C1184.07 184.027 1184.16 184.331 1184.34 184.512C1184.52 184.683 1184.84 184.768 1185.29 184.768H1186.36V186H1185.05C1184.24 186 1183.63 185.813 1183.22 185.44C1182.82 185.067 1182.61 184.453 1182.61 183.6V178.432H1181.48V177.232H1182.61V175.024H1184.07V177.232H1186.36V178.432H1184.07ZM1187.58 181.584C1187.58 180.688 1187.76 179.904 1188.12 179.232C1188.49 178.549 1188.98 178.021 1189.61 177.648C1190.25 177.275 1190.96 177.088 1191.74 177.088C1192.51 177.088 1193.17 177.253 1193.74 177.584C1194.3 177.915 1194.73 178.331 1195 178.832V177.232H1196.47V186H1195V184.368C1194.71 184.88 1194.28 185.307 1193.71 185.648C1193.14 185.979 1192.48 186.144 1191.72 186.144C1190.94 186.144 1190.24 185.952 1189.61 185.568C1188.98 185.184 1188.49 184.645 1188.12 183.952C1187.76 183.259 1187.58 182.469 1187.58 181.584ZM1195 181.6C1195 180.939 1194.87 180.363 1194.6 179.872C1194.34 179.381 1193.97 179.008 1193.51 178.752C1193.07 178.485 1192.57 178.352 1192.03 178.352C1191.48 178.352 1190.99 178.48 1190.54 178.736C1190.09 178.992 1189.73 179.365 1189.47 179.856C1189.2 180.347 1189.07 180.923 1189.07 181.584C1189.07 182.256 1189.2 182.843 1189.47 183.344C1189.73 183.835 1190.09 184.213 1190.54 184.48C1190.99 184.736 1191.48 184.864 1192.03 184.864C1192.57 184.864 1193.07 184.736 1193.51 184.48C1193.97 184.213 1194.34 183.835 1194.6 183.344C1194.87 182.843 1195 182.261 1195 181.6ZM1203.21 177.072C1204.27 177.072 1205.14 177.397 1205.8 178.048C1206.46 178.688 1206.79 179.616 1206.79 180.832V186H1205.35V181.04C1205.35 180.165 1205.13 179.499 1204.7 179.04C1204.26 178.571 1203.66 178.336 1202.9 178.336C1202.14 178.336 1201.52 178.576 1201.06 179.056C1200.62 179.536 1200.39 180.235 1200.39 181.152V186H1198.94V177.232H1200.39V178.48C1200.68 178.032 1201.07 177.685 1201.56 177.44C1202.06 177.195 1202.61 177.072 1203.21 177.072ZM1219.31 186L1216.65 181.44H1214.89V186H1213.44V174.848H1217.04C1217.88 174.848 1218.59 174.992 1219.16 175.28C1219.75 175.568 1220.19 175.957 1220.48 176.448C1220.76 176.939 1220.91 177.499 1220.91 178.128C1220.91 178.896 1220.68 179.573 1220.24 180.16C1219.8 180.747 1219.14 181.136 1218.25 181.328L1221.05 186H1219.31ZM1214.89 180.272H1217.04C1217.82 180.272 1218.42 180.08 1218.81 179.696C1219.21 179.301 1219.4 178.779 1219.4 178.128C1219.4 177.467 1219.21 176.955 1218.81 176.592C1218.43 176.229 1217.84 176.048 1217.04 176.048H1214.89V180.272ZM1230.95 177.232V186H1229.49V184.704C1229.21 185.152 1228.82 185.504 1228.32 185.76C1227.83 186.005 1227.29 186.128 1226.69 186.128C1226.01 186.128 1225.39 185.989 1224.85 185.712C1224.31 185.424 1223.87 184.997 1223.55 184.432C1223.24 183.867 1223.09 183.179 1223.09 182.368V177.232H1224.53V182.176C1224.53 183.04 1224.75 183.707 1225.19 184.176C1225.62 184.635 1226.22 184.864 1226.98 184.864C1227.76 184.864 1228.37 184.624 1228.82 184.144C1229.27 183.664 1229.49 182.965 1229.49 182.048V177.232H1230.95ZM1235.18 178.432V183.6C1235.18 184.027 1235.27 184.331 1235.45 184.512C1235.63 184.683 1235.95 184.768 1236.4 184.768H1237.47V186H1236.16C1235.35 186 1234.74 185.813 1234.33 185.44C1233.93 185.067 1233.72 184.453 1233.72 183.6V178.432H1232.59V177.232H1233.72V175.024H1235.18V177.232H1237.47V178.432H1235.18ZM1239.98 175.808C1239.71 175.808 1239.47 175.712 1239.28 175.52C1239.09 175.328 1238.99 175.093 1238.99 174.816C1238.99 174.539 1239.09 174.304 1239.28 174.112C1239.47 173.92 1239.71 173.824 1239.98 173.824C1240.25 173.824 1240.47 173.92 1240.66 174.112C1240.85 174.304 1240.94 174.539 1240.94 174.816C1240.94 175.093 1240.85 175.328 1240.66 175.52C1240.47 175.712 1240.25 175.808 1239.98 175.808ZM1240.69 177.232V186H1239.23V177.232H1240.69ZM1247.44 177.072C1248.51 177.072 1249.37 177.397 1250.03 178.048C1250.69 178.688 1251.03 179.616 1251.03 180.832V186H1249.59V181.04C1249.59 180.165 1249.37 179.499 1248.93 179.04C1248.49 178.571 1247.89 178.336 1247.14 178.336C1246.37 178.336 1245.76 178.576 1245.3 179.056C1244.85 179.536 1244.63 180.235 1244.63 181.152V186H1243.17V177.232H1244.63V178.48C1244.91 178.032 1245.3 177.685 1245.79 177.44C1246.29 177.195 1246.84 177.072 1247.44 177.072Z" fill="#949494"/>
</svg>
